<?xml version="1.0" standalone="no"?>
<!DOCTYPE svg PUBLIC "-//W3C//DTD SVG 20010904//EN"
 "http://www.w3.org/TR/2001/REC-SVG-20010904/DTD/svg10.dtd">
<svg version="1.0" xmlns="http://www.w3.org/2000/svg"
 width="1280.000000pt" height="960.000000pt" viewBox="0 0 1280.000000 960.000000"
 preserveAspectRatio="xMidYMid meet">
<metadata>
Created by potrace 1.15, written by Peter Selinger 2001-2017
</metadata>
<g transform="translate(0.000000,960.000000) scale(0.100000,-0.100000)"
fill="#000000" stroke="none">
<path d="M2090 9594 c-201 -37 -342 -85 -539 -183 -344 -173 -746 -489 -987
-775 -106 -125 -264 -361 -331 -492 -259 -506 -298 -986 -123 -1489 150 -434
152 -437 333 -636 37 -41 84 -99 105 -129 41 -60 129 -133 346 -292 591 -430
755 -498 1301 -543 206 -17 314 -36 352 -60 38 -25 82 -92 144 -220 36 -74 64
-149 74 -195 9 -41 45 -144 81 -229 90 -210 108 -266 159 -491 92 -407 110
-551 102 -800 -7 -224 -41 -387 -116 -562 -39 -91 -64 -224 -58 -306 8 -107
104 -432 202 -682 51 -132 210 -454 287 -580 121 -202 268 -399 381 -513 102
-102 216 -138 517 -166 210 -20 322 -11 375 30 23 19 25 26 23 97 -2 56 2 86
15 109 9 18 17 41 17 53 0 85 -130 173 -305 205 -106 20 -155 43 -188 87 -13
18 -57 92 -98 163 -40 72 -108 187 -150 256 -123 201 -179 324 -179 394 0 102
133 332 238 412 24 18 48 33 53 33 22 0 108 -94 202 -220 149 -201 246 -310
507 -570 255 -255 389 -375 569 -508 64 -47 145 -114 181 -148 43 -41 78 -66
105 -73 48 -13 434 -14 616 -2 161 11 188 23 235 104 20 34 38 76 41 95 5 29
1 38 -38 75 -74 70 -131 114 -189 143 -53 27 -62 29 -237 34 l-182 5 -97 105
c-474 516 -554 618 -554 706 0 110 84 212 380 464 358 305 821 811 1091 1195
210 298 317 349 449 214 121 -124 242 -365 471 -936 231 -576 244 -626 244
-923 0 -248 -7 -302 -76 -585 -74 -304 -93 -420 -93 -571 l-1 -131 38 -75 c48
-94 108 -163 194 -222 86 -58 123 -65 198 -37 122 46 229 147 309 291 67 122
93 221 106 392 5 70 20 173 34 230 16 68 28 160 35 268 6 91 13 197 16 235 9
123 35 865 35 1012 0 154 3 173 30 173 36 0 67 -54 84 -147 33 -182 84 -630
116 -1018 6 -71 15 -182 20 -245 5 -63 14 -288 20 -500 14 -514 34 -639 122
-770 43 -65 103 -111 168 -131 96 -28 555 -19 684 13 43 11 52 18 73 57 45 86
18 192 -74 291 -55 59 -114 95 -226 135 -78 28 -102 71 -160 295 -81 314 -79
364 43 805 71 260 66 238 150 636 107 504 152 671 241 876 88 206 168 328 369
564 266 311 522 680 793 1144 177 303 278 513 298 623 14 74 63 200 129 332
94 188 147 250 300 355 110 76 297 264 383 385 79 111 185 321 221 436 48 155
56 230 55 483 -1 247 1 262 50 456 17 66 37 167 46 225 18 118 30 168 85 355
57 194 64 231 65 335 0 187 -49 208 -260 110 -155 -71 -322 -186 -494 -340
-130 -116 -163 -140 -195 -140 -15 0 -71 15 -125 34 -200 70 -458 90 -726 57
-228 -28 -286 -28 -319 2 -14 12 -52 76 -85 142 -33 66 -90 159 -125 206 -123
162 -308 332 -409 374 -47 20 -64 19 -76 -3 -17 -32 -31 -213 -41 -552 -14
-454 -46 -663 -126 -822 -33 -66 -60 -81 -132 -76 -73 5 -144 41 -372 187
-263 168 -331 199 -610 270 -583 149 -951 208 -1365 218 -332 8 -520 -11 -870
-88 -682 -151 -1310 -366 -1755 -602 -432 -229 -760 -461 -1145 -811 -143
-130 -198 -175 -285 -231 -77 -50 -115 -89 -124 -128 -4 -18 -61 -84 -150
-175 -79 -81 -153 -166 -165 -189 -30 -59 -151 -201 -262 -309 -147 -141 -238
-173 -406 -145 -329 57 -925 399 -1186 681 -214 231 -320 518 -304 825 12 232
71 383 265 680 185 285 394 546 627 784 176 181 320 308 540 474 187 142 275
222 275 249 0 58 -64 89 -190 93 -47 2 -96 1 -110 -1z m8323 -2118 c95 -32
339 -144 413 -189 33 -19 73 -50 89 -67 26 -27 30 -39 29 -83 -1 -62 -22 -107
-66 -139 -28 -19 -45 -23 -113 -23 -65 0 -90 5 -135 26 -78 37 -156 104 -247
213 -89 106 -134 182 -135 226 -2 65 47 76 165 36z m1850 -215 c74 -28 15
-131 -123 -213 -99 -58 -268 -111 -376 -116 -108 -5 -142 8 -169 65 -27 57
-25 116 5 149 31 34 156 92 235 109 70 16 391 20 428 6z"/>
</g>
</svg>
