<?xml version="1.0" standalone="no"?>
<!DOCTYPE svg PUBLIC "-//W3C//DTD SVG 20010904//EN"
 "http://www.w3.org/TR/2001/REC-SVG-20010904/DTD/svg10.dtd">
<svg version="1.0" xmlns="http://www.w3.org/2000/svg"
 width="1280.000000pt" height="1136.000000pt" viewBox="0 0 1280.000000 1136.000000"
 preserveAspectRatio="xMidYMid meet">
<metadata>
Created by potrace 1.15, written by Peter Selinger 2001-2017
</metadata>
<g transform="translate(0.000000,1136.000000) scale(0.100000,-0.100000)"
fill="#000000" stroke="none">
<path d="M2970 11340 c-531 -97 -1115 -428 -1340 -760 -24 -35 -51 -84 -60
-109 l-17 -46 -109 -37 c-374 -127 -867 -281 -974 -303 -215 -45 -256 -61
-311 -122 -38 -42 -149 -214 -149 -230 0 -17 403 -27 1117 -28 l663 0 15 -44
c27 -81 76 -126 193 -182 59 -28 139 -66 178 -85 164 -78 256 -224 298 -469
25 -148 23 -237 -9 -330 -42 -122 -122 -313 -250 -600 -145 -321 -252 -591
-305 -766 -52 -173 -221 -512 -257 -517 -13 -2 -23 -5 -23 -6 0 -12 -103 -404
-119 -451 -138 -417 -221 -908 -221 -1302 0 -432 74 -786 234 -1118 331 -689
1022 -1145 2036 -1344 213 -42 250 -51 485 -111 132 -33 281 -70 330 -81 125
-27 380 -79 440 -89 150 -26 228 -39 300 -49 44 -7 105 -16 135 -21 30 -5 101
-14 158 -21 97 -12 102 -13 96 -33 -23 -76 -113 -286 -156 -364 -37 -67 -56
-91 -67 -88 -26 8 -518 94 -631 110 -187 27 -380 39 -541 33 -86 -4 -163 -9
-172 -13 -13 -4 2 -27 69 -110 52 -65 79 -106 72 -109 -7 -2 -103 -20 -213
-40 -110 -19 -211 -38 -223 -40 -21 -5 -7 -19 105 -107 70 -55 132 -104 136
-108 5 -4 -66 -76 -157 -159 -91 -83 -165 -151 -163 -152 1 0 139 -8 307 -18
l306 -18 517 61 518 61 45 85 c84 157 91 162 257 175 101 8 97 -2 44 120 -49
114 -48 141 16 275 55 118 157 369 157 389 0 13 4 13 155 1 239 -21 644 -40
828 -40 146 0 187 -3 187 -13 0 -25 -42 -243 -77 -402 -44 -204 -101 -399
-157 -548 -45 -117 -139 -309 -161 -327 -8 -6 -108 7 -292 40 -448 79 -568 92
-840 88 -127 -2 -234 -6 -238 -10 -4 -4 30 -52 75 -108 45 -56 80 -103 79
-105 -2 -2 -105 -22 -229 -45 -124 -23 -226 -43 -228 -44 -1 -2 55 -49 125
-106 70 -56 129 -105 131 -110 1 -4 -70 -74 -159 -156 -89 -81 -158 -149 -153
-151 5 -1 144 -9 309 -18 l300 -15 514 59 c282 33 514 61 515 63 2 2 27 47 56
101 70 128 89 143 182 151 40 4 90 9 111 12 44 7 44 4 -5 124 -45 107 -42 140
25 280 110 232 217 543 291 850 39 161 66 305 66 356 0 29 4 34 23 34 122 0
625 33 852 56 915 91 1947 309 2822 595 l93 31 97 -22 c195 -44 533 -130 758
-195 246 -70 292 -84 652 -202 258 -84 275 -85 299 -28 19 46 18 71 -7 175
-19 83 -24 93 -115 211 -52 68 -124 159 -159 202 -36 42 -65 79 -65 81 0 3 39
-8 87 -25 48 -16 108 -29 133 -29 85 0 173 77 187 165 5 34 2 40 -93 137 -121
125 -388 385 -507 494 l-88 80 36 55 c21 29 47 74 60 99 25 50 135 308 135
318 0 3 -22 -27 -50 -68 -60 -91 -75 -108 -121 -143 -35 -26 -136 -58 -229
-71 -42 -6 -48 -4 -92 34 l-46 40 73 153 c103 214 118 263 112 362 -5 93 -25
154 -123 375 l-69 155 -6 -225 c-5 -147 -12 -249 -23 -293 -32 -141 -93 -232
-189 -282 l-52 -28 -115 83 c-577 420 -1208 737 -1890 949 -107 34 -204 65
-215 70 -11 4 -87 58 -169 120 -651 487 -1275 793 -1991 974 -339 86 -659 145
-1355 247 -948 140 -1539 245 -1943 345 -107 27 -143 32 -163 24 -15 -5 -28
-8 -29 -7 -2 2 -10 67 -20 145 -16 140 -16 146 5 280 83 529 162 778 375 1173
46 85 100 202 120 260 21 58 91 245 157 415 201 517 240 661 241 870 0 241
-78 422 -286 658 -124 140 -449 410 -542 450 -120 50 -181 60 -410 63 -184 3
-237 0 -325 -16z"/>
</g>
</svg>
