<svg xmlns="http://www.w3.org/2000/svg" width="188.097" height="198.529" viewBox="0 0 188.097 198.529">
  <g id="OBJECTS" transform="translate(-849.679 -518.514)">
    <g id="Groupe_9" data-name="Groupe 9" transform="translate(769 421.66)">
      <path id="Tracé_14" data-name="Tracé 14" d="M266.25,169.762a1.744,1.744,0,0,0-.62-.513l.686-1.8-5.5-3.359-3.331.146-9.82,3.629s-11-15.567-13.594-19.344a.766.766,0,0,0,.539-1c-1.108-4.281-1.422-12.586-1.524-18.524l.122-.164a7.747,7.747,0,0,0,4.814.421l11.891,4.665a4.6,4.6,0,0,0,2.316,3.457,3.331,3.331,0,0,0,3.392-.2s3.4.414,3.62-4.607c0,0,1.342-.978-.715-4.926s-12.052-14.867-12.052-14.867.243-2.3-3.517-4.067l-1.3-1.364a8.953,8.953,0,0,0-4.642-2.585h0c-2.859-5.432-13.437-5.646-13.437-5.646a13.2,13.2,0,0,0,1.306,4.074c-8.841-.136-15.707,11.646-24.789,13.226a7.363,7.363,0,0,0,5,2.5c-1.021.807-3.411,3.944-4.51,5.035-6.861,6.806-12.563,6.546-16.47,5.4,0,0,2.349,5.67,8.475,6.352a52.776,52.776,0,0,0-5.68,5.795c-4.216,5.575-6,9.423-10.077,9.393,0,0,9.319,5.093,16.181-1.714a29.4,29.4,0,0,0-3.483,7.926c-2.24,7.147-6.862,9.292-6.862,9.292s6.161,1.378,10.174-3.053c-.462.673-.929,1.368-1.406,2.1-6.766,10.387-15.86,14.3-29.161,20.393a42.854,42.854,0,0,0-15.6,11.933c-8.223,8.364-30.522,10.652-37.573,27.233,0,0,5.336-3.24,9.339-4a45.647,45.647,0,0,0-11.054,25.92c-1.525,16.2-9.53,20.584-18.3,17.344a20.906,20.906,0,0,0,13.056,5.384c4.413.082,8.077-2.41,10.487-6.694-.691,3.684-2.249,8.376-5.77,10.7,0,0,13.434-.348,17.979-15.05l1.485,3.186s10.126-6.861,8.839-23.014a84.132,84.132,0,0,1,.324-9.907l4.878-11.164c1.209,11.858,9.521,20.928,9.521,20.928,1,7.79-5.432,14.366-5.432,14.366s-4.5,4.646-4.074,5.432,8.219,17.51,8.863,21.37,3.073,4.788,3.073,4.788l-1.716,7.5c5.217,2.573,10.622,0,10.622,0l-3.76-5.789s.286-2.144.286-2.644-6.861-14.866-6.718-17.868c.075-1.566,1.955-2.66,4.319-6.072,0,0,2.257,3.929,4.687,9.145s4.788,10.506,5.075,11.507,2.358,3,2.358,3l-.428,7.719a17.587,17.587,0,0,0,10.506,0l-4.947-6.432,1.158-3.288s-9.72-17.01-10.006-19.726,10.578-17.153,14.867-23.872c3.448-5.4,2.927-12.129,2.591-14.557l2.021-1.337c12.766-4.987,31.94-12.6,43.977-29.1a6.411,6.411,0,0,0,2.186,1.47c1.144,0,22.84-15.238,23.6-15.333.649-.081,1.817,1.146,3.221,1.455l-2.217,10.329-2.052.9,2.808,7.954-2.237.632,2.573,10.176,4.573-5.051,1.145-7.814s3.336-.953,2.383-5.051S266.917,170.906,266.25,169.762Z" fill="#fff" stroke="#454f63" stroke-width="1"/>
      <g id="Groupe_8" data-name="Groupe 8" transform="translate(89.095 99.111)">
        <g id="Groupe_7" data-name="Groupe 7">
          <g id="Groupe_6" data-name="Groupe 6" transform="translate(134.486)">
            <path id="Tracé_15" data-name="Tracé 15" d="M308.318,109.046c-9.148-.715-10.149-9.935-10.149-9.935s10.578.214,13.437,5.646h0a8.953,8.953,0,0,1,4.642,2.585l1.3,1.364c3.76,1.764,3.517,4.067,3.517,4.067s9.995,10.919,12.052,14.867.715,4.926.715,4.926c-.22,5.021-3.62,4.607-3.62,4.607a3.331,3.331,0,0,1-3.392.2,4.6,4.6,0,0,1-2.316-3.457l-11.891-4.665c-5.835,1.164-7.943-3.311-7.943-3.311" transform="translate(-298.169 -99.111)" fill="none" stroke="#454f63" stroke-miterlimit="10" stroke-width="4.414"/>
            <path id="Tracé_16" data-name="Tracé 16" d="M329.76,137.716c-3.115.482-2.556,3.061-6.47,4" transform="translate(-307.131 -112.883)" fill="none" stroke="#454f63" stroke-miterlimit="10" stroke-width="1.621"/>
            <path id="Tracé_17" data-name="Tracé 17" d="M326.672,122.061a1.442,1.442,0,1,0,1.22-1.634A1.442,1.442,0,0,0,326.672,122.061Z" transform="translate(-308.332 -106.71)" fill="#1d3244" stroke="#454f63" stroke-width="1"/>
            <path id="Tracé_18" data-name="Tracé 18" d="M348.966,147.649c.158.781.6,1.35.992,1.271s.579-.775.421-1.556-.6-1.35-.992-1.271S348.809,146.869,348.966,147.649Z" transform="translate(-316.271 -115.869)" fill="#1d3244" stroke="#454f63" stroke-width="1"/>
          </g>
          <path id="Tracé_19" data-name="Tracé 19" d="M304.315,128s-2.668,22.2,6.957,35.831" transform="translate(-165.754 -109.417)" fill="none" stroke="#454f63" stroke-miterlimit="10" stroke-width="2.496"/>
          <path id="Tracé_20" data-name="Tracé 20" d="M285.688,217.266a8.7,8.7,0,0,0,5.336,4.193s6.861,9.625,8.005,9.625,23.347-16.3,24.11-16.391,2.24,1.62,3.979,1.525v8.958s-1.93,4.288-.762,5.908a5.074,5.074,0,0,1,.762,3.621l-4.456,1.259,2.573,10.176,4.573-5.051,1.145-7.814s3.336-.953,2.383-5.051,3.717-21.536,3.05-22.68-7.338-2.763-7.338-2.763-11.245,8-17.058,8.2-7.242-.477-7.242-.477,2.08-3.113.364-8.047" transform="translate(-159.23 -135.979)" fill="none" stroke="#454f63" stroke-miterlimit="10" stroke-width="4.009"/>
          <path id="Tracé_21" data-name="Tracé 21" d="M312.919,144.667s-.58,11.007,1.517,19.106,12.735,12.891,10.751,25.838" transform="translate(-168.919 -115.363)" fill="none" stroke="#454f63" stroke-miterlimit="10" stroke-width="4"/>
          <path id="Tracé_22" data-name="Tracé 22" d="M197.122,216.265a32.654,32.654,0,0,1-3.43,31.877c-11.293,16.01-14.151,19.012-14.294,22.013s6.718,17.368,6.718,17.868-.286,2.644-.286,2.644l3.76,5.789s-5.4,2.573-10.622,0l1.716-7.5s-2.43-.929-3.073-4.788-8.434-20.584-8.863-21.37,4.074-5.432,4.074-5.432,6.432-6.575,5.432-14.366c0,0-8.917-9.727-9.625-22.2-.762-13.436,9.53-24.872,22.013-30.59,13.3-6.092,22.395-10.006,29.161-20.393S232,154.942,232,154.942c3.967-29.932,19.525-40.858,24.375-43.577" transform="translate(-117.455 -103.483)" fill="none" stroke="#454f63" stroke-miterlimit="10" stroke-width="4"/>
          <path id="Tracé_23" data-name="Tracé 23" d="M217.388,292.086c2.746-7.044,12.09-6.726,12.09-6.726" transform="translate(-134.864 -165.555)" fill="none" stroke="#454f63" stroke-miterlimit="10" stroke-width="3.278"/>
          <path id="Tracé_24" data-name="Tracé 24" d="M216.474,281.9s.59-4.476,12.217-8.479,32.759-11.178,43.968-28.7" transform="translate(-134.538 -151.057)" fill="none" stroke="#454f63" stroke-miterlimit="10" stroke-width="4"/>
          <path id="Tracé_25" data-name="Tracé 25" d="M344.741,242.934l-2.46-6.968,2.93-1.286a4.193,4.193,0,0,1,.786-3.5v-7.693" transform="translate(-179.42 -143.482)" fill="none" stroke="#454f63" stroke-miterlimit="10" stroke-width="4"/>
          <path id="Tracé_26" data-name="Tracé 26" d="M330.39,199.031l3.36,4.274,13.151-4.86,5.5,3.359-.686,1.8" transform="translate(-175.178 -134.549)" fill="none" stroke="#454f63" stroke-miterlimit="10" stroke-width="4"/>
          <path id="Tracé_27" data-name="Tracé 27" d="M217.224,290.588s1.85,8.77-2.438,15.489-15.152,21.156-14.867,23.872,10.006,19.726,10.006,19.726l-1.159,3.288,4.947,6.432a17.587,17.587,0,0,1-10.506,0l.428-7.719s-2.073-2-2.358-3-2.645-6.29-5.075-11.507a60.676,60.676,0,0,0-5.75-9.622" transform="translate(-125.255 -167.421)" fill="none" stroke="#454f63" stroke-miterlimit="10" stroke-width="4"/>
          <path id="Tracé_28" data-name="Tracé 28" d="M146.681,252.478c-8.223,8.364-30.522,10.652-37.573,27.233,0,0,5.336-3.24,9.339-4a45.647,45.647,0,0,0-11.054,25.92c-1.525,16.2-9.53,20.584-18.3,17.344a20.906,20.906,0,0,0,13.056,5.384c7.719.143,13.151-7.576,13.58-19.011" transform="translate(-89.095 -153.825)" fill="none" stroke="#454f63" stroke-miterlimit="10" stroke-width="4.178"/>
          <path id="Tracé_29" data-name="Tracé 29" d="M123.611,339.817s-.6,8.882-6.886,13.027c0,0,22.326-.571,19.155-31.733" transform="translate(-98.952 -178.31)" fill="none" stroke="#454f63" stroke-miterlimit="10" stroke-width="4"/>
          <path id="Tracé_30" data-name="Tracé 30" d="M145.76,321.958l.787,5.9s10.126-6.861,8.839-23.014,5.058-20.513,5.058-20.513" transform="translate(-109.31 -165.189)" fill="none" stroke="#454f63" stroke-miterlimit="10" stroke-width="4"/>
          <path id="Tracé_31" data-name="Tracé 31" d="M286.789,106.238c-10.006-2.556-15.264,10.884-25.127,12.6a6.433,6.433,0,0,0,7.66,2.01" transform="translate(-150.659 -101.539)" fill="none" stroke="#454f63" stroke-miterlimit="10" stroke-width="4"/>
          <path id="Tracé_32" data-name="Tracé 32" d="M265.85,125.778s-5.694.873-12.555,7.679-12.563,6.546-16.47,5.4c0,0,3.5,7.969,11.374,6.055" transform="translate(-141.798 -108.625)" fill="none" stroke="#454f63" stroke-miterlimit="10" stroke-width="4"/>
          <path id="Tracé_33" data-name="Tracé 33" d="M251.947,154.443c-6.066-.684-12.15,1.167-16.367,6.742s-6,9.423-10.077,9.393c0,0,10.745,5.879,17.653-3.413" transform="translate(-137.759 -118.803)" fill="none" stroke="#454f63" stroke-miterlimit="10" stroke-width="4"/>
          <path id="Tracé_34" data-name="Tracé 34" d="M251.575,169.63c-5.61,1.62-7.9,5.479-10.137,12.626s-6.862,9.292-6.862,9.292,7.909,1.773,11.642-5.141" transform="translate(-140.996 -124.269)" fill="none" stroke="#454f63" stroke-miterlimit="10" stroke-width="4.315"/>
        </g>
        <path id="Tracé_35" data-name="Tracé 35" d="M209.655,265.005c-.286,2.668,4.479,4.669,5.813,8.576" transform="translate(-132.101 -158.294)" fill="none" stroke="#454f63" stroke-miterlimit="10" stroke-width="2.068"/>
        <path id="Tracé_36" data-name="Tracé 36" d="M158.1,263c-5.174,8.153-24.614,13.007-25.329,37.382" transform="translate(-104.677 -157.578)" fill="none" stroke="#454f63" stroke-miterlimit="10" stroke-width="2.068"/>
        <path id="Tracé_37" data-name="Tracé 37" d="M137.217,325.847c6.647-7.219,3.288-21.012,9.005-28.731" transform="translate(-106.263 -169.75)" fill="none" stroke="#454f63" stroke-miterlimit="10" stroke-width="2.251"/>
      </g>
    </g>
  </g>
</svg>
