<?xml version="1.0" standalone="no"?>
<!DOCTYPE svg PUBLIC "-//W3C//DTD SVG 20010904//EN"
 "http://www.w3.org/TR/2001/REC-SVG-20010904/DTD/svg10.dtd">
<svg version="1.0" xmlns="http://www.w3.org/2000/svg"
 width="1210.000000pt" height="1280.000000pt" viewBox="0 0 1210.000000 1280.000000"
 preserveAspectRatio="xMidYMid meet">
<metadata>
Created by potrace 1.15, written by Peter Selinger 2001-2017
</metadata>
<g transform="translate(0.000000,1280.000000) scale(0.100000,-0.100000)"
fill="#000000" stroke="none">
<path d="M2004 12687 c-182 -185 -332 -364 -424 -503 -53 -81 -80 -152 -149
-387 -27 -92 -51 -170 -54 -173 -2 -3 -51 5 -108 17 -91 18 -125 20 -269 15
-91 -3 -183 -8 -205 -12 l-41 -6 -23 97 c-68 280 -121 392 -363 759 -106 160
-193 293 -195 295 -2 2 -5 2 -7 0 -8 -8 -26 -237 -41 -539 -25 -494 -51 -779
-81 -890 -20 -74 -30 -259 -16 -300 9 -25 8 -36 -3 -53 -18 -28 -29 -98 -21
-131 3 -13 17 -38 30 -53 22 -26 28 -54 56 -269 40 -313 64 -454 98 -593 l29
-114 -19 -61 c-15 -46 -22 -111 -29 -266 -5 -113 -6 -220 -3 -238 8 -42 38
-62 94 -62 71 0 175 -26 227 -57 41 -24 59 -28 125 -28 l77 0 17 -45 c9 -25
41 -91 71 -148 38 -73 60 -130 74 -192 22 -105 39 -367 39 -636 0 -203 11
-267 62 -369 17 -32 19 -44 10 -70 -15 -40 -33 -275 -25 -317 3 -18 12 -40 19
-48 26 -31 36 -79 50 -250 33 -399 76 -649 139 -810 59 -148 157 -364 275
-605 145 -297 259 -606 374 -1017 19 -69 92 -278 161 -463 140 -375 168 -459
225 -685 56 -222 74 -306 120 -570 90 -512 90 -512 90 -780 0 -284 -13 -477
-36 -525 -25 -53 -95 -94 -245 -144 -78 -26 -106 -57 -140 -160 -12 -34 -37
-86 -57 -114 -115 -168 -122 -179 -122 -211 0 -39 26 -76 75 -106 19 -12 35
-27 35 -34 0 -31 37 -46 129 -53 50 -3 94 -10 97 -14 2 -5 -8 -16 -23 -26 -15
-10 -48 -39 -74 -65 -27 -27 -55 -48 -63 -48 -28 0 -61 -61 -62 -115 0 -37
-11 -72 -42 -137 -70 -144 -72 -135 45 -247 118 -114 129 -119 307 -128 98 -5
139 -3 188 10 35 9 101 18 148 21 119 8 350 76 350 104 0 4 14 15 30 24 30 17
80 104 80 139 0 8 14 28 30 44 55 52 60 93 70 496 5 217 14 384 21 412 11 45
63 107 90 107 6 0 32 19 58 42 26 24 63 48 82 53 34 10 34 10 34 70 -1 33 -6
191 -13 350 -23 557 -19 665 53 1420 19 198 44 477 55 620 35 453 54 593 100
725 25 72 40 133 40 163 0 73 19 137 44 148 12 5 86 25 166 44 176 43 281 76
380 120 41 18 108 40 148 49 125 28 229 75 377 174 149 100 347 202 535 275
517 202 1249 376 1600 380 l115 2 160 -75 c294 -137 383 -212 688 -577 183
-219 212 -247 432 -427 243 -199 396 -300 527 -347 103 -37 254 -109 407 -193
64 -35 190 -96 279 -136 397 -175 548 -252 645 -329 148 -118 262 -291 307
-466 46 -181 65 -529 34 -622 -22 -66 -92 -161 -164 -224 -72 -63 -96 -98
-111 -168 -24 -114 53 -355 134 -415 27 -20 41 -21 225 -21 187 0 199 1 241
23 63 34 126 104 162 180 18 37 47 84 65 104 52 59 106 144 125 200 l17 50
-28 62 c-63 141 -104 444 -86 639 l8 77 38 -30 c52 -41 126 -140 162 -216 16
-34 35 -101 44 -150 8 -49 31 -169 49 -268 46 -233 46 -310 4 -394 -33 -68
-148 -196 -216 -243 -26 -19 -43 -38 -43 -50 0 -11 -14 -75 -31 -142 -30 -119
-30 -123 -15 -172 46 -146 150 -224 302 -225 41 0 87 -7 109 -16 57 -24 195
-21 275 6 88 30 187 83 234 126 l39 35 -7 72 -6 72 40 39 c22 22 46 57 52 78
12 41 5 85 -63 383 -78 339 -160 941 -174 1270 -13 315 -36 504 -68 546 -7 9
-93 62 -192 119 -376 214 -561 346 -733 519 -365 368 -660 763 -776 1037 -39
93 -116 344 -246 799 -156 548 -145 523 -361 843 -59 86 -121 185 -138 219
-32 64 -41 130 -18 138 6 2 84 8 172 13 126 7 170 13 206 29 115 51 172 173
138 296 -14 52 -99 135 -179 174 -125 61 -192 74 -447 83 -244 10 -484 28
-798 60 -568 60 -840 78 -1595 110 -1256 52 -1561 79 -2045 176 -400 81 -950
244 -1490 444 -377 140 -560 257 -704 453 -88 120 -116 182 -256 572 -78 214
-136 350 -195 455 -27 47 -23 75 48 315 73 245 87 324 79 458 -6 112 -27 193
-84 316 -19 42 -41 105 -50 141 -21 90 -29 555 -13 791 6 100 10 183 8 185 -2
2 -54 -47 -114 -109z"/>
</g>
</svg>
