<?xml version="1.0" standalone="no"?>
<!DOCTYPE svg PUBLIC "-//W3C//DTD SVG 20010904//EN"
 "http://www.w3.org/TR/2001/REC-SVG-20010904/DTD/svg10.dtd">
<svg version="1.0" xmlns="http://www.w3.org/2000/svg"
 width="1280.000000pt" height="1019.000000pt" viewBox="0 0 1280.000000 1019.000000"
 preserveAspectRatio="xMidYMid meet">
<metadata>
Created by potrace 1.15, written by Peter Selinger 2001-2017
</metadata>
<g transform="translate(0.000000,1019.000000) scale(0.100000,-0.100000)"
fill="#000000" stroke="none">
<path d="M2155 9706 c-141 -37 -242 -76 -344 -133 -115 -64 -294 -188 -366
-255 -67 -62 -149 -118 -204 -140 -14 -6 -74 -14 -132 -18 -69 -5 -118 -14
-140 -25 -51 -27 -168 -144 -194 -195 -32 -64 -65 -188 -65 -247 0 -34 -16
-96 -51 -197 -54 -157 -55 -172 -12 -217 20 -21 22 -30 14 -50 -14 -35 -77
-280 -96 -372 -8 -43 -23 -140 -31 -215 -27 -232 -7 -650 42 -891 34 -165 122
-428 235 -699 76 -184 297 -605 335 -637 6 -5 35 -53 64 -105 93 -165 230
-381 308 -485 42 -55 103 -152 137 -215 34 -63 72 -131 86 -151 49 -71 54 -92
39 -183 -27 -157 -9 -238 72 -331 140 -160 149 -182 174 -388 13 -111 15 -166
8 -226 -7 -58 -6 -100 4 -157 19 -107 26 -124 56 -124 21 0 26 -6 32 -37 45
-265 67 -347 110 -413 13 -19 34 -55 47 -80 19 -37 35 -51 88 -78 85 -43 375
-104 502 -106 82 -1 90 1 108 23 10 13 19 33 19 46 0 12 6 27 13 33 19 16 116
40 191 47 76 6 98 15 139 53 24 23 27 32 27 91 -1 36 -9 89 -18 117 -24 68
-93 187 -159 275 -52 67 -54 72 -43 100 14 34 22 22 -90 148 -123 139 -351
453 -420 577 -75 138 -125 264 -140 357 -9 58 -8 73 9 117 10 27 37 72 60 99
57 68 100 164 106 236 2 33 13 84 25 113 11 29 20 70 20 92 0 21 4 41 9 44 4
3 39 -31 77 -76 89 -106 236 -250 346 -339 83 -67 87 -73 98 -124 15 -71 32
-86 65 -55 l25 23 82 -53 c46 -30 153 -96 238 -147 105 -63 157 -100 162 -116
4 -12 11 -66 16 -120 8 -87 12 -101 37 -127 16 -17 39 -30 51 -30 29 0 76 40
125 107 35 47 69 69 69 45 0 -5 28 -42 62 -83 35 -41 88 -112 120 -158 47 -69
58 -92 63 -140 12 -113 48 -171 105 -171 33 0 68 31 124 111 41 59 51 68 94
79 61 16 144 14 212 -5 191 -52 215 -62 237 -94 12 -18 36 -42 54 -54 24 -16
37 -35 47 -72 26 -91 40 -115 79 -131 88 -37 145 12 162 139 6 49 6 49 66 74
33 14 79 41 102 60 24 19 55 35 69 36 23 2 28 -5 48 -58 12 -33 36 -89 54
-125 33 -70 80 -222 117 -384 12 -56 46 -177 74 -269 28 -92 51 -183 51 -202
0 -18 6 -64 14 -102 26 -122 38 -283 27 -350 -9 -58 -34 -119 -71 -173 -22
-33 -62 -134 -95 -240 -24 -77 -25 -89 -13 -124 16 -48 41 -57 148 -54 87 2
113 -9 130 -54 6 -18 36 -104 66 -192 86 -247 125 -312 242 -399 30 -21 93
-75 140 -119 108 -98 151 -124 271 -160 93 -28 167 -34 244 -21 57 9 65 30 58
146 -5 82 -3 101 9 112 11 10 85 21 225 35 271 27 335 53 335 137 0 39 -19 64
-150 196 -64 64 -133 140 -155 170 -23 32 -77 82 -138 128 -145 107 -248 208
-306 299 -62 96 -127 259 -143 355 -15 93 -15 384 0 465 7 36 19 160 27 275
31 430 49 587 78 670 12 34 54 205 88 355 6 25 16 51 24 59 11 12 17 10 38
-10 36 -36 92 -62 115 -55 11 4 30 22 41 41 25 43 27 43 246 14 106 -14 222
-38 345 -72 173 -47 192 -50 293 -48 l108 1 15 -37 c8 -21 29 -64 45 -95 69
-132 79 -178 91 -388 5 -107 7 -235 5 -283 -5 -81 -9 -95 -46 -157 -55 -92
-69 -147 -52 -202 7 -24 15 -86 18 -139 l5 -96 61 -36 c69 -41 81 -38 91 22 3
20 15 46 26 56 20 18 20 18 20 -58 0 -68 3 -82 30 -123 16 -26 32 -62 36 -80
3 -18 18 -43 32 -57 42 -39 152 -95 202 -103 25 -4 56 -12 70 -19 14 -7 41
-15 60 -19 19 -3 54 -21 78 -40 54 -43 159 -72 317 -87 144 -13 221 0 242 42
15 28 17 91 4 135 l-9 31 52 7 c28 3 89 6 136 6 121 0 130 8 130 113 0 88 -9
115 -61 176 -16 20 -59 70 -94 112 -55 65 -65 84 -71 128 -6 49 -9 52 -58 79
-69 37 -291 199 -360 263 -68 62 -73 71 -131 236 -61 171 -71 223 -64 308 4
39 10 128 15 198 6 109 10 129 25 138 13 6 53 3 130 -11 125 -22 310 -26 494
-10 302 26 462 30 542 15 168 -33 299 -46 578 -57 274 -11 302 -10 505 10 247
26 259 30 445 150 88 57 123 86 170 145 33 41 76 84 95 95 158 92 254 259 254
442 1 105 -42 245 -110 362 -52 89 -96 131 -171 164 -60 27 -165 33 -222 13
-28 -10 -42 -7 -124 29 -50 22 -171 66 -267 98 -149 50 -188 67 -260 117 -142
97 -203 152 -221 200 -23 62 -62 138 -102 196 -52 75 -63 138 -47 260 10 80
11 105 1 130 -8 18 -11 49 -7 78 4 35 1 62 -15 103 -11 30 -30 86 -41 123 -17
52 -35 84 -79 135 -33 38 -83 115 -116 177 -46 90 -72 125 -137 191 -45 45
-92 88 -105 97 -14 9 -23 19 -20 21 3 3 56 15 119 28 123 24 104 14 310 157
63 43 145 76 390 156 l175 57 105 -8 c148 -11 287 -11 299 1 5 6 13 27 16 47
7 37 6 39 -86 131 -69 67 -119 106 -186 145 -51 28 -96 52 -99 52 -3 0 -29 12
-58 26 -86 44 -266 110 -365 134 -85 21 -108 22 -245 17 -190 -8 -249 -21
-411 -92 -289 -125 -418 -207 -567 -356 -59 -59 -115 -110 -125 -113 -10 -3
-88 -10 -173 -16 -85 -5 -202 -15 -259 -22 -93 -10 -109 -9 -158 7 -48 17 -70
34 -167 136 -61 65 -154 155 -206 200 -52 45 -140 123 -195 173 -168 152 -204
181 -395 305 -102 66 -246 159 -320 208 -134 88 -309 179 -489 255 -53 22
-170 72 -261 110 -91 38 -232 100 -315 138 -378 173 -977 391 -1445 526 -336
98 -602 152 -907 184 -100 11 -202 24 -225 30 -112 26 -490 22 -1008 -10 -125
-7 -348 -35 -445 -55 -29 -6 -31 -4 -45 41 -10 32 -27 57 -53 78 -37 30 -43
31 -145 33 -94 3 -122 -1 -237 -31z"/>
</g>
</svg>
