<?xml version="1.0" standalone="no"?>
<!DOCTYPE svg PUBLIC "-//W3C//DTD SVG 20010904//EN"
 "http://www.w3.org/TR/2001/REC-SVG-20010904/DTD/svg10.dtd">
<svg version="1.0" xmlns="http://www.w3.org/2000/svg"
 width="1280.000000pt" height="1024.000000pt" viewBox="0 0 1280.000000 1024.000000"
 preserveAspectRatio="xMidYMid meet">
<metadata>
Created by potrace 1.15, written by Peter Selinger 2001-2017
</metadata>
<g transform="translate(0.000000,1024.000000) scale(0.100000,-0.100000)"
fill="#000000" stroke="none">
<path d="M5547 7265 c-75 -13 -152 -29 -170 -37 -25 -10 -119 -13 -427 -13
l-395 0 -92 -32 c-155 -54 -222 -95 -357 -216 -100 -90 -196 -212 -253 -321
l-46 -89 11 -76 c7 -49 7 -94 1 -126 -9 -51 -18 -70 -152 -325 -42 -80 -77
-157 -77 -173 0 -15 -9 -59 -20 -98 -41 -151 -35 -336 21 -639 76 -406 142
-633 216 -741 85 -124 243 -528 278 -710 8 -46 24 -108 35 -138 11 -31 24 -93
30 -139 9 -78 68 -243 91 -258 5 -3 24 11 43 30 24 26 42 36 64 36 28 0 32 4
39 38 4 20 7 163 8 317 0 297 -4 330 -65 575 -11 41 -26 113 -35 160 -9 47
-27 119 -40 160 -13 41 -32 127 -41 190 -15 100 -15 132 -4 250 8 86 21 161
36 208 13 40 24 78 24 85 0 7 14 29 31 50 l30 37 106 0 c97 0 109 2 138 24 17
14 48 56 68 94 20 38 57 88 82 111 39 36 50 41 92 41 60 0 120 -33 147 -80 30
-51 25 -228 -8 -308 -13 -32 -27 -68 -31 -82 -4 -14 -27 -65 -51 -115 -24 -49
-58 -139 -75 -200 -16 -60 -46 -158 -65 -218 -19 -59 -52 -198 -74 -310 -22
-111 -51 -227 -64 -257 -15 -34 -32 -111 -46 -200 -11 -80 -26 -163 -32 -185
-10 -38 -29 -158 -48 -305 -5 -36 -6 -81 -3 -102 4 -28 -2 -52 -30 -110 -19
-40 -38 -91 -42 -113 -11 -64 -28 -87 -139 -183 -127 -111 -138 -126 -134
-184 l3 -43 90 -6 c50 -4 153 -12 231 -19 124 -11 154 -11 247 4 58 9 140 16
182 16 71 0 79 2 105 29 25 25 28 33 21 59 -18 63 -24 270 -11 382 12 99 12
114 -5 169 -12 40 -15 71 -11 98 16 86 69 249 105 321 21 42 53 118 71 167 18
50 59 143 91 207 33 65 59 124 59 132 0 25 157 331 214 419 31 46 56 93 56
104 0 25 30 53 57 53 27 0 44 -22 53 -68 5 -20 17 -71 28 -113 15 -57 23 -135
32 -315 6 -131 18 -293 26 -359 10 -83 15 -241 17 -505 2 -441 8 -408 -92
-509 -61 -60 -84 -108 -98 -207 -7 -50 6 -57 77 -44 28 5 121 7 208 3 119 -4
167 -3 193 7 20 8 90 14 174 16 77 2 154 7 170 12 27 7 30 13 33 51 2 23 -3
73 -12 109 -8 37 -17 96 -21 132 -4 36 -18 90 -31 120 -65 151 -89 370 -62
575 6 50 12 127 12 173 1 73 4 85 23 100 31 24 48 117 32 174 -14 54 -5 184
19 264 14 45 24 62 45 72 25 12 32 11 75 -16 26 -17 92 -42 147 -57 95 -26
108 -27 240 -20 169 8 259 8 304 0 41 -8 134 -93 163 -149 24 -47 37 -173 38
-362 0 -156 -14 -232 -77 -434 -47 -150 -84 -233 -146 -333 -39 -64 -57 -130
-57 -208 0 -40 5 -55 25 -75 24 -24 30 -25 98 -20 40 3 178 8 307 12 132 3
250 11 268 18 34 11 34 12 35 76 2 130 -14 274 -36 330 -19 49 -21 75 -21 225
l0 170 47 148 c27 81 71 198 98 260 73 163 110 196 226 199 79 2 125 -17 148
-61 8 -16 23 -69 34 -118 11 -48 34 -127 51 -175 16 -49 30 -105 30 -127 0
-21 9 -90 19 -152 11 -67 21 -191 25 -299 6 -201 3 -215 -56 -302 -27 -40 -44
-116 -30 -130 6 -6 74 -9 153 -8 79 0 164 1 189 1 25 0 78 -3 117 -6 63 -6 74
-5 79 9 7 18 -3 60 -105 463 -34 133 -68 288 -76 345 -8 57 -20 121 -25 143
-17 68 -34 428 -32 690 2 242 3 255 35 410 19 88 44 187 56 220 32 84 50 198
57 360 8 172 -5 273 -52 409 -19 55 -34 118 -34 141 0 30 -15 72 -53 151 -30
60 -77 167 -106 238 -29 71 -69 154 -89 185 -65 99 -149 206 -183 233 -19 14
-70 58 -114 97 -90 81 -189 135 -280 153 -109 21 -745 2 -957 -28 -62 -9 -181
-17 -263 -18 -134 -1 -154 1 -180 19 -38 25 -241 116 -360 162 -49 19 -121 47
-160 63 -76 31 -236 76 -300 84 -22 2 -102 -6 -178 -19z"/>
</g>
</svg>
