<?xml version="1.0" standalone="no"?>
<!DOCTYPE svg PUBLIC "-//W3C//DTD SVG 20010904//EN"
 "http://www.w3.org/TR/2001/REC-SVG-20010904/DTD/svg10.dtd">
<svg version="1.0" xmlns="http://www.w3.org/2000/svg"
 width="712.000000pt" height="1280.000000pt" viewBox="0 0 712.000000 1280.000000"
 preserveAspectRatio="xMidYMid meet">
<metadata>
Created by potrace 1.15, written by Peter Selinger 2001-2017
</metadata>
<g transform="translate(0.000000,1280.000000) scale(0.100000,-0.100000)"
fill="#000000" stroke="none">
<path d="M5342 12780 c-40 -25 -70 -72 -78 -126 l-6 -42 -44 33 c-53 41 -105
59 -144 50 -70 -15 -130 -168 -97 -247 8 -19 40 -76 71 -128 50 -83 86 -169
86 -206 0 -10 -8 -10 -35 2 -68 28 -138 15 -184 -35 l-27 -29 -69 23 c-41 14
-120 28 -190 35 -154 14 -237 28 -304 51 -30 11 -55 18 -56 17 -8 -9 20 -145
44 -215 68 -197 208 -356 395 -448 88 -43 89 -44 63 -56 -31 -14 -36 -30 -7
-22 16 4 20 0 20 -20 0 -35 -22 -54 -72 -62 -50 -8 -64 -18 -85 -58 l-15 -30
38 6 c22 3 56 9 77 13 29 5 36 4 33 -7 -2 -8 -7 -26 -10 -41 -5 -21 -12 -28
-30 -28 -12 0 -48 -5 -79 -11 -56 -12 -57 -12 -57 -47 l0 -34 48 6 c26 4 60 9
76 13 24 4 28 3 23 -12 -4 -9 -7 -25 -7 -35 0 -21 -51 -40 -108 -40 -33 0 -35
-3 -47 -54 -7 -32 -9 -31 106 -10 l36 6 -6 -38 c-6 -38 -8 -39 -56 -46 -92
-13 -95 -15 -95 -54 0 -33 2 -35 28 -30 15 3 46 8 70 11 l42 7 0 -34 c0 -33
-2 -35 -51 -46 -28 -7 -61 -12 -74 -12 -18 0 -24 -7 -30 -36 -3 -20 -4 -38 -2
-40 2 -3 24 0 48 5 74 17 99 14 99 -11 0 -38 -14 -48 -80 -59 -35 -5 -67 -12
-72 -15 -4 -3 -8 -20 -8 -38 l0 -33 50 8 c28 4 59 11 70 14 24 8 31 -6 24 -42
-5 -28 -10 -30 -79 -42 -60 -11 -74 -17 -79 -35 -13 -48 -9 -54 32 -46 20 4
54 10 75 13 l38 6 -3 -37 c-3 -40 4 -36 -120 -57 -36 -6 -38 -8 -38 -42 0 -40
-5 -39 113 -17 l37 7 0 -37 c0 -38 1 -38 -85 -51 -71 -11 -75 -14 -75 -51 0
-33 2 -35 28 -30 15 3 49 8 76 12 48 7 49 6 43 -17 -4 -13 -7 -29 -7 -35 0
-11 -84 -34 -125 -34 -19 0 -24 -6 -27 -36 -5 -43 1 -48 49 -35 64 18 93 14
93 -11 0 -38 -14 -48 -81 -59 -35 -6 -68 -14 -72 -18 -5 -5 -7 -22 -5 -38 l3
-29 68 11 67 11 0 -26 c0 -39 -10 -46 -82 -60 -64 -13 -67 -14 -73 -48 -3 -19
-5 -36 -2 -38 2 -2 19 1 38 6 18 6 49 10 67 10 33 0 33 -1 27 -32 -4 -18 -8
-34 -9 -35 -1 -1 -30 -6 -65 -12 -67 -11 -81 -21 -81 -58 0 -18 6 -23 28 -23
15 0 43 4 61 10 19 5 37 8 39 5 2 -2 2 -19 -2 -38 -6 -33 -8 -34 -76 -47 -68
-13 -70 -14 -76 -47 -4 -19 -4 -36 -2 -38 2 -3 20 0 39 5 18 6 47 10 62 10 27
0 28 -2 22 -32 -4 -18 -8 -34 -10 -36 -1 -1 -31 -7 -66 -13 -35 -6 -67 -13
-70 -17 -4 -4 -10 -22 -14 -40 -6 -30 -5 -33 11 -29 11 3 41 8 68 12 47 6 49
6 43 -17 -4 -13 -7 -28 -7 -34 0 -13 -74 -34 -119 -34 -17 0 -31 -2 -31 -4 0
-2 -7 -21 -16 -41 l-15 -38 43 6 c24 3 58 9 75 13 l33 6 -14 -38 c-13 -38 -14
-39 -92 -54 -75 -15 -80 -18 -96 -50 -19 -41 -12 -46 47 -31 24 6 55 11 69 11
24 0 25 -1 11 -32 -16 -40 -22 -43 -113 -59 -71 -12 -74 -14 -94 -52 l-20 -40
39 7 c76 14 123 18 123 11 0 -4 -9 -23 -21 -41 -13 -22 -28 -34 -43 -34 -13 0
-48 -5 -80 -11 -52 -11 -59 -16 -77 -50 -22 -44 -23 -43 55 -28 31 7 59 9 62
6 3 -3 -6 -21 -20 -40 -22 -29 -35 -36 -94 -47 -63 -12 -70 -15 -90 -51 -25
-43 -22 -44 43 -29 l40 9 -52 -50 c-32 -31 -60 -49 -75 -49 -18 0 -30 -11 -46
-39 -12 -21 -19 -40 -16 -43 8 -9 -148 -141 -256 -218 -326 -230 -656 -359
-1080 -420 -577 -82 -1141 -278 -1503 -520 -151 -101 -205 -154 -403 -401
-220 -275 -271 -350 -356 -524 -76 -156 -109 -248 -131 -375 -41 -229 -48
-364 -47 -901 0 -521 -3 -562 -52 -774 -50 -220 -51 -229 -22 -287 30 -59 49
-148 59 -268 7 -96 23 -130 60 -130 20 0 33 12 58 53 133 210 245 489 282 701
20 118 19 178 -5 278 -61 253 -43 704 41 1046 49 198 104 315 170 363 l32 23
-7 -50 c-15 -107 -27 -468 -21 -629 8 -201 -9 -609 -30 -748 -21 -139 -61
-249 -185 -512 -59 -126 -120 -268 -134 -314 -32 -102 -46 -232 -35 -326 28
-239 31 -314 26 -555 -5 -214 -42 -782 -62 -939 -3 -24 -44 -159 -91 -300
-115 -344 -138 -438 -138 -571 l-1 -105 47 -80 c25 -44 54 -106 63 -137 l16
-57 -52 -86 c-77 -129 -113 -225 -113 -308 -1 -65 1 -70 31 -97 57 -51 84 -54
523 -54 365 -1 411 1 464 17 66 21 116 63 116 100 0 62 -74 167 -192 273 -73
67 -119 192 -149 404 -16 116 -17 748 -1 915 37 390 77 637 144 884 48 176 53
138 38 -293 -7 -204 -11 -456 -7 -561 4 -161 49 -725 75 -944 l7 -65 96 -73
c75 -56 102 -83 119 -118 29 -59 23 -88 -40 -209 -28 -52 -50 -99 -50 -106 0
-20 102 -58 200 -74 136 -23 406 -30 615 -17 172 11 314 27 323 35 2 3 -12 43
-31 89 -87 213 -223 379 -372 454 -57 28 -89 52 -112 82 -54 70 -64 121 -74
371 -8 225 -8 225 -49 360 -99 326 -133 537 -134 840 0 228 12 354 60 605 78
409 250 944 472 1465 79 184 200 451 210 462 10 10 118 -30 269 -101 198 -92
263 -105 503 -98 252 8 366 34 514 117 l57 33 -6 -84 c-3 -46 -17 -406 -30
-799 -17 -479 -30 -755 -41 -835 -21 -152 -21 -471 0 -800 20 -301 20 -635 1
-775 -7 -58 -25 -148 -40 -200 -53 -193 -45 -309 34 -494 l39 -91 -55 -65
c-143 -172 -169 -344 -61 -398 14 -6 50 -17 78 -22 72 -14 338 -13 479 2 107
10 118 14 142 40 43 45 46 109 8 179 -7 13 -36 49 -64 79 -49 51 -53 59 -58
115 -2 33 1 148 9 255 15 219 12 257 -38 397 -42 120 -47 208 -17 338 19 89
23 141 30 460 8 380 18 480 61 612 l23 68 7 -85 c48 -604 55 -987 24 -1327
-12 -135 -17 -256 -14 -365 l4 -163 58 -145 c31 -80 63 -174 71 -209 l13 -64
-34 -54 c-85 -132 -148 -292 -142 -360 l3 -38 125 -8 c110 -6 960 0 968 8 6 5
-90 239 -126 310 -34 65 -124 170 -164 191 -24 13 -81 218 -112 405 -54 327
-83 769 -71 1119 11 348 17 395 71 555 42 125 48 152 52 251 5 118 -2 166 -45
306 l-26 87 22 153 c11 84 35 279 51 433 72 664 121 968 206 1272 61 220 114
334 240 519 94 139 133 211 166 310 19 58 23 88 22 189 -1 103 -9 157 -54 375
-99 487 -84 602 145 1080 158 329 197 427 231 570 35 149 40 502 13 915 -29
450 -101 962 -215 1533 -29 150 -54 275 -54 279 0 3 8 -1 18 -10 69 -63 217
-79 478 -53 227 23 300 21 419 -10 211 -54 299 -43 402 49 32 29 93 73 134 99
87 55 109 82 109 135 0 58 -27 159 -60 228 -59 123 -237 250 -416 295 -69 18
-83 26 -153 89 -160 146 -251 245 -280 308 -71 149 -192 215 -331 180 -30 -8
-62 -17 -71 -21 -18 -8 -58 72 -142 289 -96 246 -117 279 -214 329 -42 21 -71
20 -111 -4z"/>
</g>
</svg>
