<?xml version="1.0" standalone="no"?>
<!DOCTYPE svg PUBLIC "-//W3C//DTD SVG 20010904//EN"
 "http://www.w3.org/TR/2001/REC-SVG-20010904/DTD/svg10.dtd">
<svg version="1.0" xmlns="http://www.w3.org/2000/svg"
 width="1280.000000pt" height="784.000000pt" viewBox="0 0 1280.000000 784.000000"
 preserveAspectRatio="xMidYMid meet">
<metadata>
Created by potrace 1.15, written by Peter Selinger 2001-2017
</metadata>
<g transform="translate(0.000000,784.000000) scale(0.100000,-0.100000)"
fill="#000000" stroke="none">
<path d="M6816 7829 c-311 -33 -628 -142 -900 -311 -102 -63 -302 -214 -471
-354 -338 -280 -873 -866 -1352 -1478 -342 -437 -835 -883 -1378 -1246 -323
-215 -532 -329 -797 -434 -174 -68 -273 -94 -419 -108 -338 -31 -686 65 -973
270 -103 73 -245 216 -319 320 -60 84 -152 252 -182 335 -10 26 -19 46 -21 44
-8 -7 48 -252 76 -333 45 -130 160 -356 234 -459 259 -361 652 -617 1077 -704
323 -66 573 -50 964 63 837 241 1556 610 2215 1136 165 132 197 149 258 135
37 -8 34 -5 634 -547 276 -249 533 -477 572 -506 147 -111 355 -221 525 -279
l83 -28 115 -230 c63 -126 155 -305 205 -397 294 -546 490 -1076 632 -1711 30
-130 54 -214 72 -247 34 -63 125 -150 190 -183 63 -32 93 -38 679 -137 264
-44 638 -108 830 -140 193 -33 508 -86 701 -119 316 -54 358 -63 420 -94 122
-60 180 -72 344 -69 80 2 173 -2 206 -9 74 -13 99 -4 119 45 21 49 37 58 88
51 41 -6 47 -5 62 19 23 34 12 62 -35 86 -22 11 -55 34 -73 50 -44 38 -143 84
-229 107 -64 17 -70 17 -142 -1 l-75 -19 -433 133 c-781 239 -1197 366 -1603
490 -220 67 -417 131 -437 141 -48 24 -103 79 -127 127 -36 72 -124 479 -160
742 -54 389 -75 841 -52 1087 9 84 14 101 71 212 34 67 96 173 138 236 101
150 247 325 272 325 11 0 120 -29 242 -65 243 -71 265 -82 254 -140 -26 -147
-134 -756 -173 -979 -44 -258 -50 -281 -75 -306 -33 -33 -64 -40 -109 -26 -30
10 -36 19 -69 105 -37 99 -57 124 -84 102 -27 -22 -40 -117 -27 -191 24 -134
87 -194 196 -186 33 2 101 6 152 8 66 2 96 7 106 18 8 8 193 290 411 626 l396
611 318 150 317 150 191 284 191 284 106 70 c219 146 405 323 549 523 34 48
67 90 73 94 5 4 76 8 157 8 241 0 442 18 526 46 53 18 94 24 155 24 45 0 118
5 163 11 78 11 82 11 125 -14 63 -36 93 -40 154 -22 80 23 135 97 135 183 0
33 -29 91 -51 103 -11 5 -25 25 -33 43 -14 35 -140 128 -386 288 -126 82 -384
232 -437 254 -18 8 -40 26 -50 42 -10 15 -23 30 -29 35 -7 4 -50 35 -95 68
-45 34 -99 66 -118 71 -20 5 -51 26 -69 45 -32 34 -35 35 -92 31 -37 -3 -66
-11 -78 -21 -29 -26 -49 -20 -68 19 -21 45 -191 199 -347 316 -143 106 -256
163 -363 183 -98 18 -140 30 -232 66 -68 27 -75 28 -106 15 -41 -17 -56 -42
-56 -91 0 -32 8 -44 70 -102 39 -37 86 -92 106 -124 43 -72 120 -142 199 -181
33 -17 154 -82 268 -145 184 -102 206 -117 190 -128 -136 -94 -578 -372 -608
-383 -69 -24 -134 -11 -405 83 -276 95 -378 137 -435 182 -21 15 -88 96 -150
178 -62 83 -158 204 -214 270 -56 66 -123 147 -149 179 -338 429 -723 798
-1072 1029 -350 231 -775 338 -1174 296z"/>
</g>
</svg>
