<?xml version="1.0" standalone="no"?>
<!DOCTYPE svg PUBLIC "-//W3C//DTD SVG 20010904//EN"
 "http://www.w3.org/TR/2001/REC-SVG-20010904/DTD/svg10.dtd">
<svg version="1.0" xmlns="http://www.w3.org/2000/svg"
 width="1244.000000pt" height="1280.000000pt" viewBox="0 0 1244.000000 1280.000000"
 preserveAspectRatio="xMidYMid meet">
<metadata>
Created by potrace 1.15, written by Peter Selinger 2001-2017
</metadata>
<g transform="translate(0.000000,1280.000000) scale(0.100000,-0.100000)"
fill="#000000" stroke="none">
<path d="M6945 12788 c-73 -14 -168 -63 -205 -105 -63 -72 -73 -109 -81 -308
-4 -99 -11 -405 -15 -680 -9 -680 7 -912 77 -1113 93 -263 325 -629 686 -1086
74 -93 144 -189 157 -215 88 -176 106 -407 73 -936 -9 -143 -21 -336 -27 -430
-11 -192 -29 -292 -69 -380 -32 -69 -76 -112 -126 -120 -19 -3 -50 -7 -67 -10
-101 -15 -269 -127 -444 -296 -139 -133 -194 -173 -256 -184 -57 -11 -90 2
-195 72 -125 84 -272 154 -443 210 -160 53 -408 115 -575 143 -611 103 -1695
-37 -2176 -281 -464 -236 -1276 -920 -1779 -1499 -245 -283 -319 -424 -405
-773 -111 -449 -186 -1303 -155 -1763 13 -207 6 -274 -37 -324 -19 -23 -33
-30 -61 -30 -46 0 -75 19 -154 102 -76 79 -129 108 -197 108 -81 0 -91 -9
-145 -133 -129 -293 -145 -431 -75 -669 l19 -66 -109 -109 c-111 -110 -161
-185 -161 -244 0 -37 42 -114 102 -190 73 -92 305 -347 408 -449 239 -238 651
-487 850 -514 25 -4 99 -3 165 2 199 14 470 -9 626 -54 30 -8 115 -44 189 -79
208 -98 414 -159 682 -204 175 -30 247 -36 910 -81 1148 -77 1443 -93 1728
-93 250 -1 282 1 351 21 102 28 179 68 262 137 174 144 171 209 -18 465 -99
133 -155 238 -155 287 0 43 40 86 96 103 21 6 102 15 179 21 220 15 234 19
451 119 254 118 383 162 490 168 109 6 151 -13 230 -104 133 -154 194 -207
303 -263 130 -67 195 -109 446 -287 385 -273 508 -338 705 -375 88 -17 560
-17 720 -1 450 47 670 103 757 194 69 72 79 148 33 246 -53 112 -105 154 -514
409 -434 272 -542 359 -601 485 -89 193 -64 360 74 492 73 69 138 99 285 132
152 34 223 57 311 100 98 48 193 146 253 262 88 169 119 301 132 568 15 303
38 412 125 589 30 61 61 136 70 169 50 199 82 653 55 797 -14 74 -67 177 -146
284 -80 108 -94 138 -94 207 0 69 37 148 98 211 67 69 105 85 224 97 339 34
810 140 961 217 102 51 235 199 432 478 54 77 126 175 158 219 87 114 101 157
101 291 -1 89 -6 125 -26 187 -49 149 -131 265 -239 339 -121 82 -170 156
-268 402 -75 187 -119 268 -218 399 -48 64 -151 217 -227 340 -174 277 -281
429 -354 502 -71 70 -93 85 -212 145 -226 115 -485 188 -712 200 -159 9 -202
23 -224 72 -11 22 -26 206 -54 669 -7 124 -18 203 -44 316 -88 390 -259 907
-447 1349 -125 295 -362 748 -432 823 -62 68 -186 83 -351 42 -116 -29 -154
-45 -194 -83 -62 -60 -82 -153 -100 -474 -9 -165 -22 -203 -66 -203 -56 0
-168 135 -316 383 -106 179 -177 272 -288 379 -151 146 -294 224 -460 253 -94
17 -182 18 -257 3z"/>
</g>
</svg>
