<?xml version="1.0" standalone="no"?>
<!DOCTYPE svg PUBLIC "-//W3C//DTD SVG 20010904//EN"
 "http://www.w3.org/TR/2001/REC-SVG-20010904/DTD/svg10.dtd">
<svg version="1.0" xmlns="http://www.w3.org/2000/svg"
 width="743.000000pt" height="1280.000000pt" viewBox="0 0 743.000000 1280.000000"
 preserveAspectRatio="xMidYMid meet">
<metadata>
Created by potrace 1.15, written by Peter Selinger 2001-2017
</metadata>
<g transform="translate(0.000000,1280.000000) scale(0.100000,-0.100000)"
fill="#000000" stroke="none">
<path d="M2985 12776 c-99 -46 -193 -193 -241 -379 -14 -54 -14 -61 1 -76 25
-25 46 -2 67 72 38 141 116 276 182 316 43 27 107 27 161 1 37 -18 128 -104
192 -182 l22 -27 -57 -11 c-175 -34 -330 -89 -502 -177 -177 -90 -293 -177
-456 -338 -198 -196 -319 -364 -449 -623 -53 -107 -126 -284 -156 -381 l-14
-43 -110 -38 c-557 -189 -877 -475 -971 -866 -21 -86 -24 -300 -5 -404 36
-204 158 -488 307 -711 41 -63 76 -117 77 -121 1 -3 -59 -55 -133 -114 -158
-126 -374 -339 -482 -474 -410 -513 -518 -1006 -322 -1473 78 -187 192 -346
384 -537 l136 -135 -7 -40 c-4 -22 -12 -123 -18 -225 -47 -809 5 -1466 160
-2005 109 -378 250 -662 435 -880 l69 -80 -3 -140 c-2 -77 2 -250 8 -385 25
-577 93 -963 214 -1225 l35 -75 -75 -131 c-41 -72 -74 -137 -74 -146 0 -28 61
-131 106 -178 47 -48 131 -95 173 -95 14 0 32 -7 42 -16 20 -18 176 -43 464
-73 704 -76 1132 -44 1269 95 36 37 46 64 52 139 2 33 9 119 15 190 26 327 21
992 -8 1178 l-6 37 200 0 199 0 17 -147 c54 -458 130 -822 187 -902 17 -25 18
-39 10 -223 l-9 -195 -31 -45 c-40 -57 -48 -112 -24 -164 26 -56 237 -262 304
-298 l54 -30 466 13 c415 10 689 27 775 46 72 16 275 89 325 117 242 135 404
376 470 700 56 273 43 908 -31 1468 -11 85 -22 164 -24 175 -2 11 -16 86 -30
168 l-27 147 62 68 c202 219 402 513 525 767 l53 110 58 24 c207 83 383 222
419 330 23 70 16 144 -21 212 -34 62 -135 157 -208 195 l-54 28 -4 81 c-3 53
0 93 9 120 47 132 48 142 48 395 0 233 -5 297 -41 590 -30 246 -140 888 -184
1074 -5 22 -6 44 -4 48 10 17 -27 230 -70 400 -96 377 -303 1035 -434 1379
-53 138 -64 225 -63 494 2 769 -123 1413 -388 1993 -96 210 -238 446 -356 593
l-45 56 24 102 c56 232 55 391 -3 483 -83 131 -281 106 -547 -67 l-86 -56
-147 54 c-482 179 -921 249 -1343 214 -94 -8 -96 -8 -91 12 4 15 -10 40 -50
89 -67 81 -119 124 -189 157 -66 31 -119 31 -183 1z m1105 -341 c375 -58 747
-179 975 -315 275 -165 394 -262 521 -421 425 -534 696 -1365 731 -2235 l6
-165 -34 -36 c-58 -60 -287 -251 -433 -360 -536 -401 -1126 -688 -1659 -807
-182 -41 -375 -65 -572 -72 l-180 -6 -95 36 c-280 109 -556 163 -873 173
l-197 6 -20 32 c-11 18 -53 64 -93 101 -210 200 -494 304 -832 304 l-121 0
-59 76 c-396 503 -541 993 -404 1368 114 313 427 559 919 723 58 19 109 39
114 43 4 5 28 65 51 135 40 118 65 170 65 135 0 -7 7 -21 16 -31 15 -17 13
-21 -24 -56 -33 -32 -42 -50 -56 -110 -39 -173 -6 -232 159 -289 69 -24 96
-28 195 -28 164 -1 290 41 358 118 40 45 66 132 57 187 -8 45 -46 96 -83 110
l-26 10 31 18 c43 27 70 66 78 111 8 50 3 58 -35 52 -26 -4 -30 -9 -30 -34 0
-17 -9 -38 -23 -52 -31 -31 -139 -39 -362 -26 -156 8 -171 11 -187 31 -10 12
-18 27 -18 34 0 8 -9 15 -19 17 -19 3 -17 9 18 83 106 224 266 451 440 626
299 298 632 463 1057 524 131 19 498 13 644 -10z m1455 -78 c46 -46 59 -100
51 -222 -5 -94 -35 -258 -49 -271 -4 -4 -34 19 -68 50 -56 52 -251 187 -379
262 l-53 31 59 40 c129 88 262 142 353 142 47 1 57 -3 86 -32z m774 -3299 l-2
-133 -8 105 c-5 58 -10 108 -12 113 -1 4 -54 -36 -117 -89 -759 -635 -1640
-1045 -2368 -1100 -51 -3 -94 -10 -97 -14 -7 -11 44 -53 133 -110 46 -29 81
-54 79 -57 -2 -2 -38 16 -79 41 -41 24 -117 66 -169 92 l-94 49 125 6 c693 36
1455 345 2185 889 133 98 354 280 389 319 11 11 23 21 28 21 4 0 7 -60 7 -132z
m62 -410 c38 -71 249 -713 353 -1073 108 -376 158 -601 154 -697 l-3 -58 -150
-111 c-961 -711 -1924 -1093 -3045 -1206 -243 -24 -784 -24 -1030 1 -588 58
-1131 185 -1625 381 -185 74 -324 138 -280 130 166 -29 375 -33 530 -10 55 8
116 17 135 20 l35 5 -30 -10 c-62 -21 -225 -42 -370 -49 l-150 -7 70 -33 c219
-103 759 -255 1210 -340 356 -68 505 -81 895 -81 553 0 890 32 1313 126 600
133 1179 365 1742 698 195 115 587 380 652 440 82 75 89 97 74 199 -32 209
-160 661 -362 1277 -66 201 -124 377 -129 393 -11 32 -5 35 11 5z m-4804 -64
c229 -39 447 -152 584 -302 l52 -57 -39 -7 c-42 -7 -132 -9 -99 -1 46 10 75
26 75 43 0 38 -119 125 -286 208 -167 84 -249 101 -552 118 l-123 6 -97 -63
c-281 -183 -451 -346 -491 -471 -18 -54 -1 -96 59 -152 54 -51 94 -60 123 -28
9 10 28 52 41 93 22 68 61 149 72 149 2 0 -7 -22 -20 -48 -33 -65 -59 -169
-53 -209 5 -31 4 -33 -26 -33 -84 0 -164 52 -207 133 -21 40 -23 49 -12 84 32
108 175 268 350 391 151 107 239 156 297 163 67 9 251 0 352 -17z m-507 -292
c-19 -15 -62 -52 -95 -82 l-60 -54 50 53 c48 51 121 112 134 111 3 -1 -10 -13
-29 -28z m80 7 c17 -30 6 -34 -14 -4 -9 14 -12 25 -7 25 6 0 15 -9 21 -21z
m-613 -89 c-164 -177 -335 -486 -413 -745 -35 -120 -45 -326 -20 -458 48 -255
180 -481 426 -728 164 -166 208 -188 415 -205 228 -18 645 75 893 200 220 111
362 223 892 705 489 445 738 643 924 736 l109 55 -139 66 c-326 155 -530 223
-821 276 -110 20 -161 23 -368 23 -180 0 -267 -4 -350 -18 -227 -36 -431 -99
-524 -161 l-48 -33 10 27 c18 47 247 130 487 177 172 34 525 43 710 19 248
-33 489 -100 736 -206 127 -54 344 -168 344 -180 0 -4 -14 -10 -32 -14 -17 -3
-63 -22 -102 -40 -201 -97 -490 -333 -1089 -889 -307 -285 -371 -338 -521
-438 -419 -279 -891 -385 -1308 -293 -74 16 -82 21 -160 91 -244 220 -415 475
-483 723 -21 76 -28 125 -32 245 -6 165 6 258 54 409 33 107 118 285 148 313
13 12 37 49 54 81 52 96 230 322 255 322 5 0 -17 -27 -47 -60z m24 -44 c-25
-46 -47 -83 -49 -81 -8 7 81 165 93 165 2 0 -18 -38 -44 -84z m496 2 c-86 -87
-131 -161 -143 -236 -9 -58 9 -65 133 -51 137 15 300 47 350 69 32 14 44 26
52 52 l9 33 1 -37 c1 -33 -3 -38 -41 -57 -80 -38 -250 -71 -449 -86 l-86 -7 9
58 c17 113 90 234 182 304 28 22 54 40 58 40 4 0 -30 -37 -75 -82z m943 26
c-89 -21 -143 -25 -65 -4 39 10 81 18 95 18 14 0 0 -6 -30 -14z m-490 -24 c0
-5 -7 -7 -15 -4 -8 4 -15 8 -15 10 0 2 7 4 15 4 8 0 15 -4 15 -10z m240 -39
c-63 -22 -137 -48 -163 -60 -27 -12 -53 -21 -58 -21 -5 0 -9 24 -8 53 1 50 1
51 10 19 6 -18 16 -35 23 -38 7 -3 37 5 67 16 64 26 208 69 229 69 8 0 -37
-17 -100 -38z m-1216 -205 c36 -61 119 -133 169 -147 38 -10 83 -9 227 6 30 3
100 10 155 16 124 13 263 41 335 68 36 13 48 15 36 6 -56 -42 -225 -77 -527
-110 -162 -17 -213 -12 -284 30 -54 32 -111 92 -130 138 -21 50 -13 47 19 -7z
m3389 -246 c5 -4 -20 -9 -55 -12 -84 -7 -198 -53 -300 -121 -179 -119 -520
-406 -876 -738 -111 -104 -207 -189 -213 -189 -19 0 4 22 256 254 620 570 900
782 1076 815 45 8 98 4 112 -9z m1932 -3 c-14 -22 -13 -26 11 -58 24 -32 25
-40 21 -119 -17 -316 -334 -869 -717 -1250 -297 -296 -588 -466 -935 -546
-100 -24 -382 -26 -490 -5 -377 73 -746 312 -1091 704 -64 73 -120 141 -126
152 -6 11 106 -95 248 -236 143 -141 291 -279 329 -308 89 -67 371 -208 500
-249 254 -83 519 -81 773 4 182 60 432 204 619 355 364 294 762 884 853 1263
24 97 24 147 4 201 -27 70 -28 87 -9 102 26 18 28 17 10 -10z m50 -454 c-48
-143 -136 -320 -235 -471 -80 -122 -196 -282 -206 -282 -2 0 13 24 34 53 186
251 349 553 418 772 10 31 20 52 22 47 2 -6 -13 -59 -33 -119z m1008 -495 c16
-64 71 -372 106 -588 75 -458 103 -732 103 -995 0 -197 -16 -308 -52 -357 -11
-15 -20 -35 -20 -44 0 -56 -375 -450 -580 -608 -615 -476 -1333 -750 -2180
-830 -984 -94 -2142 106 -3341 575 l-176 69 -32 163 c-36 181 -63 381 -83 597
-23 257 -11 1230 15 1257 2 2 46 -17 98 -41 474 -224 1158 -409 1759 -475 329
-37 812 -44 1125 -16 603 53 1169 190 1730 421 179 74 569 269 750 374 179
105 475 302 635 424 69 52 128 95 131 95 4 1 9 -9 12 -21z m-4448 -201 c22
-29 80 -99 129 -157 l89 -105 -140 138 -140 138 -104 -84 c-57 -47 -142 -110
-189 -141 -81 -55 -372 -206 -394 -206 -6 0 45 28 114 63 200 100 392 229 530
356 30 27 57 50 60 50 3 0 23 -23 45 -52z m2995 -71 c0 -2 -8 -10 -17 -17 -16
-13 -17 -12 -4 4 13 16 21 21 21 13z m-3770 -356 c-8 -5 -19 -10 -25 -10 -5 0
-3 5 5 10 8 5 20 10 25 10 6 0 3 -5 -5 -10z m1460 -223 c182 -118 376 -199
581 -243 106 -22 109 -23 44 -18 -243 21 -594 189 -826 397 -45 40 -40 37 31
-16 47 -36 123 -89 170 -120z m-1623 167 c-3 -3 -12 -4 -19 -1 -8 3 -5 6 6 6
11 1 17 -2 13 -5z m-40 -10 c-3 -3 -12 -4 -19 -1 -8 3 -5 6 6 6 11 1 17 -2 13
-5z m3493 -55 c-73 -62 -260 -180 -363 -229 -141 -66 -295 -117 -396 -131
-118 -16 -122 -5 -6 16 224 39 442 134 660 284 72 49 132 90 135 90 3 0 -11
-13 -30 -30z m2083 -1426 c-30 -560 -345 -1200 -832 -1693 -125 -126 -122
-119 21 45 346 400 529 696 675 1095 53 145 123 466 123 563 0 8 -89 -74 -197
-182 -215 -214 -378 -350 -579 -483 -595 -395 -1238 -607 -2049 -679 -176 -15
-673 -16 -865 0 -506 41 -1008 132 -1513 277 -238 68 -779 245 -941 307 l-69
27 7 -42 c18 -114 148 -429 242 -587 27 -46 86 -129 130 -185 393 -491 1034
-789 1924 -895 200 -24 404 -41 519 -42 67 -1 79 -3 56 -10 -17 -5 -109 -5
-222 1 -830 42 -1495 246 -1950 599 -115 90 -329 299 -387 380 -112 154 -230
401 -304 631 -22 69 -43 139 -46 156 l-7 32 153 -59 c763 -295 1547 -491 2258
-565 211 -21 754 -30 962 -15 808 59 1515 291 2113 691 277 186 586 465 742
672 15 21 31 37 34 38 3 0 4 -35 2 -77z m135 -103 c109 -73 162 -152 162 -243
0 -68 -38 -130 -122 -197 -57 -46 -196 -126 -204 -118 -2 3 20 17 48 33 82 43
195 131 228 177 26 35 30 50 30 102 0 82 -38 149 -121 214 -34 26 -64 48 -69
50 -4 2 -14 -29 -21 -68 -7 -38 -14 -68 -16 -66 -7 7 10 156 17 156 4 0 35
-18 68 -40z m-179 -503 c-13 -42 -29 -79 -36 -81 -9 -4 -7 8 6 42 10 26 24 64
31 85 22 70 21 31 -1 -46z m-5467 -1368 c283 -210 682 -376 1133 -474 165 -35
461 -78 622 -91 108 -8 97 10 112 -184 26 -327 23 -619 -11 -1120 l-11 -175
-38 -36 c-40 -39 -113 -68 -224 -90 -89 -17 -502 -23 -688 -10 -186 14 -396
35 -547 57 -135 19 -152 23 -145 34 3 5 -1 43 -10 84 -8 41 -15 81 -15 88 0 7
20 40 45 73 47 62 53 83 33 103 -7 7 -8 12 -2 12 17 0 34 -23 34 -45 0 -11
-13 -36 -29 -55 -38 -47 -54 -102 -49 -161 6 -61 25 -82 91 -103 147 -45 583
-67 1074 -54 377 10 416 25 449 175 35 163 40 1247 6 1334 -15 38 -74 55 -277
79 -656 79 -1159 258 -1595 570 -110 78 -156 104 -172 94 -24 -15 33 -833 78
-1099 22 -133 79 -333 135 -476 l50 -125 -55 -93 c-81 -138 -91 -205 -38 -265
34 -38 114 -96 134 -96 18 0 19 5 13 79 -9 92 3 126 65 186 53 51 50 41 -6
-31 l-46 -59 6 -75 c3 -41 8 -85 12 -98 5 -17 2 -22 -11 -22 -40 0 -99 26
-139 62 -42 37 -106 124 -106 145 0 6 34 70 75 143 41 73 75 137 75 142 0 4
-16 41 -36 80 -134 267 -208 729 -221 1382 l-6 309 76 -66 c43 -37 114 -94
159 -128z m4726 -11 c72 -439 95 -722 96 -1173 1 -391 -6 -464 -61 -640 -89
-287 -299 -513 -538 -580 -33 -10 -72 -24 -88 -32 -57 -29 -319 -54 -709 -69
l-177 -6 23 58 c35 86 48 159 44 244 -3 74 -3 75 -33 81 -25 5 -27 7 -12 14
13 5 25 1 40 -14 19 -19 22 -32 21 -104 0 -49 -9 -115 -22 -164 -12 -45 -22
-85 -22 -88 0 -15 407 5 600 30 477 61 705 226 838 605 65 187 67 204 67 660
-1 237 -6 479 -13 565 -29 353 -54 558 -83 693 -12 59 -24 64 -76 32 -18 -11
-33 -17 -33 -14 0 7 93 93 101 94 3 0 20 -87 37 -192z m-198 77 c11 -13 10
-14 -4 -9 -9 3 -16 10 -16 15 0 13 6 11 20 -6z m-2125 -285 c3 -5 1 -45 -5
-88 -30 -223 89 -1030 185 -1246 14 -32 24 -60 22 -62 -12 -12 -49 46 -67 104
-85 275 -179 974 -159 1192 5 55 4 89 -3 97 -8 10 -6 13 5 13 9 0 19 -4 22
-10z m-93 -162 c-2 -79 -8 -128 -14 -128 -7 0 -8 38 -4 116 7 101 14 152 20
142 1 -2 0 -60 -2 -130z m305 -1411 c-3 -90 -11 -174 -16 -187 -7 -18 -9 28
-5 150 6 178 8 200 20 200 4 0 4 -73 1 -163z m-54 -353 c-26 -77 6 -135 84
-150 40 -8 47 7 61 116 l9 75 2 -91 c1 -102 -1 -106 -68 -124 -43 -11 -44 -11
-75 26 -69 82 -75 120 -25 173 28 30 30 27 12 -25z m233 -102 c-13 -13 -16 9
-9 59 l8 54 3 -54 c2 -29 1 -56 -2 -59z m464 17 c0 -45 -32 -169 -60 -231
l-21 -48 -180 0 c-201 0 -185 -4 -286 79 -44 36 -53 51 -30 51 7 0 30 9 52 21
l40 21 -29 -30 c-16 -17 -26 -37 -23 -45 3 -8 31 -27 63 -43 52 -25 69 -28
193 -32 82 -2 147 0 163 7 48 18 98 153 98 262 0 39 3 50 10 39 5 -8 10 -31
10 -51z"/>
<path d="M3030 11188 c-32 -52 -16 -95 50 -128 34 -17 64 -26 153 -45 l28 -6
-25 -32 c-39 -51 -58 -130 -63 -267 -6 -134 7 -211 48 -297 57 -118 185 -204
334 -224 139 -19 313 25 421 107 50 38 143 167 171 236 82 202 34 412 -107
467 -36 13 -14 18 113 26 119 8 146 20 126 57 -9 17 -17 19 -62 14 -143 -16
-408 -28 -627 -29 -291 0 -437 17 -494 59 -17 12 -18 17 -6 38 30 57 -26 79
-60 24z"/>
<path d="M1661 10599 c-49 -9 -101 -52 -101 -81 0 -86 156 -161 335 -162 134
-1 213 33 235 99 27 82 -32 117 -230 135 -69 6 -141 13 -160 15 -19 2 -55 -1
-79 -6z"/>
<path d="M1980 9711 c-94 -30 -150 -68 -150 -102 0 -24 37 -34 58 -16 34 29
102 57 169 68 85 13 186 -5 282 -52 57 -28 65 -30 78 -16 24 24 9 43 -56 77
-122 61 -269 77 -381 41z"/>
<path d="M5350 12354 c-81 -28 -230 -105 -251 -130 -17 -20 -12 -24 166 -140
72 -47 162 -112 202 -145 l72 -59 11 39 c21 80 30 147 30 233 0 115 -14 171
-52 203 -38 32 -81 32 -178 -1z"/>
<path d="M3014 12700 c-34 -14 -91 -87 -133 -174 -40 -83 -67 -164 -57 -174 3
-3 59 16 123 41 108 42 233 81 341 108 l43 10 -27 37 c-96 130 -204 187 -290
152z"/>
</g>
</svg>
