<?xml version="1.0" standalone="no"?>
<!DOCTYPE svg PUBLIC "-//W3C//DTD SVG 20010904//EN"
 "http://www.w3.org/TR/2001/REC-SVG-20010904/DTD/svg10.dtd">
<svg version="1.0" xmlns="http://www.w3.org/2000/svg"
 width="1224.000000pt" height="1280.000000pt" viewBox="0 0 1224.000000 1280.000000"
 preserveAspectRatio="xMidYMid meet">
<metadata>
Created by potrace 1.15, written by Peter Selinger 2001-2017
</metadata>
<g transform="translate(0.000000,1280.000000) scale(0.100000,-0.100000)"
fill="#000000" stroke="none">
<path d="M5135 12790 c-300 -47 -667 -260 -886 -514 -138 -158 -214 -299 -268
-491 -53 -190 -56 -225 -28 -335 26 -100 96 -277 195 -495 33 -71 62 -140 65
-153 5 -19 -13 -36 -127 -121 -740 -553 -1185 -1139 -1461 -1926 -104 -296
-154 -603 -189 -1160 -45 -706 -71 -2017 -45 -2225 5 -47 28 -136 49 -198 64
-186 84 -327 58 -414 -20 -67 -49 -64 -170 18 -204 138 -466 390 -619 594
-174 231 -400 593 -514 820 -143 286 -281 724 -335 1060 -41 254 -45 327 -44
730 0 527 0 528 120 892 159 481 215 608 377 857 197 300 421 577 615 760 129
121 157 158 150 203 -5 36 -71 55 -132 38 -169 -47 -727 -527 -1010 -868 -173
-210 -400 -583 -540 -889 -117 -257 -182 -470 -292 -950 -91 -399 -98 -458
-98 -813 0 -445 42 -823 148 -1330 53 -253 79 -562 91 -1065 7 -295 21 -527
37 -610 6 -33 29 -97 50 -142 28 -60 41 -104 49 -165 5 -46 17 -110 26 -143
16 -59 235 -596 327 -805 166 -373 366 -681 581 -895 127 -127 225 -198 368
-265 331 -156 792 -206 1151 -125 162 37 241 70 303 130 70 68 88 128 80 275
-6 120 -33 233 -139 600 -133 457 -131 451 -132 590 -1 149 13 190 65 190 24
0 44 -13 94 -63 72 -72 98 -118 119 -209 22 -96 77 -227 246 -588 325 -693
470 -964 713 -1330 226 -340 391 -509 742 -762 188 -135 298 -198 393 -222 35
-9 92 -31 125 -50 81 -45 171 -72 342 -101 176 -31 261 -55 312 -89 77 -51
235 -44 533 24 535 121 739 239 740 427 0 118 -51 299 -124 435 -47 89 -98
225 -170 458 -157 512 -191 727 -191 1235 0 273 3 333 18 405 44 205 109 348
187 413 118 100 318 150 925 232 424 58 557 84 1030 201 514 128 854 258 1259
483 547 303 941 623 1266 1031 218 272 368 610 575 1290 73 240 101 516 92
910 -7 329 -20 384 -147 645 -127 259 -304 512 -512 730 -284 298 -631 510
-805 492 -237 -25 -663 -297 -748 -479 -54 -115 -27 -294 125 -833 254 -903
328 -1693 186 -1980 -111 -224 -554 -626 -838 -760 -40 -19 -109 -41 -153 -50
-55 -10 -97 -26 -137 -50 -60 -37 -86 -44 -323 -80 -60 -9 -146 -25 -191 -35
-44 -11 -139 -26 -210 -35 -215 -27 -321 -63 -431 -147 l-51 -39 -61 30 c-180
91 -509 145 -856 139 -107 -2 -191 0 -187 3 29 23 260 152 312 174 36 15 104
33 152 41 97 14 152 38 201 88 86 86 90 193 10 267 -169 158 -958 266 -1247
172 -53 -17 -128 -79 -152 -124 -8 -16 -14 -45 -14 -66 0 -32 8 -44 58 -93 37
-36 91 -73 152 -104 231 -120 336 -196 411 -298 56 -78 66 -68 -86 -88 -135
-18 -306 -64 -392 -105 -83 -40 -168 -116 -179 -159 -6 -26 -34 -37 -34 -13 0
7 -30 74 -68 148 -201 401 -486 626 -905 715 -79 16 -248 99 -409 201 -414
261 -666 534 -863 938 -137 279 -203 494 -242 780 -25 189 -25 781 0 980 24
187 70 412 108 532 119 374 385 921 588 1212 95 136 206 221 290 221 26 0 41
-8 70 -39 58 -63 101 -73 206 -46 89 23 191 76 314 165 242 174 379 261 736
465 349 200 360 208 380 258 27 68 23 235 -10 381 -73 323 -214 597 -405 786
-118 117 -224 182 -382 235 -124 41 -247 53 -363 35z m2139 -7800 c264 -15
495 -62 610 -122 l27 -14 -69 -66 c-38 -36 -96 -78 -128 -94 -52 -26 -70 -29
-149 -29 -108 1 -188 23 -470 130 -104 40 -217 81 -250 91 -94 28 -195 22
-377 -20 -86 -20 -162 -36 -170 -36 -7 1 18 17 55 36 123 63 342 109 587 123
74 5 142 9 150 9 8 1 91 -3 184 -8z m-928 -444 c82 -33 233 -70 379 -93 95
-14 178 -18 403 -18 155 0 282 -4 282 -9 0 -18 -67 -91 -121 -131 -96 -71
-149 -80 -449 -80 -181 0 -270 4 -307 13 -74 19 -162 79 -257 175 -74 75 -83
88 -98 147 -24 89 -13 100 55 55 29 -19 79 -46 113 -59z m289 70 c61 -13 103
-24 93 -25 -21 -1 -209 36 -216 44 -8 8 4 6 123 -19z"/>
<path d="M9920 12095 c-258 -48 -340 -128 -359 -348 -8 -94 1 -270 26 -471 21
-178 23 -374 4 -439 -28 -97 -102 -137 -214 -117 -90 17 -165 49 -420 183
-125 65 -230 117 -233 114 -3 -2 156 -102 353 -220 197 -119 396 -242 443
-275 155 -109 342 -274 552 -485 l208 -209 122 12 c189 17 294 38 351 66 146
74 426 414 558 677 135 267 131 404 -16 713 -164 346 -458 650 -724 751 -150
56 -479 81 -651 48z"/>
<path d="M5662 8624 c-214 -47 -440 -193 -607 -394 -215 -258 -314 -534 -302
-845 13 -334 150 -582 389 -700 212 -104 390 -80 607 82 117 88 227 199 316
318 45 61 143 184 218 275 75 91 149 188 164 215 27 47 28 56 27 170 -3 209
-59 452 -135 582 -48 81 -180 212 -255 251 -115 60 -278 78 -422 46z"/>
<path d="M8536 8259 c-21 -5 -71 -26 -110 -46 -172 -90 -401 -400 -446 -605
-16 -69 -8 -230 14 -311 55 -202 298 -729 418 -909 85 -126 197 -217 320 -259
82 -28 173 -21 290 21 206 75 362 206 441 371 73 153 96 278 97 523 0 269 -38
456 -134 651 -64 129 -126 215 -224 307 -212 199 -476 301 -666 257z m238
-523 c98 -41 138 -208 79 -327 -22 -43 -37 -59 -73 -76 -38 -19 -51 -21 -82
-13 -72 20 -122 107 -122 210 0 97 42 177 109 206 39 17 49 17 89 0z"/>
<path d="M11326 5073 c-6 -6 165 -53 189 -52 10 1 -164 59 -176 59 -3 0 -9 -3
-13 -7z"/>
</g>
</svg>
