<?xml version="1.0" standalone="no"?>
<!DOCTYPE svg PUBLIC "-//W3C//DTD SVG 20010904//EN"
 "http://www.w3.org/TR/2001/REC-SVG-20010904/DTD/svg10.dtd">
<svg version="1.0" xmlns="http://www.w3.org/2000/svg"
 width="1058.000000pt" height="1280.000000pt" viewBox="0 0 1058.000000 1280.000000"
 preserveAspectRatio="xMidYMid meet">
<metadata>
Created by potrace 1.15, written by Peter Selinger 2001-2017
</metadata>
<g transform="translate(0.000000,1280.000000) scale(0.100000,-0.100000)"
fill="#000000" stroke="none">
<path d="M1543 12779 c-56 -18 -68 -26 -116 -87 -86 -108 -132 -182 -156 -252
-11 -36 -39 -105 -60 -155 -38 -88 -40 -90 -72 -90 -32 0 -36 4 -71 75 -42 83
-45 107 -28 254 10 80 9 90 -7 102 -24 18 -23 18 -77 -17 -87 -58 -126 -177
-126 -390 0 -107 -3 -139 -15 -149 -36 -30 -69 17 -95 133 -7 34 -7 66 1 110
27 149 25 156 -39 136 -36 -10 -41 -16 -75 -98 -51 -124 -61 -182 -52 -333 6
-115 5 -129 -10 -134 -21 -9 -67 17 -119 65 -44 42 -66 86 -66 135 0 24 -6 38
-19 45 -16 9 -23 4 -44 -28 -60 -90 -78 -281 -36 -377 20 -44 21 -59 16 -169
-4 -66 -11 -147 -17 -180 -20 -117 29 -306 97 -377 30 -32 31 -29 -22 -56 -43
-23 -183 -142 -213 -182 -23 -32 -112 -268 -115 -306 -2 -28 0 -29 41 -28 35
1 48 7 70 31 31 35 31 35 342 82 208 32 344 41 361 24 17 -17 -7 -85 -61 -167
-74 -114 -104 -179 -138 -301 -53 -187 -75 -364 -69 -546 5 -139 9 -162 33
-222 36 -89 74 -132 146 -168 50 -25 70 -30 114 -27 l54 3 0 -111 c0 -137 -15
-254 -45 -359 -26 -91 -118 -308 -225 -530 -86 -180 -147 -343 -160 -434 -6
-36 -12 -246 -14 -466 l-3 -400 68 -385 67 -385 121 -258 c95 -203 154 -313
276 -511 l155 -251 208 -207 c180 -180 240 -232 457 -397 l250 -190 140 -47
c77 -25 145 -51 152 -58 6 -6 61 -134 123 -285 l111 -273 187 -207 c116 -129
235 -274 313 -382 120 -166 129 -181 185 -326 l59 -152 82 -22 83 -22 0 -176
c0 -111 -9 -272 -25 -436 -23 -245 -71 -644 -78 -651 -1 -1 -65 -14 -142 -28
-196 -36 -240 -50 -288 -89 -23 -18 -68 -50 -99 -70 -39 -24 -64 -49 -78 -77
-11 -22 -22 -40 -23 -40 -2 0 -30 11 -63 24 -78 31 -159 41 -204 24 -53 -19
-173 -154 -189 -211 -12 -41 -16 -45 -49 -51 -21 -3 -52 -6 -71 -6 -50 0 -153
-29 -176 -50 -11 -10 -38 -27 -61 -38 -50 -25 -154 -136 -154 -164 0 -15 4
-18 18 -13 54 23 105 27 141 11 59 -26 161 -46 236 -46 66 0 369 22 480 36
l50 6 0 -89 c0 -81 42 -314 60 -332 12 -12 33 30 39 81 10 71 30 116 74 162
55 56 100 82 241 136 254 97 432 210 462 293 16 44 43 57 120 57 44 0 73 -7
109 -25 33 -17 66 -25 100 -25 28 0 83 -9 122 -20 39 -11 73 -18 76 -16 8 9
-19 74 -39 92 -12 11 -27 31 -35 46 -13 26 -13 27 29 42 23 8 106 34 185 56
156 44 186 56 219 92 32 34 63 114 63 163 l0 44 82 -82 c105 -104 234 -181
321 -191 68 -7 122 -28 154 -58 13 -12 25 -20 26 -17 6 7 -14 151 -27 194 -18
57 -137 155 -274 225 -170 86 -195 103 -221 157 -15 30 -26 74 -29 116 l-5 67
52 0 c80 0 171 51 171 96 0 28 -48 63 -132 95 -40 15 -66 33 -85 58 -28 36
-28 37 -27 181 1 80 11 269 24 420 23 292 23 421 -3 483 -16 36 -15 48 19 250
19 117 37 224 40 239 5 23 29 37 217 123 117 54 280 135 363 181 l150 84 44
150 c24 83 47 153 51 155 4 3 35 -27 70 -66 l63 -71 118 242 117 242 28 -20
c15 -11 64 -47 108 -80 54 -41 82 -57 87 -49 4 7 8 50 9 97 1 47 4 98 8 113
l6 28 93 -80 c51 -45 96 -81 101 -81 4 0 27 48 51 106 l43 105 72 -77 72 -78
18 114 c10 63 21 119 26 124 4 5 39 -9 79 -33 39 -24 74 -40 78 -37 3 4 9 36
14 73 4 36 10 68 12 71 3 2 46 -12 96 -32 49 -20 93 -36 98 -36 4 0 36 36 72
80 36 43 68 79 73 79 4 1 7 -55 7 -123 l0 -124 30 -10 c22 -8 39 -7 70 5 34
14 46 27 80 90 33 61 40 85 40 129 0 30 2 54 5 54 3 0 51 -29 108 -65 56 -35
104 -61 108 -57 3 4 21 54 38 110 l33 104 24 -23 c24 -22 24 -22 39 -3 68 88
141 343 190 664 l36 235 46 40 c25 22 73 57 107 77 l61 38 3 -47 c2 -26 -4
-111 -12 -190 -20 -184 -20 -277 0 -339 9 -27 18 -51 20 -53 2 -2 17 2 33 9
26 10 37 29 86 152 55 138 57 145 85 367 17 124 30 231 30 237 0 11 187 150
215 161 12 4 13 10 -15 -245 -28 -253 -29 -242 19 -242 36 0 43 5 91 66 42 51
66 99 117 227 63 159 65 166 92 367 20 150 33 216 49 247 12 23 36 108 53 189
l31 148 -21 72 c-27 91 -27 90 8 167 16 36 55 134 86 218 l56 152 -47 139 -46
138 31 53 c17 28 45 78 63 109 18 32 35 58 38 58 15 0 33 -83 56 -255 23 -178
25 -207 18 -460 -6 -267 -7 -272 -49 -480 -24 -115 -52 -246 -64 -290 -24 -94
-16 -125 36 -136 29 -6 37 -1 106 70 74 75 75 78 156 271 57 138 94 245 125
365 42 159 45 183 56 380 7 127 16 216 23 226 7 9 68 99 136 200 l125 184 48
240 48 239 0 271 c-1 161 -6 309 -14 368 -7 53 -10 97 -7 97 3 -1 23 -26 44
-56 52 -77 128 -340 168 -584 l31 -185 -12 -210 c-11 -203 -13 -216 -61 -395
-43 -160 -59 -201 -115 -304 -87 -162 -86 -206 5 -206 38 0 62 10 133 53 74
46 98 68 170 158 71 88 95 128 156 262 l73 159 19 191 c15 145 20 263 20 487
l-1 295 -38 170 c-32 142 -52 205 -125 380 -48 116 -120 269 -162 342 -69 122
-88 146 -252 319 -155 165 -201 206 -377 340 l-200 152 -195 80 -195 81 -210
31 c-115 16 -237 35 -271 40 -83 14 -146 13 -384 -6 -184 -14 -228 -21 -435
-71 l-230 -56 -181 -108 c-146 -87 -214 -136 -345 -248 -237 -201 -465 -455
-668 -745 l-154 -221 -212 -480 c-161 -365 -225 -521 -265 -650 -29 -93 -66
-199 -82 -235 -16 -36 -70 -173 -119 -304 -50 -131 -110 -278 -134 -325 -54
-106 -96 -138 -235 -175 -153 -42 -387 -35 -664 18 -127 25 -286 126 -454 290
-68 67 -87 93 -111 151 -17 39 -80 176 -142 305 -133 279 -264 627 -389 1031
-145 471 -242 725 -350 919 -223 399 -368 545 -825 831 -207 130 -284 171
-437 234 -82 34 -151 64 -154 67 -3 3 93 8 213 11 215 5 220 6 370 45 137 36
164 47 260 106 123 73 215 166 296 297 56 89 97 237 97 346 0 83 -47 234 -95
305 l-32 48 -11 -25 c-7 -14 -12 -39 -12 -55 0 -79 -66 -159 -233 -278 -67
-48 -95 -62 -156 -76 -40 -9 -91 -16 -112 -16 -58 0 -63 17 -56 198 6 146 7
155 36 205 46 80 78 108 179 161 89 45 93 49 87 74 -4 15 -9 29 -12 32 -10 10
-213 2 -265 -10 -62 -15 -210 -86 -286 -138 -30 -20 -71 -61 -92 -91 -48 -68
-148 -171 -166 -171 -21 0 -40 47 -58 145 -16 83 -16 95 -1 158 18 79 74 171
118 193 19 10 27 21 23 30 -3 9 -6 22 -6 30 0 20 -52 17 -127 -7z m6747 -2834
c0 -10 -42 -89 -62 -117 l-19 -27 -62 24 c-137 52 -138 43 3 85 136 42 140 42
140 35z m677 -111 c115 -59 138 -76 226 -162 65 -65 129 -143 192 -234 l94
-136 31 -181 30 -181 -20 -167 c-11 -93 -23 -194 -27 -225 -3 -32 -9 -58 -13
-58 -4 0 -40 84 -80 188 l-73 187 -175 229 -175 229 11 101 c14 117 7 212 -20
276 -12 28 -46 71 -89 111 -115 111 -93 116 88 23z m-4866 -6841 c30 -37 63
-77 75 -88 16 -15 27 -54 47 -160 23 -124 28 -181 37 -490 5 -192 17 -458 26
-590 18 -275 15 -296 -44 -343 -87 -69 -187 -90 -436 -93 l-160 -2 3 54 c4 82
11 89 83 89 43 0 67 5 80 17 35 31 17 87 -32 98 -36 8 -100 86 -100 121 0 13
22 135 49 271 27 137 64 331 82 433 18 102 37 190 43 195 7 6 49 53 94 106
l82 97 0 69 c0 68 11 283 15 283 1 0 26 -30 56 -67z m-247 -2043 c-24 -36 -31
-40 -67 -40 -44 0 -127 27 -139 44 -21 31 -7 35 112 35 l120 1 -26 -40z m-499
-7 c-13 -53 -44 -91 -90 -109 -40 -15 -57 -15 -162 -4 -115 11 -229 35 -247
51 -16 14 44 22 74 9 39 -16 92 -6 143 28 38 26 139 46 256 51 31 1 33 0 26
-26z m-890 -218 c33 -8 98 -15 145 -16 47 0 96 -4 110 -9 23 -7 22 -8 -14 -15
-40 -8 -258 0 -316 11 -29 6 -30 8 -14 25 20 22 14 22 89 4z"/>
</g>
</svg>
