<?xml version="1.0" standalone="no"?>
<!DOCTYPE svg PUBLIC "-//W3C//DTD SVG 20010904//EN"
 "http://www.w3.org/TR/2001/REC-SVG-20010904/DTD/svg10.dtd">
<svg version="1.0" xmlns="http://www.w3.org/2000/svg"
 width="1013.000000pt" height="1280.000000pt" viewBox="0 0 1013.000000 1280.000000"
 preserveAspectRatio="xMidYMid meet">
<metadata>
Created by potrace 1.15, written by Peter Selinger 2001-2017
</metadata>
<g transform="translate(0.000000,1280.000000) scale(0.100000,-0.100000)"
fill="#000000" stroke="none">
<path d="M510 12788 c-278 -5 -506 -11 -508 -12 -1 -2 11 -61 28 -132 55 -231
131 -309 495 -509 88 -48 191 -107 229 -132 80 -52 186 -153 186 -179 0 -9
-43 -58 -95 -108 -67 -64 -95 -98 -95 -115 0 -35 66 -145 114 -189 55 -50 141
-95 267 -137 l95 -32 60 21 c62 23 120 54 281 149 51 30 131 67 177 82 79 26
88 27 151 16 82 -15 145 -38 346 -129 357 -163 462 -172 879 -80 225 49 386
60 490 34 95 -24 206 -80 372 -189 82 -53 175 -110 208 -127 168 -85 329 -78
488 20 l51 31 58 -37 c85 -54 273 -146 416 -203 139 -55 362 -132 797 -271
318 -103 496 -168 643 -238 l100 -46 -7 -216 c-11 -323 -28 -439 -84 -550
l-28 -55 -169 -7 c-524 -21 -890 -107 -1125 -263 -76 -50 -157 -134 -166 -171
-11 -43 13 -79 68 -105 75 -35 98 -56 98 -89 0 -21 -7 -30 -28 -39 -41 -17
-107 -88 -136 -146 -13 -27 -45 -121 -70 -208 -48 -164 -62 -201 -102 -253
l-23 -32 178 -177 c191 -188 255 -242 338 -283 51 -25 55 -26 115 -13 90 18
137 36 283 103 245 114 385 158 500 158 37 0 47 -5 78 -40 40 -44 79 -115 96
-175 6 -22 20 -120 31 -219 29 -256 43 -305 111 -407 l38 -57 -26 -23 c-14
-13 -69 -82 -123 -154 -135 -181 -212 -248 -330 -290 l-44 -16 -121 60 c-143
70 -294 175 -481 331 -75 63 -186 156 -246 207 -330 276 -578 397 -888 433
-190 23 -339 2 -770 -105 -335 -84 -425 -101 -598 -115 -141 -12 -285 -1 -426
32 -78 18 -90 24 -105 50 -50 94 -147 248 -198 315 -73 98 -224 256 -322 337
-147 123 -364 250 -556 326 l-75 30 -98 -67 c-139 -96 -182 -132 -214 -182
-54 -85 -29 -180 56 -215 34 -14 121 -31 206 -41 162 -18 230 -46 302 -123 86
-92 131 -207 184 -476 55 -279 90 -374 168 -454 51 -54 94 -77 173 -92 83 -16
123 -6 293 75 74 36 162 71 195 80 119 30 263 14 613 -70 128 -30 286 -65 350
-76 183 -31 423 -26 551 11 30 8 40 6 85 -22 146 -89 465 -359 541 -458 25
-32 80 -87 123 -122 116 -94 212 -189 234 -231 17 -35 29 -110 18 -121 -7 -5
-194 19 -294 39 -116 24 -269 61 -436 107 -276 75 -606 156 -720 177 -350 62
-613 46 -816 -50 l-67 -32 7 -76 c27 -298 133 -744 315 -1322 166 -529 174
-550 241 -653 106 -163 105 -177 -5 -390 -89 -173 -101 -210 -149 -458 -37
-194 -49 -210 -281 -361 -132 -87 -168 -134 -168 -220 0 -63 20 -99 66 -120
78 -36 223 -28 324 18 l53 24 16 -35 c9 -19 29 -43 44 -54 41 -29 134 -50 222
-50 l77 0 29 43 c75 109 101 184 153 441 43 218 76 312 143 414 58 90 77 104
171 131 168 47 276 119 290 194 15 80 -32 163 -209 367 -154 178 -200 239
-247 331 -70 139 -87 322 -59 611 14 150 10 259 -13 326 -8 23 -12 42 -9 42 3
0 96 -20 207 -45 370 -82 793 -206 1315 -386 853 -292 1173 -398 1458 -479 61
-18 72 -24 67 -38 -18 -48 -68 -274 -87 -397 -28 -188 -31 -516 -5 -685 47
-299 154 -600 290 -820 92 -147 196 -274 514 -625 296 -327 380 -480 391 -710
10 -235 -60 -415 -228 -586 -129 -130 -279 -210 -475 -250 -250 -52 -596 5
-749 122 -144 112 -251 308 -278 511 -27 200 50 357 215 438 67 32 171 59 184
46 4 -4 8 -64 9 -132 0 -109 3 -128 21 -152 49 -67 109 -69 192 -6 170 127
196 265 73 376 -153 138 -480 170 -686 66 -95 -48 -200 -161 -259 -278 -110
-221 -124 -458 -38 -669 189 -464 851 -711 1529 -571 289 60 559 209 714 394
70 84 92 128 113 231 63 309 30 604 -101 913 -75 177 -153 311 -401 692 -188
288 -242 380 -323 545 -147 298 -212 591 -195 875 13 220 41 326 123 462 85
142 142 278 142 340 0 11 48 71 114 141 310 330 540 642 685 926 91 178 103
221 90 323 -17 133 -2 183 86 298 89 116 93 153 38 322 -35 107 -37 120 -37
243 0 104 6 162 32 295 79 412 68 474 -157 870 -182 320 -197 441 -106 859 79
368 80 457 11 811 -67 346 -71 457 -19 613 l28 82 120 -1 c201 -2 370 -46 741
-194 451 -181 738 -352 840 -504 29 -44 34 -47 34 -26 0 14 -9 268 -20 565
l-21 540 -97 90 c-421 388 -607 610 -737 879 -52 108 -108 261 -121 334 -9 47
-17 52 -83 52 -49 0 -56 -3 -90 -38 -20 -21 -47 -57 -61 -81 -14 -24 -32 -47
-42 -52 -9 -5 -83 -14 -165 -20 -174 -13 -388 -2 -723 37 -118 14 -282 31
-365 39 -154 15 -417 19 -493 7 l-43 -7 29 -45 c34 -53 64 -78 229 -189 183
-123 225 -184 201 -294 -9 -45 -14 -51 -54 -69 -83 -36 -171 -48 -419 -54
-327 -7 -443 -32 -514 -108 -14 -14 -28 -26 -32 -26 -4 0 -35 21 -69 46 -34
25 -90 61 -125 80 -62 34 -63 34 -216 38 -241 5 -318 32 -835 288 -306 152
-442 209 -599 248 -68 18 -106 20 -245 18 l-165 -3 -61 32 c-78 41 -132 84
-286 231 -152 146 -203 179 -339 227 -140 49 -183 76 -224 139 -42 65 -190
188 -297 246 -90 48 -98 49 -553 75 -353 21 -1289 27 -1975 13z m890 -213
c769 -7 1048 -46 1315 -183 158 -82 282 -231 314 -379 l9 -42 -66 -7 c-97 -10
-479 3 -609 21 -356 49 -694 146 -1058 305 -117 51 -435 208 -545 269 l-55 30
105 -4 c58 -3 323 -7 590 -10z m7436 -1001 c143 -84 201 -145 226 -238 15 -57
7 -66 -67 -66 -69 0 -123 28 -203 103 -79 74 -112 85 -188 62 -58 -18 -54 -17
-54 -6 0 21 55 73 101 96 26 14 61 41 76 60 15 19 29 35 30 35 1 0 37 -20 79
-46z m-886 -209 c62 -9 99 -24 110 -46 21 -37 13 -41 -71 -37 -74 3 -83 6
-105 31 -32 37 -33 71 -1 64 12 -4 42 -9 67 -12z m-304 -1105 l52 -11 6 -267
c3 -147 9 -383 12 -524 7 -262 1 -349 -33 -488 -8 -36 -17 -67 -18 -68 -8 -9
-95 40 -128 73 -124 121 -162 277 -187 765 -16 295 -37 436 -77 513 l-15 30
169 -6 c92 -3 191 -10 219 -17z"/>
</g>
</svg>
