<?xml version="1.0" standalone="no"?>
<!DOCTYPE svg PUBLIC "-//W3C//DTD SVG 20010904//EN"
 "http://www.w3.org/TR/2001/REC-SVG-20010904/DTD/svg10.dtd">
<svg version="1.0" xmlns="http://www.w3.org/2000/svg"
 width="1280.000000pt" height="926.000000pt" viewBox="0 0 1280.000000 926.000000"
 preserveAspectRatio="xMidYMid meet">
<metadata>
Created by potrace 1.15, written by Peter Selinger 2001-2017
</metadata>
<g transform="translate(0.000000,926.000000) scale(0.100000,-0.100000)"
fill="#000000" stroke="none">
<path d="M1023 9245 c-105 -29 -166 -72 -144 -99 10 -12 18 -12 54 4 28 12 81
20 161 24 l119 7 -30 -35 c-17 -19 -39 -48 -49 -65 -22 -38 -39 -39 -167 -11
-115 24 -163 28 -179 12 -22 -22 4 -46 58 -53 27 -4 80 -14 117 -23 38 -9 81
-16 97 -16 16 0 31 -4 35 -10 8 -13 -78 -181 -109 -209 l-25 -24 -88 43 c-48
23 -113 51 -143 61 -30 10 -82 28 -115 39 -51 19 -75 21 -165 17 -201 -9 -223
-29 -216 -202 5 -124 14 -158 64 -233 73 -111 228 -205 375 -227 39 -6 47 -11
42 -24 -3 -9 -88 -155 -187 -326 l-181 -310 -148 -152 c-81 -83 -160 -170
-175 -192 -26 -40 -27 -44 -20 -139 9 -123 26 -178 74 -226 41 -43 101 -73
212 -106 51 -15 83 -31 100 -50 14 -15 41 -34 60 -41 19 -7 44 -24 55 -37 19
-22 28 -24 107 -24 98 1 168 16 316 66 l104 35 47 -24 c145 -73 358 -103 621
-86 112 7 139 6 159 -6 24 -15 122 -212 569 -1133 132 -273 205 -436 213 -475
7 -33 21 -71 31 -85 9 -14 31 -77 48 -140 193 -724 561 -1349 917 -1558 70
-42 179 -82 220 -82 26 0 39 -25 93 -178 45 -125 188 -684 204 -794 3 -18 14
-69 24 -113 37 -152 62 -302 62 -367 0 -40 -20 -161 -50 -309 -28 -134 -65
-311 -82 -394 -31 -152 -53 -205 -86 -205 -61 0 -206 -133 -250 -228 -22 -49
-23 -54 -8 -77 74 -113 289 -151 705 -126 103 6 104 6 107 32 1 15 12 45 24
68 14 28 18 47 12 57 -5 9 -5 32 0 52 4 21 10 63 14 95 3 31 10 57 15 57 10 0
273 -57 299 -65 9 -3 22 7 32 26 25 42 101 74 238 99 144 25 198 43 234 76 23
22 27 32 21 58 -3 17 -18 83 -31 146 -14 63 -29 171 -34 240 -9 143 -10 149
-56 362 -40 184 -40 191 -14 296 11 45 22 98 24 119 3 21 10 81 17 133 15 114
17 426 5 795 -6 181 -5 283 2 310 6 22 13 62 17 88 5 37 11 50 28 56 35 14
752 -100 797 -126 346 -198 652 -334 884 -394 364 -94 819 -90 1331 12 l160
32 120 -18 120 -18 84 -89 c137 -144 250 -213 533 -324 79 -31 146 -62 150
-68 4 -6 8 -56 8 -111 1 -141 20 -249 50 -280 48 -51 138 -55 194 -8 23 19 36
23 60 18 96 -20 102 -19 129 17 35 47 47 98 47 211 l0 97 140 0 c77 0 140 -3
140 -6 0 -3 -5 -14 -10 -25 -8 -14 -7 -25 2 -41 8 -15 13 -63 13 -132 l0 -108
30 -17 c17 -9 41 -24 55 -34 13 -9 40 -17 59 -17 l34 0 -6 -43 c-3 -23 -79
-251 -167 -507 -89 -256 -190 -548 -225 -649 -35 -101 -75 -200 -88 -220 -13
-20 -64 -80 -113 -135 -120 -133 -150 -171 -184 -238 -26 -50 -65 -177 -56
-185 1 -2 29 -9 62 -15 97 -20 385 -15 585 10 97 12 213 22 258 22 57 0 83 4
85 13 2 6 9 31 16 55 9 34 29 61 96 125 l85 82 -2 78 c-1 43 -6 80 -10 83 -24
15 -1 140 117 638 104 441 137 562 191 711 127 349 179 539 209 751 17 118 18
121 51 144 30 21 36 22 60 9 36 -19 47 -39 102 -182 27 -69 56 -139 65 -157 8
-18 25 -67 37 -109 11 -42 36 -114 55 -161 l33 -85 20 -590 c22 -647 20 -699
-27 -765 -14 -19 -78 -87 -143 -150 -78 -77 -125 -133 -143 -168 -28 -56 -43
-134 -32 -175 6 -24 7 -24 173 -33 201 -11 481 -9 542 3 l45 8 28 94 c15 51
38 113 52 136 34 62 51 138 38 175 -7 18 -7 30 -1 30 15 0 98 118 136 194 62
124 100 253 182 626 23 102 50 217 61 255 53 181 61 381 30 705 l-19 204 20
23 c29 30 37 104 14 123 -22 19 -48 2 -56 -36 -5 -26 -8 -21 -27 41 -12 39
-33 124 -48 190 -30 137 -37 155 -63 155 -37 0 -45 -25 -32 -98 19 -107 68
-294 91 -347 14 -33 26 -98 36 -195 26 -242 11 -730 -22 -730 -20 0 -48 29
-84 87 -23 38 -50 77 -60 88 -10 11 -26 67 -39 130 -24 127 -67 223 -115 260
-43 32 -52 32 -65 -6 -28 -81 -3 -175 83 -312 32 -53 50 -95 61 -146 8 -40 27
-118 41 -174 28 -107 41 -259 30 -322 -9 -48 -19 -39 -75 65 -93 174 -143 340
-231 778 -34 163 -75 349 -92 412 -17 63 -31 124 -30 135 1 31 19 157 27 186
9 37 -11 46 -41 18 -18 -17 -27 -20 -35 -12 -20 20 7 196 49 318 l38 110 -14
98 c-16 109 -11 155 19 189 l20 23 -4 -41 c-5 -44 4 -71 20 -61 6 4 13 32 16
64 5 46 2 66 -15 103 -25 54 -27 135 -4 198 27 74 65 273 82 428 11 101 18
288 23 579 6 424 6 430 27 433 28 4 49 -23 68 -87 9 -30 23 -62 31 -71 13 -14
14 -28 5 -86 -14 -102 -12 -401 5 -539 25 -208 59 -370 166 -773 89 -336 134
-535 156 -691 17 -119 32 -154 52 -122 12 19 -15 194 -65 418 -31 141 -57 302
-208 1313 l-54 365 10 455 c5 250 10 716 11 1035 2 662 10 600 -93 704 -32 33
-90 102 -128 153 -86 115 -152 178 -228 216 -74 37 -205 69 -309 76 -163 11
-1239 16 -1285 5 -25 -5 -115 -21 -200 -34 -210 -33 -230 -37 -230 -44 0 -3
-51 -7 -113 -8 -61 0 -152 -9 -202 -18 -49 -9 -139 -18 -200 -21 -122 -6 -139
-9 -130 -24 4 -6 60 -10 140 -9 74 0 139 -2 145 -6 16 -10 64 -110 120 -252
28 -70 67 -157 87 -193 33 -61 35 -68 29 -130 -4 -36 -20 -116 -37 -179 -17
-62 -28 -123 -25 -135 3 -12 29 -48 58 -80 l53 -59 235 12 c217 10 302 22 373
50 l27 11 0 -145 0 -145 58 -28 c61 -29 59 -25 46 -104 -9 -55 1 -83 48 -134
l41 -44 -47 -122 c-66 -169 -83 -251 -69 -335 6 -35 23 -88 37 -117 l26 -53
169 -61 c92 -34 199 -67 237 -73 38 -7 70 -13 71 -13 1 -1 -7 -33 -18 -71 -32
-114 -35 -221 -10 -407 32 -237 21 -216 120 -248 91 -29 141 -70 141 -113 0
-12 -25 -56 -56 -96 -86 -115 -104 -144 -104 -168 0 -24 14 -31 25 -13 4 6 10
8 15 5 5 -3 -9 -29 -30 -58 -22 -28 -49 -76 -61 -105 -24 -58 -42 -63 -47 -14
-2 18 -6 32 -10 32 -8 0 -55 -130 -49 -136 10 -10 37 10 37 27 0 23 18 25 26
4 13 -34 -8 -87 -57 -141 -48 -53 -62 -81 -35 -71 8 3 19 -8 29 -29 9 -19 24
-34 32 -34 9 0 14 -4 10 -9 -3 -6 -1 -92 4 -193 12 -220 32 -304 120 -483 32
-66 62 -132 65 -147 4 -16 13 -28 21 -28 16 0 14 -42 -11 -194 -33 -197 -90
-385 -241 -796 -214 -581 -271 -811 -276 -1107 -2 -141 13 -125 -140 -148 -48
-7 -99 -21 -113 -30 -23 -15 -24 -18 -11 -33 29 -34 50 -110 45 -164 -4 -42
-11 -57 -37 -80 -17 -15 -40 -28 -50 -28 -21 0 -56 38 -66 72 -6 18 -8 18 -24
4 -16 -14 -19 -11 -43 38 -24 47 -31 54 -65 61 -58 10 -117 39 -183 90 -58 44
-72 67 -50 80 6 3 10 12 10 19 0 7 30 62 66 122 217 359 363 789 438 1284 8
52 19 113 25 135 18 67 13 134 -20 270 -32 133 -36 146 -108 297 -23 48 -55
131 -71 186 -16 54 -50 154 -75 223 -87 231 -134 379 -166 512 -78 332 -109
409 -200 499 -115 112 -264 163 -479 161 -146 0 -214 -12 -374 -63 -101 -33
-140 -57 -296 -189 -100 -84 -158 -113 -242 -119 l-67 -5 -24 -56 c-14 -32
-36 -64 -49 -73 -26 -17 -311 -131 -388 -154 -25 -8 -82 -17 -128 -21 -93 -7
-124 -21 -106 -50 10 -15 25 -18 95 -17 100 1 153 15 357 96 l154 60 33 -32
c25 -24 38 -30 55 -25 19 6 20 5 9 -13 -10 -16 -9 -29 2 -68 12 -45 13 -82 3
-93 -2 -3 -17 7 -32 22 -34 32 -72 47 -121 47 -51 0 -62 -30 -25 -67 29 -29
25 -50 -11 -59 -14 -3 -25 -10 -25 -15 0 -5 -16 -9 -35 -9 -29 0 -37 5 -46 26
-9 25 -11 26 -22 10 -7 -10 -40 -32 -73 -49 -50 -27 -60 -37 -62 -62 -2 -16
-8 -34 -13 -40 -5 -5 -51 -12 -101 -15 -91 -5 -106 -12 -88 -40 7 -11 29 -15
92 -14 46 0 92 1 103 2 11 2 34 0 51 -4 27 -5 37 -1 68 30 19 20 39 48 42 61
5 20 13 25 36 25 27 0 30 -3 24 -22 -3 -13 -6 -29 -6 -36 0 -7 -14 -26 -32
-42 -26 -24 -29 -31 -18 -44 17 -21 23 -20 59 10 21 18 33 38 37 66 10 58 34
69 135 66 l84 -3 -47 -44 c-27 -24 -48 -50 -48 -58 0 -20 116 -17 165 6 37 16
96 73 120 115 8 13 10 6 10 -32 0 -64 18 -89 118 -166 l76 -58 -22 -18 c-21
-18 -23 -17 -85 26 -98 69 -118 77 -155 65 -18 -6 -84 -24 -147 -41 l-115 -30
-1020 156 -1020 155 -105 53 c-289 147 -507 199 -723 176 -55 -6 -111 -16
-125 -22 -35 -13 -329 -37 -464 -38 l-106 0 -6 -37 c-24 -145 -38 -342 -41
-543 -3 -147 -10 -272 -20 -335 -8 -55 -23 -152 -32 -215 -10 -71 -23 -125
-34 -140 -23 -32 -49 -194 -49 -302 0 -97 15 -204 63 -458 19 -102 38 -210 42
-242 6 -56 6 -56 -29 -83 -41 -31 -38 -49 5 -40 25 6 30 3 39 -21 6 -15 10
-57 8 -93 l-3 -66 -59 -7 c-89 -11 -134 -50 -141 -122 -2 -19 -8 -42 -13 -53
-5 -10 -12 -48 -16 -85 -9 -96 -8 -95 -79 -97 -57 -2 -65 0 -91 28 -32 34 -32
43 10 193 13 50 15 71 7 79 -6 6 -16 8 -22 5 -10 -6 -51 -132 -66 -199 l-5
-27 -38 15 c-36 15 -114 66 -160 104 l-22 19 35 53 c75 114 134 300 154 487 6
56 11 182 11 280 1 256 8 300 62 369 69 89 71 92 63 110 -5 15 -11 13 -36 -19
-29 -35 -31 -36 -49 -20 -11 9 -32 47 -46 84 -28 75 -32 79 -72 80 l-29 1 -58
246 c-68 292 -121 481 -171 611 -20 52 -38 111 -39 130 -2 34 -16 100 -36 166
-5 17 -9 51 -9 75 0 34 -8 58 -34 99 -44 69 -78 127 -128 213 -41 70 -61 88
-80 69 -7 -7 0 -28 25 -69 72 -121 79 -140 62 -172 -21 -43 -35 -47 -35 -13 0
41 -27 70 -79 85 -42 12 -48 19 -197 240 -131 193 -151 227 -129 221 19 -5 25
-2 25 10 0 9 -15 19 -39 26 -34 9 -47 23 -117 128 -106 156 -394 728 -394 781
0 10 -7 26 -15 37 -12 16 -16 17 -24 4 -5 -8 -7 -26 -4 -41 9 -46 -15 -43 -27
3 -42 158 -140 430 -201 553 -37 77 -102 230 -143 341 -86 230 -131 335 -182
425 -58 104 -140 206 -214 266 l-69 56 19 26 c10 14 48 60 84 101 69 78 77 96
49 107 -12 5 -35 -13 -85 -68 -38 -41 -81 -93 -96 -116 l-27 -43 -89 0 c-105
0 -588 56 -631 73 -47 18 -105 76 -105 104 0 18 -5 24 -17 21 -26 -5 -28 -53
-3 -87 12 -18 16 -32 10 -36 -5 -3 -67 -11 -136 -16 -117 -10 -127 -9 -139 8
-11 15 -17 16 -33 6 -19 -11 -196 -10 -233 2 -11 4 -18 21 -21 54 -3 28 -14
62 -27 80 -30 41 -22 57 30 65 106 17 189 81 189 145 0 31 -5 40 -25 49 -37
17 -43 16 -97 -19 -40 -26 -56 -31 -88 -26 -39 5 -40 5 -51 -35 -6 -23 -8 -50
-5 -60 2 -11 0 -31 -6 -43 l-11 -24 -60 30 c-44 23 -70 30 -99 27 l-38 -4 0
41 c0 58 -20 90 -54 88 l-27 -2 19 32 c11 18 47 77 79 133 51 86 84 125 219
260 166 166 215 224 283 337 50 81 97 218 106 307 8 77 39 200 62 244 9 17 39
65 66 106 28 41 65 98 81 127 17 28 66 93 109 143 l79 92 -7 68 c-6 61 -4 71
18 106 31 50 76 94 105 105 27 11 220 12 351 2 86 -6 92 -7 97 -30 4 -14 2
-29 -2 -33 -5 -5 -52 -21 -104 -34 -52 -14 -105 -28 -117 -32 -20 -5 -23 -3
-23 20 0 21 -5 26 -25 26 -18 0 -26 -7 -31 -25 -7 -27 -7 -28 33 -99 21 -37
40 -56 75 -73 l48 -24 -27 -42 c-14 -23 -68 -103 -119 -178 -98 -142 -160
-259 -170 -319 -3 -19 -12 -53 -19 -75 -7 -22 -13 -69 -12 -105 0 -36 -3 -74
-6 -85 -8 -26 6 -135 33 -254 25 -107 48 -140 136 -193 61 -37 78 -63 93 -141
6 -32 19 -71 30 -86 40 -56 79 -138 90 -189 6 -29 11 -108 11 -176 0 -68 3
-137 6 -154 l6 -30 35 24 c39 26 100 32 134 13 18 -9 30 -1 98 63 120 115 209
145 287 97 l34 -21 0 -168 c0 -94 -5 -181 -10 -196 -9 -23 -7 -32 9 -53 79
-99 141 -255 161 -401 6 -47 17 -87 23 -89 24 -8 83 -79 125 -148 23 -39 59
-86 81 -105 l39 -33 -15 -70 c-29 -140 20 -277 143 -402 39 -40 77 -73 84 -73
18 0 69 58 95 109 12 25 35 85 49 134 14 48 38 126 52 175 32 107 66 177 106
219 26 27 35 31 65 26 21 -4 48 1 71 11 33 15 41 26 64 89 14 40 50 128 78
197 79 192 94 255 94 390 0 152 -15 201 -97 322 -116 171 -128 288 -29 288 45
0 88 42 132 130 55 110 80 136 141 149 107 23 175 79 249 205 25 42 50 76 55
76 6 0 62 -7 125 -15 195 -25 428 -43 870 -70 234 -14 497 -32 585 -40 151
-14 457 -52 481 -60 8 -2 5 -33 -8 -102 -25 -127 -21 -224 14 -291 l25 -48
-24 -18 c-29 -22 -40 -47 -63 -150 -10 -43 -22 -82 -27 -87 -4 -4 -100 -13
-213 -19 -325 -17 -458 -44 -584 -120 -63 -38 -72 -66 -56 -167 12 -71 23
-104 79 -232 48 -110 50 -135 16 -181 -14 -19 -25 -46 -25 -60 0 -46 29 -113
76 -175 62 -82 76 -110 89 -180 l11 -60 49 -16 49 -15 28 -85 c52 -153 80
-302 83 -439 l2 -125 59 -100 c65 -110 198 -254 272 -295 40 -23 42 -26 42
-70 l0 -46 83 -13 c288 -44 588 -11 709 78 36 26 42 28 89 19 76 -14 174 10
320 77 226 105 277 115 357 68 45 -27 53 -28 167 -27 66 1 184 9 262 18 78 9
164 16 191 16 46 0 48 1 61 38 19 51 123 150 204 192 57 30 68 41 82 77 9 23
42 84 73 135 74 123 101 191 102 254 0 45 -3 54 -27 70 -43 27 -273 256 -289
286 -22 42 -17 123 17 258 17 69 33 157 36 196 6 71 5 71 -36 133 -106 156
-124 261 -61 351 15 21 26 24 81 25 74 1 116 20 225 101 40 29 95 64 123 78
43 22 51 31 51 54 0 63 51 250 90 329 48 98 149 200 203 205 40 4 52 38 13 38
-13 0 -36 -4 -50 -9 -15 -6 -26 -6 -28 -1 -3 9 -199 13 -1098 25 -211 3 -398
9 -415 15 -45 14 -522 31 -1005 36 -349 3 -452 7 -575 24 -276 36 -423 48
-960 80 -384 23 -533 34 -720 55 -219 25 -228 27 -290 61 -33 18 -143 68 -245
112 -250 108 -278 122 -336 164 -77 56 -184 110 -369 186 -93 39 -220 95 -281
125 -60 30 -129 60 -152 66 -35 10 -51 24 -100 89 -62 83 -110 122 -151 122
-19 0 -52 27 -135 110 l-109 111 16 35 c9 19 17 42 17 51 0 28 -50 123 -65
123 -7 0 -47 14 -88 30 -83 33 -110 36 -169 18 -31 -9 -78 -9 -206 0 -114 9
-185 9 -225 3 -50 -9 -62 -8 -91 10 -46 27 -154 34 -223 14z m906 -212 c36
-31 68 -58 70 -60 2 -1 -2 -16 -9 -32 -21 -52 -90 -62 -263 -39 -89 12 -189
50 -191 73 -1 5 55 25 123 43 69 18 139 41 155 51 17 11 35 20 40 20 5 1 39
-25 75 -56z m-1584 -349 c14 -6 45 -53 45 -69 0 -3 -18 9 -40 26 -51 41 -53
61 -5 43z m1994 -52 c20 -21 55 -61 79 -90 38 -46 43 -57 40 -95 -3 -38 -6
-42 -30 -45 -26 -3 -28 -1 -28 33 0 49 -20 85 -74 129 -38 31 -46 43 -46 72 0
44 14 43 59 -4z m-551 -51 c-52 -74 -93 -98 -146 -84 -18 4 -22 12 -22 49 0
44 0 44 -35 44 -40 0 -45 12 -12 35 17 12 45 15 137 13 l116 -3 -38 -54z
m-1036 -18 c-23 -41 -27 -62 -30 -150 -3 -57 -6 -103 -9 -103 -3 0 -34 25 -69
56 l-64 56 32 17 c18 9 47 36 65 61 81 114 123 148 75 63z m-302 7 c8 -5 11
-12 7 -16 -4 -4 -15 0 -24 9 -18 18 -8 23 17 7z m2195 -116 l70 -34 0 -82 c0
-68 3 -83 16 -86 14 -2 18 10 24 73 5 52 11 75 18 71 7 -3 52 -22 102 -43 133
-56 425 -201 463 -229 17 -14 32 -32 32 -40 0 -21 -38 -17 -50 6 -18 33 -30
13 -30 -51 0 -38 10 -91 29 -149 28 -87 28 -89 10 -106 -11 -10 -26 -43 -35
-73 -24 -87 -35 -110 -62 -132 -24 -18 -24 -20 -7 -33 14 -10 17 -22 13 -53
-3 -22 -1 -48 4 -57 8 -14 2 -24 -30 -52 -22 -19 -55 -58 -72 -86 l-32 -52
-25 29 c-20 23 -24 36 -20 66 5 38 81 177 104 192 22 14 14 30 -12 25 -22 -5
-25 -2 -25 21 0 14 9 50 20 80 16 41 18 56 9 67 -13 16 -39 2 -39 -21 0 -7 -9
-32 -19 -56 l-20 -43 -7 29 c-4 16 -3 55 2 86 8 48 7 58 -6 67 -24 15 -53 128
-40 153 6 11 10 37 8 57 -2 29 -7 37 -23 37 -15 0 -21 -9 -25 -35 -9 -51 -14
-56 -58 -52 -32 3 -43 9 -51 31 -9 21 -8 34 9 69 11 23 22 59 23 80 2 30 -1
37 -17 37 -13 0 -22 -12 -31 -40 -19 -64 -33 -85 -60 -85 -20 0 -26 7 -35 39
-13 50 -32 66 -59 51 -12 -6 -21 -17 -21 -26 0 -8 -12 -27 -26 -41 l-26 -26
-20 31 c-11 17 -22 56 -25 87 -5 51 -4 55 15 55 24 0 29 15 34 91 3 39 1 45
-14 41 -10 -2 -33 9 -53 27 -20 17 -40 31 -45 31 -6 0 -10 23 -10 51 0 51 0
51 28 45 15 -4 59 -23 97 -42z m-2080 5 c14 -22 -3 -18 -26 7 -23 25 -23 26
-2 15 12 -6 25 -16 28 -22z m1025 -72 c0 -18 -21 -37 -41 -37 -24 0 -33 17
-17 34 16 19 58 21 58 3z m648 -23 c45 -6 55 -19 21 -29 l-21 -7 21 -22 c41
-43 22 -56 -51 -36 -39 11 -88 60 -88 89 0 18 11 18 118 5z m182 -75 c0 -52
-2 -60 -17 -57 -14 3 -18 13 -17 44 1 91 34 104 34 13z m-979 24 c-23 -44
-131 -116 -148 -99 -13 12 10 46 31 46 13 0 43 16 67 35 49 38 65 44 50 18z
m371 -70 c35 -41 32 -88 -6 -77 -31 9 -55 34 -50 50 2 8 6 21 9 29 6 20 28 19
47 -2z m-77 -63 c8 -13 -42 -58 -73 -66 -16 -4 -29 -1 -40 10 -16 15 -15 16
13 10 25 -5 34 -1 53 25 24 32 37 38 47 21z m-135 -77 c8 -7 -23 -22 -58 -29
-19 -4 -52 -1 -75 6 -39 11 -40 13 -22 26 14 11 36 12 85 8 36 -4 67 -9 70
-11z m-260 -28 c0 -9 -7 -32 -15 -52 -8 -19 -15 -44 -15 -54 0 -11 -4 -19 -8
-19 -15 0 -32 50 -32 95 0 45 0 45 35 45 25 0 35 -4 35 -15z m211 -182 c7 -16
15 -31 17 -35 2 -5 -12 -8 -31 -8 l-34 0 11 35 c13 42 19 43 37 8z m240 -23
c25 -14 26 -45 2 -35 -10 5 -38 11 -63 14 -41 6 -43 8 -25 18 25 15 60 16 86
3z m-418 -26 c3 -4 0 -19 -8 -35 -8 -15 -12 -36 -8 -46 4 -12 3 -15 -4 -8 -6
6 -14 29 -18 53 -6 37 -5 42 12 42 11 0 22 -3 26 -6z m9313 -197 c3 -3 0 -15
-6 -27 -11 -20 -17 -22 -63 -15 -29 4 -78 8 -110 9 -46 1 -57 4 -57 18 0 11
11 18 33 21 39 6 196 1 203 -6z m245 3 c5 0 9 -9 9 -20 0 -24 -18 -26 -49 -4
-18 13 -20 18 -10 25 8 5 20 7 27 4 8 -3 18 -5 23 -5z m-530 -15 c1 -5 -41
-25 -93 -42 -110 -39 -193 -44 -229 -14 l-23 19 34 7 c62 14 264 43 288 42 12
-1 23 -6 23 -12z m-8491 1 c0 -13 -113 -87 -141 -92 -29 -5 -22 2 46 44 76 47
95 57 95 48z m4978 -32 c27 -8 28 -20 3 -34 -14 -7 -43 -6 -96 2 -56 9 -84 9
-106 1 -26 -10 -29 -9 -29 7 0 14 9 20 33 23 54 7 171 7 195 1z m3957 -19 l30
-25 -40 0 c-55 0 -123 22 -118 38 8 23 95 14 128 -13z m-3627 -17 c-8 -22 -57
-26 -124 -12 -37 7 -69 16 -72 19 -3 3 41 5 97 5 75 0 102 -3 99 -12z m382
-23 c0 -18 -31 -35 -64 -35 -21 0 -26 5 -26 25 0 23 4 25 45 25 33 0 45 -4 45
-15z m-5905 -94 c-19 -37 -33 -47 -48 -32 -9 9 -4 18 18 36 40 32 49 31 30 -4z
m-78 -42 c14 -14 -4 -62 -21 -56 -21 7 -30 35 -17 51 16 19 23 20 38 5z m5810
-64 c-2 -25 0 -45 5 -45 6 0 8 -5 6 -10 -2 -6 -39 -12 -87 -13 -69 -2 -85 -6
-97 -22 -11 -15 -14 -15 -14 -3 0 8 9 23 20 33 24 22 26 48 5 65 -25 21 2 31
65 25 30 -3 62 -1 70 5 26 17 31 11 27 -35z m88 -75 c3 -5 2 -10 -4 -10 -5 0
-13 5 -16 10 -3 6 -2 10 4 10 5 0 13 -4 16 -10z m4884 -144 c13 -53 15 -116 3
-116 -5 0 -19 11 -32 25 -13 14 -32 25 -42 25 -25 0 -22 22 7 50 14 13 25 31
25 40 0 19 10 31 20 25 4 -3 13 -25 19 -49z m-1046 14 c14 -11 29 -29 32 -40
9 -28 35 -25 61 7 19 24 24 26 38 14 9 -7 16 -19 16 -26 0 -17 33 -28 224 -70
88 -19 164 -39 168 -43 5 -5 10 -32 12 -61 3 -47 1 -54 -19 -63 -20 -9 -30 -5
-72 27 -26 20 -52 45 -58 55 -10 18 -11 18 -49 -1 -35 -17 -55 -18 -248 -12
-201 6 -212 7 -246 31 l-36 24 -17 -21 -18 -21 -26 34 -26 34 -47 -18 c-26
-10 -68 -26 -94 -35 -29 -10 -59 -30 -76 -51 l-29 -34 -64 29 c-36 16 -121 41
-190 55 -68 14 -157 38 -198 53 l-74 26 -19 -25 c-18 -26 -19 -26 -69 -13 -65
17 -89 39 -89 80 0 27 4 34 26 38 38 7 93 -8 120 -34 21 -20 26 -21 34 -9 5 8
10 24 10 35 0 19 8 20 219 23 l220 3 52 -27 c62 -31 89 -29 269 16 151 38 148
37 196 39 28 1 50 -6 67 -19z m641 -343 c14 -10 15 -18 7 -38 -11 -31 -35 -43
-76 -39 -28 2 -54 24 -55 46 0 13 58 42 86 43 11 1 28 -5 38 -12z m-64 -136
c0 -4 -14 -25 -30 -46 -17 -21 -29 -44 -26 -51 3 -7 -9 -18 -25 -24 -37 -16
-60 -48 -95 -135 -27 -67 -76 -135 -97 -135 -6 0 -21 -10 -35 -22 -22 -21 -24
-22 -33 -5 -7 11 -22 17 -47 17 -47 0 -66 12 -58 37 5 15 13 18 42 15 28 -3
35 -1 32 9 -3 8 -15 15 -29 17 -28 4 -87 51 -90 72 -4 34 2 50 19 50 31 1 132
47 228 106 132 79 244 123 244 95z m-8959 -148 c-4 -37 14 -45 25 -11 l7 22
19 -24 c23 -29 20 -71 -12 -144 l-19 -46 25 -55 c35 -76 41 -147 19 -235 -16
-65 -20 -71 -39 -65 -52 15 -96 17 -112 4 -15 -12 -16 -8 -13 45 5 76 -16 88
-24 15 -6 -52 -20 -79 -33 -66 -4 4 -7 42 -6 85 1 56 13 125 47 257 25 98 50
208 56 243 l11 64 27 -28 c19 -22 25 -37 22 -61z m8349 -204 c0 -15 -5 -20
-22 -17 -34 5 -37 38 -4 38 20 0 26 -5 26 -21z m-13 -75 c7 -7 13 -29 13 -50
l0 -37 -24 22 c-27 25 -46 21 -46 -10 0 -22 -15 -26 -23 -5 -8 20 4 100 16
108 12 7 43 -7 64 -28z m354 -40 c12 -34 6 -52 -36 -106 -20 -23 -38 -60 -41
-80 l-7 -38 -27 17 c-37 21 -60 11 -60 -27 0 -28 -3 -30 -36 -30 -51 0 -68
-12 -103 -74 -35 -63 -65 -86 -76 -58 -6 15 -8 15 -18 2 -17 -21 -120 -90
-135 -90 -20 0 -14 23 18 73 35 56 37 77 10 102 -21 19 -18 35 7 35 8 0 17 -9
20 -20 3 -11 11 -20 17 -20 17 0 97 53 121 80 29 33 73 53 102 45 21 -5 23 -4
14 14 -19 34 -14 43 19 36 35 -8 38 2 9 39 -20 25 -20 28 -5 51 10 16 26 25
42 25 14 0 35 5 47 12 12 7 34 11 48 9 14 -1 31 5 39 13 17 21 19 20 31 -10z
m534 -656 c3 -13 4 -183 2 -378 -4 -309 -9 -407 -40 -750 -38 -407 -50 -477
-94 -542 -14 -21 -28 -58 -31 -83 -3 -32 -8 -43 -15 -36 -7 7 -10 119 -9 332
2 403 9 465 96 920 40 212 66 404 66 496 0 62 14 85 25 41z m-9376 -738 c40
-85 68 -150 63 -145 -28 32 -144 210 -157 242 -15 35 -15 39 1 50 10 7 19 12
20 10 1 -1 34 -72 73 -157z m9091 -30 c8 -54 8 -121 0 -240 -9 -128 -9 -179 0
-225 30 -147 32 -302 5 -420 -8 -33 -19 -103 -25 -155 -13 -111 -44 -257 -65
-306 -8 -20 -29 -53 -47 -74 -18 -21 -64 -93 -103 -160 -75 -132 -155 -224
-217 -253 -31 -14 -38 -24 -43 -55 -4 -20 -8 -43 -11 -50 -7 -24 -38 -7 -60
33 -25 46 -154 501 -154 543 0 18 9 37 26 51 19 17 23 25 14 36 -6 7 -20 11
-30 8 -31 -8 -28 56 4 86 13 12 55 65 92 117 46 64 73 93 83 89 8 -3 29 -1 47
5 30 10 33 15 38 63 3 29 3 86 -2 127 -7 65 -5 78 11 100 10 14 34 49 52 77
32 51 33 53 14 63 -27 15 -23 48 11 99 39 57 39 75 1 68 -65 -13 -27 79 50
119 37 19 36 19 58 -23 l19 -38 10 26 c6 15 16 62 22 105 6 43 15 83 20 88 10
10 60 -18 60 -34 0 -16 46 -11 61 6 7 9 14 51 17 102 2 48 5 93 8 101 9 28 24
-5 34 -79z m-2231 -1266 c311 -344 521 -583 521 -595 0 -14 -7 -19 -30 -19
-28 0 -30 -2 -30 -40 0 -27 5 -43 15 -46 27 -11 18 -76 -16 -125 -47 -66 -81
-99 -101 -99 -20 0 -24 -30 -8 -60 9 -16 6 -21 -15 -26 -14 -3 -40 -3 -59 0
-18 4 -45 2 -59 -3 -15 -6 -39 -6 -59 -1 -18 4 -59 11 -90 15 l-58 6 15 29
c13 25 13 34 1 62 -8 18 -19 45 -25 61 -12 30 -45 37 -55 12 -3 -9 1 -36 10
-61 16 -47 12 -84 -10 -84 -84 0 -673 340 -676 391 0 3 11 11 25 17 21 10 29
8 57 -16 18 -15 40 -36 49 -46 18 -21 49 -16 49 8 0 8 -21 32 -46 53 -103 85
-186 170 -230 235 -43 62 -46 70 -35 94 11 25 9 29 -24 56 -19 16 -35 35 -35
41 0 7 11 34 25 60 26 48 26 67 -1 67 -8 0 -14 2 -14 5 0 13 70 114 88 126 13
9 23 35 30 78 17 96 46 144 154 258 54 57 98 108 98 113 0 6 4 10 9 10 5 0
243 -259 530 -576z m1744 460 c7 -7 -48 -119 -63 -129 -15 -9 -12 1 10 45 11
22 20 51 20 65 0 23 18 34 33 19z m556 -491 c1 -28 -11 -100 -25 -159 -17 -70
-25 -127 -22 -165 3 -61 -3 -70 -36 -46 -42 31 -39 163 9 306 14 40 25 81 25
90 0 9 8 27 17 40 16 23 17 23 24 5 4 -10 8 -42 8 -71z m-8131 -148 c19 -41
14 -50 -12 -26 -14 13 -22 29 -19 37 8 21 18 17 31 -11z m1478 -535 c8 -562 0
-710 -43 -710 -16 0 -30 -10 -44 -34 -11 -19 -26 -37 -34 -40 -23 -8 -18 -44
9 -61 20 -13 26 -32 41 -123 9 -59 30 -166 46 -239 39 -177 49 -286 36 -373
-10 -61 -14 -70 -32 -70 -29 0 -45 -19 -45 -53 0 -30 0 -30 -49 -24 -54 6 -99
27 -192 87 -48 31 -72 40 -105 40 -24 0 -46 5 -49 10 -3 6 3 56 15 113 18 86
31 252 40 497 0 13 2 13 9 1 7 -11 11 -5 16 23 9 46 2 103 -30 231 -14 55 -25
112 -25 127 0 34 -7 35 -36 7 -12 -12 -27 -18 -33 -14 -17 10 -13 54 19 260
16 105 30 207 30 228 0 100 46 -7 96 -228 41 -181 55 -224 94 -292 24 -41 36
-53 55 -53 38 0 55 35 54 110 0 54 -2 61 -11 43 -15 -32 -27 -29 -44 12 -19
45 -19 124 0 131 12 4 9 16 -12 57 -20 39 -26 67 -27 112 0 55 2 60 23 63 13
2 22 10 22 21 0 31 -30 134 -61 214 -29 72 -30 79 -15 96 18 20 20 75 5 141
-20 85 6 112 63 65 16 -14 38 -25 48 -25 34 0 34 22 -1 51 -19 15 -31 31 -26
35 4 4 16 -1 27 -11 15 -14 23 -16 32 -7 9 9 7 16 -6 31 -17 18 -16 20 16 43
18 14 49 34 68 45 l35 19 7 -40 c4 -23 10 -255 14 -516z m-1446 422 c6 -14 9
-26 7 -29 -4 -4 -57 62 -57 71 0 14 40 -20 50 -42z m7907 -184 c76 -80 99
-175 113 -453 13 -269 13 -260 -4 -246 -8 7 -18 26 -21 42 -4 17 -13 33 -21
36 -9 3 -14 21 -14 54 0 116 -39 195 -77 156 -13 -12 -13 -23 -3 -68 16 -72
10 -153 -11 -157 -18 -3 -26 14 -94 193 -25 66 -53 130 -61 142 -25 39 -1 101
91 228 30 42 55 83 55 91 0 22 14 17 47 -18z m-1438 -263 c40 -46 39 -58 -1
-38 -17 9 -54 18 -82 20 -67 6 -77 9 -70 27 6 16 29 23 85 25 31 1 42 -5 68
-34z m121 -272 c0 -32 -17 -37 -24 -8 -4 15 -14 25 -25 25 -14 0 -17 6 -14 24
3 12 1 38 -5 57 -5 19 -7 41 -4 49 7 18 71 -115 72 -147z m-275 121 c16 -12
17 -16 6 -23 -26 -16 -70 7 -56 29 9 14 27 12 50 -6z m-362 -215 l37 -10 0
-114 c0 -63 -3 -115 -7 -115 -5 1 -47 60 -95 132 l-88 131 58 -7 c31 -4 74
-11 95 -17z m705 -96 c18 -61 30 -155 25 -190 -5 -28 -9 -33 -34 -33 -26 0
-28 3 -23 28 4 22 -2 34 -35 67 -39 38 -49 64 -35 99 7 17 34 22 34 6 0 -5 5
-10 11 -10 7 0 8 7 4 18 -19 47 -18 52 12 52 26 0 31 -5 41 -37z m1351 -154
c16 -22 34 -63 41 -91 15 -73 43 -131 99 -207 83 -113 85 -118 111 -346 24
-216 48 -290 150 -475 97 -174 101 -187 65 -196 -14 -3 -41 -4 -60 -1 -61 10
-75 1 -75 -52 0 -76 17 -116 65 -159 41 -36 45 -44 45 -86 0 -53 -18 -61 -44
-21 -17 25 -49 32 -75 16 -7 -5 -16 -30 -18 -56 -3 -26 -12 -49 -19 -52 -25
-9 -156 70 -219 134 -59 58 -63 65 -67 115 -2 29 4 107 14 173 34 229 48 406
48 597 0 253 -29 452 -90 624 -21 62 -27 124 -10 124 5 0 23 -18 39 -41z
m-7064 -221 l58 -63 -7 -125 c-9 -157 -40 -382 -49 -355 -42 134 -96 605 -68
605 4 0 34 -28 66 -62z"/>
<path d="M3165 8079 c-17 -32 -14 -59 5 -59 6 0 8 4 5 10 -3 5 1 23 10 39 18
35 18 41 5 41 -5 0 -17 -14 -25 -31z"/>
<path d="M3262 7858 c-16 -16 -15 -60 1 -83 13 -16 14 -15 20 19 8 48 -3 82
-21 64z"/>
<path d="M2896 6282 c-4 -15 -9 -35 -12 -45 -5 -16 -3 -17 15 -5 13 8 21 23
21 40 0 37 -16 44 -24 10z"/>
<path d="M11550 3946 c0 -30 -3 -61 -6 -70 -9 -22 19 -21 39 2 20 22 23 92 5
110 -26 26 -38 13 -38 -42z"/>
<path d="M9282 2798 c-16 -21 3 -55 48 -84 22 -15 40 -31 40 -36 0 -5 10 -8
23 -6 31 4 26 38 -9 63 -16 11 -41 32 -55 48 -31 31 -33 32 -47 15z"/>
<path d="M9386 2782 c-8 -14 45 -35 57 -23 13 13 9 18 -24 26 -15 4 -29 2 -33
-3z"/>
<path d="M1211 7628 c-23 -62 -23 -68 -2 -68 40 0 66 51 39 78 -18 18 -27 15
-37 -10z"/>
<path d="M185 7171 c-34 -7 -49 -41 -17 -41 17 0 60 36 51 43 -2 2 -17 1 -34
-2z"/>
<path d="M3344 4115 c-9 -23 30 -78 83 -115 26 -19 65 -50 85 -68 36 -32 58
-35 58 -8 0 14 -45 58 -111 106 -26 19 -56 49 -68 67 -23 36 -38 41 -47 18z"/>
<path d="M12366 3818 c-3 -7 -6 -60 -9 -118 -3 -78 -9 -117 -25 -152 -17 -39
-18 -49 -7 -58 19 -16 31 -6 57 43 20 37 23 57 23 167 0 111 -2 125 -18 128
-9 2 -19 -2 -21 -10z"/>
<path d="M7662 3583 c-65 -15 -85 -34 -61 -58 12 -12 23 -11 74 1 33 8 95 15
137 16 84 1 112 14 88 43 -16 20 -151 19 -238 -2z"/>
<path d="M10921 3494 c-52 -111 -77 -143 -150 -194 -32 -22 -64 -51 -71 -64
-15 -29 -10 -61 10 -61 8 0 25 -6 38 -13 13 -8 30 -11 37 -8 9 3 15 -4 17 -22
5 -46 34 -39 58 15 31 71 50 133 53 178 2 22 23 78 46 125 43 88 48 122 19
128 -12 2 -27 -20 -57 -84z"/>
<path d="M7294 3505 c-11 -27 10 -36 77 -33 56 3 64 5 64 23 0 18 -8 20 -68
23 -54 2 -68 0 -73 -13z"/>
<path d="M7005 3471 c-26 -4 -40 -11 -40 -21 0 -12 17 -15 93 -15 68 0 92 3
92 13 0 27 -58 36 -145 23z"/>
<path d="M11040 3205 c0 -18 5 -25 18 -25 25 0 31 7 25 31 -8 29 -43 25 -43
-6z"/>
<path d="M11067 3024 c-3 -4 0 -13 8 -21 8 -8 15 -23 15 -33 0 -29 11 -50 26
-50 21 0 17 53 -7 84 -21 26 -31 31 -42 20z"/>
<path d="M4541 2897 c-8 -10 -7 -49 5 -148 9 -80 13 -166 10 -214 -12 -169
-13 -160 9 -160 25 0 44 38 57 118 8 49 7 91 -6 188 -9 69 -16 143 -16 165 0
56 -32 83 -59 51z"/>
<path d="M12740 2875 c0 -18 44 -59 48 -45 5 13 -25 60 -38 60 -6 0 -10 -7
-10 -15z"/>
<path d="M4444 2865 c-4 -9 -2 -34 5 -54 6 -21 11 -50 11 -65 0 -19 5 -26 20
-26 29 0 34 38 13 100 -19 56 -38 74 -49 45z"/>
<path d="M12247 2784 c-4 -4 -7 -29 -7 -56 0 -55 23 -65 28 -12 3 34 -10 78
-21 68z"/>
<path d="M11072 2638 c-6 -6 -12 -27 -12 -45 0 -18 -9 -47 -20 -65 -25 -42
-25 -64 -1 -78 21 -10 24 -8 47 35 10 20 15 20 77 8 38 -7 37 22 -3 45 -24 14
-30 24 -32 62 -2 36 -7 46 -23 48 -11 1 -26 -3 -33 -10z"/>
<path d="M10754 2457 c-3 -9 -4 -28 -2 -44 2 -20 8 -28 23 -28 17 0 20 7 20
40 0 30 -4 41 -18 43 -9 2 -20 -3 -23 -11z"/>
<path d="M10982 1991 c-16 -10 -66 -124 -90 -206 -30 -102 -33 -132 -18 -144
19 -16 30 3 45 79 7 36 30 106 52 155 21 50 39 95 39 102 0 16 -13 23 -28 14z"/>
<path d="M4568 1688 c-3 -7 0 -29 5 -49 6 -26 4 -53 -6 -95 -14 -52 -14 -61
-1 -74 14 -13 17 -13 29 4 8 10 19 43 25 73 15 70 -2 153 -30 153 -10 0 -20
-6 -22 -12z"/>
<path d="M4576 1274 c-3 -9 -6 -33 -6 -54 0 -51 8 -70 30 -70 22 0 30 19 30
70 0 51 -8 70 -30 70 -10 0 -21 -7 -24 -16z"/>
<path d="M4345 970 c-22 -25 -32 -104 -15 -125 18 -22 30 -18 30 10 0 14 7 42
15 62 15 35 12 73 -4 73 -4 0 -16 -9 -26 -20z"/>
<path d="M4250 875 c0 -18 5 -25 20 -25 15 0 20 7 20 25 0 18 -5 25 -20 25
-15 0 -20 -7 -20 -25z"/>
<path d="M4510 775 c0 -18 5 -25 20 -25 15 0 20 7 20 25 0 18 -5 25 -20 25
-15 0 -20 -7 -20 -25z"/>
</g>
</svg>
