<svg xmlns="http://www.w3.org/2000/svg" xmlns:xlink="http://www.w3.org/1999/xlink" width="166.57" height="183.277" viewBox="0 0 166.57 183.277">
  <defs>
    <filter id="Tracé_8611" x="0" y="42.661" width="142.405" height="114.449" filterUnits="userSpaceOnUse">
      <feOffset dy="3" input="SourceAlpha"/>
      <feGaussianBlur stdDeviation="3" result="blur"/>
      <feFlood flood-opacity="0.161"/>
      <feComposite operator="in" in2="blur"/>
      <feComposite in="SourceGraphic"/>
    </filter>
    <filter id="Tracé_8612" x="0" y="77.56" width="166.57" height="105.717" filterUnits="userSpaceOnUse">
      <feOffset dy="3" input="SourceAlpha"/>
      <feGaussianBlur stdDeviation="3" result="blur-2"/>
      <feFlood flood-opacity="0.161"/>
      <feComposite operator="in" in2="blur-2"/>
      <feComposite in="SourceGraphic"/>
    </filter>
  </defs>
  <g id="Groupe_175" data-name="Groupe 175" transform="translate(-6.753 35.07)">
    <g id="Groupe_174" data-name="Groupe 174" transform="translate(15.753 -69.698)">
      <g id="Groupe_173" data-name="Groupe 173" transform="translate(0)">
        <g transform="matrix(1, 0, 0, 1, -9, 34.63)" filter="url(#Tracé_8611)">
          <path id="Tracé_8611-2" data-name="Tracé 8611" d="M34.612,170.294H140.158V156.862H78l-6.246-14.493h-56v96.449Z" transform="translate(-6.75 -93.71)" fill="#5e5d5d"/>
        </g>
        <g id="icons8-image-file-480" transform="translate(20.969 34.628)">
          <path id="Tracé_8629" data-name="Tracé 8629" d="M266.567,51.624H174.13V-69.7h63.55l28.884,28.884Z" transform="translate(-174.13 69.698)" fill="#90caf9"/>
          <path id="Tracé_8630" data-name="Tracé 8630" d="M356.024-31.225H328.582V-58.667Z" transform="translate(-267.921 62.999)" fill="#e1f5fe"/>
          <path id="Tracé_8631" data-name="Tracé 8631" d="M238.479,77.4,218.26,106.284H258.7Z" transform="translate(-200.928 -19.627)" fill="#1565c0"/>
          <path id="Tracé_8632" data-name="Tracé 8632" d="M298.895,87.221l-14.442,19.063h28.884ZM309.006,77.4a4.333,4.333,0,1,0,4.33,4.335v0A4.333,4.333,0,0,0,309.006,77.4Z" transform="translate(-241.124 -19.627)" fill="#1976d2"/>
        </g>
        <g transform="matrix(1, 0, 0, 1, -9, 34.63)" filter="url(#Tracé_8612)">
          <path id="Tracé_8612-2" data-name="Tracé 8612" d="M140.158,318.944H15.753l24.165-87.717h124.4Z" transform="translate(-6.75 -147.67)" fill="#5e5d5d"/>
        </g>
        <g id="Groupe_163" data-name="Groupe 163" transform="translate(58.127 85.701)">
          <g id="Groupe_163-2" data-name="Groupe 163" transform="translate(28 14)">
            <path id="Tracé_8598" data-name="Tracé 8598" d="M228.28,159.824l-1.668-6.674a19.933,19.933,0,0,0-2.085-5c-.834-2.086-1.25-2.92-2.086-5-.417-1.25-1.668-4.171-2.086-5.839a6.467,6.467,0,0,1,.834-5,7.472,7.472,0,0,1,5.839-1.668c1.668.417,2.919,2.085,3.749,3.337a22.049,22.049,0,0,1,2.926,6.243,33.65,33.65,0,0,1,2.5,9.176l.417,2.085v-5a116.772,116.772,0,0,1,0-12.1c0-.417.417-2.5.417-2.92a5.276,5.276,0,0,1,2.919-4.17,7.106,7.106,0,0,1,5.839,0,5.275,5.275,0,0,1,2.919,4.17c0,.418.417,4.171.417,4.588v15.42c.417-2.919.417-13.347,1.25-16.267a5.921,5.921,0,0,1,3.337-3.748,5.859,5.859,0,0,1,5.839.834,9.155,9.155,0,0,1,2.086,5v14.6a20.312,20.312,0,0,1,1.25-2.919,12.835,12.835,0,0,1,1.668-3.75,23.919,23.919,0,0,1,1.669-2.919,8.483,8.483,0,0,1,2.919-2.5,4.339,4.339,0,0,1,5.423,2.5c.417.833,0,2.919,0,4.588a51.077,51.077,0,0,1-1.669,6.674,37.59,37.59,0,0,0-1.25,6.674c-.417,1.668-.833,5.839-1.668,7.509a25.346,25.346,0,0,1-2.917,5.84s-4.588,5-5,7.508a17.279,17.279,0,0,0-.417,4.171,23.038,23.038,0,0,0,.418,3.746H232.45s.834-4.171-.833-5.839l-4.589-4.589-3.337-3.749c-1.25-1.668-2.5-4.588-5-8.342-1.25-2.085-4.17-4.588-5.423-6.674a8.717,8.717,0,0,1-.834-5.423,4.888,4.888,0,0,1,5.839-3.337,7.693,7.693,0,0,1,5,2.086c.834.834,2.5,2.086,3.337,2.919s.833,1.25,1.668,2.086v1.668" transform="translate(-212.313 -126.674)" fill="#fff" stroke="#002f80" stroke-linecap="round" stroke-linejoin="round" stroke-width="3"/>
          </g>
        </g>
      </g>
    </g>
  </g>
</svg>
