<svg xmlns="http://www.w3.org/2000/svg" xmlns:xlink="http://www.w3.org/1999/xlink" width="239.021" height="143" viewBox="0 0 239.021 143">
  <defs>
    <filter id="Rectangle_216" x="145.021" y="0" width="94" height="143" filterUnits="userSpaceOnUse">
      <feOffset dy="3" input="SourceAlpha"/>
      <feGaussianBlur stdDeviation="3" result="blur"/>
      <feFlood flood-opacity="0.161"/>
      <feComposite operator="in" in2="blur"/>
      <feComposite in="SourceGraphic"/>
    </filter>
  </defs>
  <g id="Groupe_180" data-name="Groupe 180" transform="translate(-950.979 -671.285)">
    <g id="mobile-phone-svgrepo-com" transform="translate(1078 675.16)">
      <g transform="matrix(1, 0, 0, 1, -127.02, -3.88)" filter="url(#Rectangle_216)">
        <rect id="Rectangle_216-2" data-name="Rectangle 216" width="76" height="125" transform="translate(154.02 6)" fill="#fff"/>
      </g>
      <path id="mobile--phone_1_" d="M81.3,125.56H8.1A1.463,1.463,0,0,1,6.64,124.1V2.1A1.463,1.463,0,0,1,8.1.64H81.3A1.463,1.463,0,0,1,82.763,2.1V124.1A1.463,1.463,0,0,1,81.3,125.56ZM9.568,122.632H79.835V97.1H9.568Zm0-28.465H79.835V3.568H9.568Zm39.2,15.7A4.066,4.066,0,1,0,44.7,113.93,4.068,4.068,0,0,0,48.768,109.864Z" transform="translate(20.361 1.962)" fill="#5e5d5d"/>
    </g>
    <g id="file-svgrepo-com" transform="matrix(0.966, -0.259, 0.259, 0.966, 950.979, 710.68)">
      <path id="Tracé_8622" data-name="Tracé 8622" d="M41.221,11.015,30.523.318a1.072,1.072,0,0,0-.8-.318H1.075A1.075,1.075,0,0,0,0,1.075V50.663a1.075,1.075,0,0,0,1.075,1.075h39.39a1.075,1.075,0,0,0,1.075-1.075V11.78A1.048,1.048,0,0,0,41.221,11.015ZM37.869,10.7H30.835V3.67ZM39.39,49.587H2.15V2.15H28.684v9.63a1.075,1.075,0,0,0,1.075,1.075H39.39V49.587Z" transform="translate(0 0)"/>
      <path id="Tracé_8623" data-name="Tracé 8623" d="M0,5.7,7.574,9.273V6.967l-5-2.369,5-2.306V0L0,3.569Z" transform="translate(7.258 22.975)"/>
      <path id="Tracé_8624" data-name="Tracé 8624" d="M0,14.292H2.2L8.743,0H6.53Z" transform="translate(16.406 21.214)"/>
      <path id="Tracé_8625" data-name="Tracé 8625" d="M0,2.291,5,4.6,0,6.967V9.273L7.574,5.7V3.569L0,0Z" transform="translate(26.708 22.975)"/>
    </g>
    <g id="icons8-image-file-480" transform="matrix(0.966, 0.259, -0.259, 0.966, 997.444, 701.924)">
      <path id="Tracé_8629" data-name="Tracé 8629" d="M41.987,52.674H0V0H28.866l13.12,12.54Z" transform="translate(0 0)" fill="#90caf9"/>
      <path id="Tracé_8630" data-name="Tracé 8630" d="M10.839,10.839H0V0Z" transform="translate(29.436 1.711)" fill="#e1f5fe"/>
      <path id="Tracé_8631" data-name="Tracé 8631" d="M7.986,0,0,11.408H15.972Z" transform="translate(8.671 25.79)" fill="#1565c0"/>
      <path id="Tracé_8632" data-name="Tracé 8632" d="M5.7,3.879,0,11.408H11.408ZM9.7,0a1.711,1.711,0,1,0,1.71,1.712h0A1.711,1.711,0,0,0,9.7,0Z" transform="translate(20.848 25.79)" fill="#1976d2"/>
    </g>
    <g id="Polygone_4" data-name="Polygone 4" transform="translate(1093.5 726.473) rotate(90)" fill="#fff">
      <path d="M 19 13 L 2 13 L 10.5 1.666667103767395 L 19 13 Z" stroke="none"/>
      <path d="M 10.5 3.333333969116211 L 4 12 L 17 12 L 10.5 3.333333969116211 M 10.5 9.5367431640625e-07 L 21 14 L 0 14 L 10.5 9.5367431640625e-07 Z" stroke="none" fill="#002f80"/>
    </g>
    <g id="Polygone_7" data-name="Polygone 7" transform="translate(1076.5 728.973) rotate(90)" fill="#fff">
      <path d="M 15.01811027526855 10.5 L 0.9818900227546692 10.5 L 8 0.8500992059707642 L 15.01811027526855 10.5 Z" stroke="none"/>
      <path d="M 8 1.700187683105469 L 1.963772773742676 10 L 14.03622722625732 10 L 8 1.700187683105469 M 8 9.5367431640625e-07 L 16 11 L 0 11 L 8 9.5367431640625e-07 Z" stroke="none" fill="#5e5d5d"/>
    </g>
    <g id="Polygone_8" data-name="Polygone 8" transform="translate(1061.5 728.973) rotate(90)" fill="#fff">
      <path d="M 15.01810932159424 10.5 L 0.981889545917511 10.5 L 7.999999523162842 0.8500992059707642 L 15.01810932159424 10.5 Z" stroke="none"/>
      <path d="M 7.999999523162842 1.700187683105469 L 1.963771820068359 10 L 14.03622627258301 10 L 7.999999523162842 1.700187683105469 M 7.999999523162842 9.5367431640625e-07 L 16 11 L -9.5367431640625e-07 11 L 7.999999523162842 9.5367431640625e-07 Z" stroke="none" fill="#5e5d5d"/>
    </g>
  </g>
</svg>
