<svg xmlns="http://www.w3.org/2000/svg" width="110.963" height="139.571" viewBox="0 0 110.963 139.571">
  <g id="Groupe_120" data-name="Groupe 120" transform="translate(-1461.519 -511)">
    <g id="Groupe_156" data-name="Groupe 156" transform="translate(1383.46 393.378)">
      <g id="Rectangle_213" data-name="Rectangle 213" transform="translate(78.54 117.622)" fill="#fff" stroke="#707070" stroke-width="1">
        <rect width="108" height="37" rx="5" stroke="none"/>
        <rect x="0.5" y="0.5" width="107" height="36" rx="4.5" fill="none"/>
      </g>
      <path id="Tracé_8576" data-name="Tracé 8576" d="M45.979,88.569H33.844a1.115,1.115,0,0,1-1.3-1.3h0V63.947a1.113,1.113,0,0,1,1.3-1.3H45.979q4.5,0,6.673,1.8t2.176,5.542h0V81.226q0,3.742-2.176,5.541T45.979,88.569ZM45,69.527H40.721V81.765H45a1.678,1.678,0,0,0,1.275-.435A1.83,1.83,0,0,0,46.7,80h0V71.251a1.78,1.78,0,0,0-.42-1.312A1.736,1.736,0,0,0,45,69.527Zm25.235-.4h-2.7v4.606h2.7a1.419,1.419,0,0,0,1.26-.481,2.135,2.135,0,0,0,.323-1.207h0V70.825a2.141,2.141,0,0,0-.323-1.208,1.412,1.412,0,0,0-1.26-.488Zm-4,19.44H60.7a1.114,1.114,0,0,1-1.3-1.3h0V63.947a1.113,1.113,0,0,1,1.3-1.3H72.683q4.033,0,5.563,1.672a6.182,6.182,0,0,1,1.531,4.342h0v1.651a6.622,6.622,0,0,1-.451,2.58,2.818,2.818,0,0,1-1.565,1.53h0a4.709,4.709,0,0,1,3.148,1.582,5.293,5.293,0,0,1,1.208,3.638h0V87.27a1.114,1.114,0,0,1-1.3,1.3H75.241a1.114,1.114,0,0,1-1.3-1.3h0V81.765a1.866,1.866,0,0,0-.3-1.17,1.3,1.3,0,0,0-1.065-.382H67.537v7.058a1.114,1.114,0,0,1-1.3,1.3Zm29.3-18.36h0l-1.7,5.476H99.5l-1.694-5.476a1.361,1.361,0,0,0-.3-.465.552.552,0,0,0-.382-.153h-.9a.526.526,0,0,0-.375.153,1.291,1.291,0,0,0-.307.465ZM93.489,82.23v5.04a1.375,1.375,0,0,1-.3.989,1.356,1.356,0,0,1-.989.309H86.906a1.114,1.114,0,0,1-1.3-1.3h0v-9.5a10.56,10.56,0,0,1,.344-2.482,26.788,26.788,0,0,1,1.058-3.278h0l3.134-8.175a1.733,1.733,0,0,1,.666-.9,2.17,2.17,0,0,1,1.171-.284h9.684a2.088,2.088,0,0,1,1.133.284,1.733,1.733,0,0,1,.667.9h0l3.134,8.175a26.791,26.791,0,0,1,1.058,3.278A10.468,10.468,0,0,1,108,77.768h0v9.5a1.114,1.114,0,0,1-1.3,1.3h-5.437a1.539,1.539,0,0,1-1.058-.309,1.262,1.262,0,0,1-.344-.989h0v-5.04Zm38.736,6.338h-11.34q-4.5,0-6.673-1.8t-2.184-5.541h0V69.991q0-3.742,2.184-5.542t6.673-1.8h9a1.113,1.113,0,0,1,1.3,1.3h0V68.3a1.353,1.353,0,0,1-.305.989,1.381,1.381,0,0,1-.993.3H122.4a2.551,2.551,0,0,0-1.657.451,1.659,1.659,0,0,0-.54,1.35h0V80a1.853,1.853,0,0,0,.412,1.326,1.637,1.637,0,0,0,1.245.435h3.487V76.149a1.114,1.114,0,0,1,1.3-1.3h5.581a1.112,1.112,0,0,1,1.3,1.3h0V87.27a1.114,1.114,0,0,1-1.3,1.3Z" transform="translate(50.499 60.731)" fill="#707070"/>
      <path id="Tracé_8578" data-name="Tracé 8578" d="M111.7,119.119H95.275a1.217,1.217,0,0,1-.887-.283,1.173,1.173,0,0,1-.283-.887h0V97.05a1.17,1.17,0,0,1,.283-.887,1.209,1.209,0,0,1,.887-.283h5a1.206,1.206,0,0,1,.887.283,1.17,1.17,0,0,1,.283.887h0v15.976h4.418v-5.244a.97.97,0,0,1,1.15-1.15H111.7a1.222,1.222,0,0,1,.887.263,1.206,1.206,0,0,1,.283.887h0v10.166a1.014,1.014,0,0,1-1.17,1.17Zm20.98,0H117.71a1.214,1.214,0,0,1-.887-.283,1.166,1.166,0,0,1-.283-.887h0V97.05a1.163,1.163,0,0,1,.283-.887,1.206,1.206,0,0,1,.887-.283h14.967a1.014,1.014,0,0,1,1.171,1.17h0v3.773a1.217,1.217,0,0,1-.283.887,1.238,1.238,0,0,1-.889.261h-8.9v2.5h6.295a.968.968,0,0,1,1.149,1.15h0v3.45a1.234,1.234,0,0,1-.261.887,1.217,1.217,0,0,1-.887.283h-6.294v2.783h8.9a1.23,1.23,0,0,1,.889.263,1.214,1.214,0,0,1,.283.887h0v3.772a1.014,1.014,0,0,1-1.171,1.17Zm13.4-16.462h0l-1.512,4.9h5.063l-1.514-4.9a1.582,1.582,0,0,0-.283-.423.507.507,0,0,0-.344-.121h-.807a.48.48,0,0,0-.323.121,1.162,1.162,0,0,0-.281.423Zm-1.833,10.772v4.518a1.014,1.014,0,0,1-1.17,1.17h-4.741a1.214,1.214,0,0,1-.887-.283,1.166,1.166,0,0,1-.283-.887h0v-8.515a8.976,8.976,0,0,1,.323-2.219,23.632,23.632,0,0,1,.947-2.946h0l2.8-7.32a1.583,1.583,0,0,1,.605-.807,1.89,1.89,0,0,1,1.049-.261h8.675a1.808,1.808,0,0,1,1.008.261,1.565,1.565,0,0,1,.605.807h0l2.8,7.322a23.675,23.675,0,0,1,.949,2.946,9.057,9.057,0,0,1,.323,2.219h0v8.515a1.173,1.173,0,0,1-.283.887,1.217,1.217,0,0,1-.887.283H151.2a1.36,1.36,0,0,1-.949-.283,1.123,1.123,0,0,1-.3-.887h0v-4.52Zm26.689-11.741h-2.42v4.135h2.42a1.242,1.242,0,0,0,1.129-.444,1.879,1.879,0,0,0,.283-1.069h0V103.2a1.879,1.879,0,0,0-.283-1.069,1.238,1.238,0,0,0-1.129-.444Zm-3.589,17.43h-4.964a1.214,1.214,0,0,1-.887-.283,1.173,1.173,0,0,1-.283-.887h0V97.05a1.17,1.17,0,0,1,.283-.887,1.207,1.207,0,0,1,.887-.283h10.753q3.61,0,4.983,1.493a5.576,5.576,0,0,1,1.371,3.895h0v1.493a5.872,5.872,0,0,1-.4,2.3,2.529,2.529,0,0,1-1.413,1.371h0a4.234,4.234,0,0,1,2.825,1.433,4.673,4.673,0,0,1,1.089,3.248h0v6.836a1.014,1.014,0,0,1-1.17,1.17h-5a.993.993,0,0,1-1.15-1.17h0v-4.922a1.583,1.583,0,0,0-.283-1.049,1.132,1.132,0,0,0-.949-.344h-4.521v6.314a1.014,1.014,0,0,1-1.17,1.17Zm23.86,0h-4.843a1.214,1.214,0,0,1-.887-.283,1.173,1.173,0,0,1-.283-.887h0V97.05a1.17,1.17,0,0,1,.283-.887,1.207,1.207,0,0,1,.887-.283h3.348a2.421,2.421,0,0,1,1.049.2,2.381,2.381,0,0,1,.868.665h0l6.254,7.161V97.05a1.014,1.014,0,0,1,1.17-1.17h4.841a1.206,1.206,0,0,1,.887.283,1.222,1.222,0,0,1,.263.887h0v20.9a.993.993,0,0,1-1.15,1.17h-4.841a1.014,1.014,0,0,1-1.17-1.17h0v-3.953l-5.507-6.7v10.653a1.173,1.173,0,0,1-.283.887,1.218,1.218,0,0,1-.889.281Z" transform="translate(-16.041 138.06)" fill="#707070"/>
      <g id="Groupe_155" data-name="Groupe 155" transform="translate(123.545 224.86)">
        <path id="Tracé_8579" data-name="Tracé 8579" d="M135.932,95.886l-1.489,5.565a.675.675,0,0,1-.556.493,51.1,51.1,0,0,1-6.289.452.726.726,0,0,1-.184-.023.662.662,0,0,1-.17-.072,51.39,51.39,0,0,1-5.221-3.538.671.671,0,0,1-.235-.7l1.438-5.369,6.354,1.6Z" transform="translate(-118.543 -88.884)" fill="#00307e"/>
        <path id="Tracé_8580" data-name="Tracé 8580" d="M129.575,94.288l-2.166,8.085a.661.661,0,0,1-.17-.072,51.392,51.392,0,0,1-5.221-3.538.671.671,0,0,1-.235-.7l1.438-5.369Z" transform="translate(-118.54 -88.884)" fill="#00307e"/>
        <path id="Tracé_8581" data-name="Tracé 8581" d="M135.517,96.012l-.628,2.345q-2.981.218-6.2.275a2.458,2.458,0,0,1-1.31-.351q-2.715-1.631-5.155-3.284l.584-2.178Z" transform="translate(-118.185 -88.793)" fill="#00307e"/>
        <path id="Tracé_8582" data-name="Tracé 8582" d="M141.415,96.863a102.253,102.253,0,0,0-8.68-5.8,2.446,2.446,0,0,0-1.31-.351,102.937,102.937,0,0,0-10.418.679,1.009,1.009,0,0,0-.484,1.808A103.015,103.015,0,0,0,129.2,99a2.474,2.474,0,0,0,1.31.351,102.337,102.337,0,0,0,10.416-.68,1.008,1.008,0,0,0,.484-1.809Z" transform="translate(-119.782 -90.375)" fill="#00307e"/>
        <path id="Tracé_8583" data-name="Tracé 8583" d="M128.619,99.057a.922.922,0,0,0-1.129.649l-.458,1.718,1.78.477.458-1.718A.919.919,0,0,0,128.619,99.057Z" transform="translate(-114.572 -84.109)" fill="#fff"/>
        <path id="Tracé_8584" data-name="Tracé 8584" d="M128.9,99.185a.922.922,0,0,0-.826.68l-.458,1.718-.582-.156.461-1.718a.922.922,0,0,1,1.129-.649A.887.887,0,0,1,128.9,99.185Z" transform="translate(-114.573 -84.111)" fill="#fff"/>
        <path id="Tracé_8585" data-name="Tracé 8585" d="M141.765,96.735a103.53,103.53,0,0,0-8.71-5.818,2.8,2.8,0,0,0-1.489-.4c-2.367.04-4.667.149-6.838.323a.341.341,0,0,0-.31.365.335.335,0,0,0,.363.309c2.159-.172,4.446-.279,6.8-.321a2.124,2.124,0,0,1,1.131.3,102.857,102.857,0,0,1,8.652,5.777.671.671,0,0,1-.323,1.2c-1.612.193-3.3.347-5.042.461a.309.309,0,0,0-.089-.123l-4.572-3.9a.338.338,0,0,0-.438.514l4.176,3.562q-2.155.121-4.416.162a2.124,2.124,0,0,1-1.131-.3,102.432,102.432,0,0,1-8.652-5.777.67.67,0,0,1,.321-1.2c.731-.088,1.486-.168,2.243-.24a.338.338,0,1,0-.063-.674c-.764.072-1.524.153-2.261.242a1.346,1.346,0,0,0-.645,2.413q1.592,1.194,3.343,2.387l-.966,3.6a1.006,1.006,0,0,0,.354,1.058,51.8,51.8,0,0,0,5.256,3.562,1.015,1.015,0,0,0,.254.107,1.045,1.045,0,0,0,.277.035c1.764-.026,3.445-.124,5.011-.295l-.274,1.023a1.26,1.26,0,0,0-1.205.935l-.461,1.718a.338.338,0,0,0,.24.412l1.78.479a.339.339,0,0,0,.414-.24l.461-1.718a1.263,1.263,0,0,0-.577-1.41l.344-1.282c.2-.024.4-.051.6-.076a1.009,1.009,0,0,0,.837-.74l.139-.515a.338.338,0,1,0-.653-.175L135.5,103a.335.335,0,0,1-.277.244l-.314.042.98-3.662.524-.033-.426,1.586a.339.339,0,0,0,.654.175l.486-1.814c1.371-.1,2.7-.231,3.99-.388a1.346,1.346,0,0,0,.649-2.413ZM134.3,106.51l-.372,1.391-1.129-.3.373-1.392a.584.584,0,1,1,1.128.3Zm-.115-3.134c-1.619.184-3.366.291-5.207.317a.334.334,0,0,1-.179-.047,51.06,51.06,0,0,1-5.184-3.513.33.33,0,0,1-.118-.349l.9-3.38q2.276,1.527,4.776,3.031a2.788,2.788,0,0,0,.716.3,2.734,2.734,0,0,0,.774.095q2.31-.038,4.511-.165Z" transform="translate(-119.928 -90.519)" fill="#040506"/>
      </g>
      <text id="_" data-name="&amp;" transform="translate(111.54 212.122)" fill="#00307e" stroke="#000" stroke-width="1" font-size="59" font-family="GillSansMT-Bold, Gill Sans MT" font-weight="700"><tspan x="0" y="0">&amp;</tspan></text>
      <g id="openhand" transform="translate(-214.496 40.278)">
        <g id="Groupe_163" data-name="Groupe 163" transform="translate(338.851 99.876)">
          <path id="Tracé_8598" data-name="Tracé 8598" d="M13.468,18.4l-.49-1.962a5.861,5.861,0,0,0-.613-1.471c-.245-.613-.368-.858-.613-1.471-.123-.368-.49-1.226-.613-1.716a1.9,1.9,0,0,1,.245-1.471,2.2,2.2,0,0,1,1.716-.49,2.163,2.163,0,0,1,1.1.981,6.482,6.482,0,0,1,.858,1.839,9.893,9.893,0,0,1,.736,2.7l.123.613V14.473a34.369,34.369,0,0,1,0-3.555c0-.123.123-.736.123-.858A1.551,1.551,0,0,1,16.9,8.834a2.089,2.089,0,0,1,1.716,0,1.551,1.551,0,0,1,.858,1.226c0,.123.123,1.226.123,1.349v4.536c.123-.858.123-3.923.368-4.781a1.74,1.74,0,0,1,.981-1.1,1.722,1.722,0,0,1,1.716.245,2.691,2.691,0,0,1,.613,1.471v4.291a5.977,5.977,0,0,1,.368-.858,3.772,3.772,0,0,1,.49-1.1,7.033,7.033,0,0,1,.49-.858,2.5,2.5,0,0,1,.858-.736,1.275,1.275,0,0,1,1.594.736,4.877,4.877,0,0,1,0,1.349,15.027,15.027,0,0,1-.49,1.962,11.04,11.04,0,0,0-.368,1.962,14.255,14.255,0,0,1-.49,2.207,7.439,7.439,0,0,1-.858,1.716A7.44,7.44,0,0,0,23.4,24.649a5.078,5.078,0,0,0-.123,1.226,6.776,6.776,0,0,0,.123,1.1h-8.7s.245-1.226-.245-1.716L13.1,23.914l-.981-1.1c-.368-.49-.736-1.349-1.471-2.452-.368-.613-1.226-1.349-1.594-1.962A2.562,2.562,0,0,1,8.809,16.8a1.437,1.437,0,0,1,1.716-.981A2.262,2.262,0,0,1,12,16.435c.245.245.736.613.981.858s.245.368.49.613c0,.736,0,.858,0,.49" transform="translate(-8.761 -8.65)" fill="#002f80" stroke="#000" stroke-linecap="round" stroke-linejoin="round" stroke-width="0.75"/>
        </g>
      </g>
    </g>
  </g>
</svg>
