<svg xmlns="http://www.w3.org/2000/svg" width="110.963" height="139.571" viewBox="0 0 110.963 139.571">
  <g id="Groupe_120" data-name="Groupe 120" transform="translate(-1461.519 -511)">
    <g id="Groupe_156" data-name="Groupe 156" transform="translate(1383.46 393.378)">
      <g id="Rectangle_213" data-name="Rectangle 213" transform="translate(78.54 117.622)" fill="#fff" stroke="#707070" stroke-width="1">
        <rect width="108" height="37" rx="5" stroke="none"/>
        <rect x="0.5" y="0.5" width="107" height="36" rx="4.5" fill="none"/>
      </g>
      <path id="Tracé_8576" data-name="Tracé 8576" d="M45.979,88.569H33.844a1.115,1.115,0,0,1-1.3-1.3h0V63.947a1.113,1.113,0,0,1,1.3-1.3H45.979q4.5,0,6.673,1.8t2.176,5.542h0V81.226q0,3.742-2.176,5.541T45.979,88.569ZM45,69.527H40.721V81.765H45a1.678,1.678,0,0,0,1.275-.435A1.83,1.83,0,0,0,46.7,80h0V71.251a1.78,1.78,0,0,0-.42-1.312A1.736,1.736,0,0,0,45,69.527Zm25.235-.4h-2.7v4.606h2.7a1.419,1.419,0,0,0,1.26-.481,2.135,2.135,0,0,0,.323-1.207h0V70.825a2.141,2.141,0,0,0-.323-1.208,1.412,1.412,0,0,0-1.26-.488Zm-4,19.44H60.7a1.114,1.114,0,0,1-1.3-1.3h0V63.947a1.113,1.113,0,0,1,1.3-1.3H72.683q4.033,0,5.563,1.672a6.182,6.182,0,0,1,1.531,4.342h0v1.651a6.622,6.622,0,0,1-.451,2.58,2.818,2.818,0,0,1-1.565,1.53h0a4.709,4.709,0,0,1,3.148,1.582,5.293,5.293,0,0,1,1.208,3.638h0V87.27a1.114,1.114,0,0,1-1.3,1.3H75.241a1.114,1.114,0,0,1-1.3-1.3h0V81.765a1.866,1.866,0,0,0-.3-1.17,1.3,1.3,0,0,0-1.065-.382H67.537v7.058a1.114,1.114,0,0,1-1.3,1.3Zm29.3-18.36h0l-1.7,5.476H99.5l-1.694-5.476a1.361,1.361,0,0,0-.3-.465.552.552,0,0,0-.382-.153h-.9a.526.526,0,0,0-.375.153,1.291,1.291,0,0,0-.307.465ZM93.489,82.23v5.04a1.375,1.375,0,0,1-.3.989,1.356,1.356,0,0,1-.989.309H86.906a1.114,1.114,0,0,1-1.3-1.3h0v-9.5a10.56,10.56,0,0,1,.344-2.482,26.788,26.788,0,0,1,1.058-3.278h0l3.134-8.175a1.733,1.733,0,0,1,.666-.9,2.17,2.17,0,0,1,1.171-.284h9.684a2.088,2.088,0,0,1,1.133.284,1.733,1.733,0,0,1,.667.9h0l3.134,8.175a26.791,26.791,0,0,1,1.058,3.278A10.468,10.468,0,0,1,108,77.768h0v9.5a1.114,1.114,0,0,1-1.3,1.3h-5.437a1.539,1.539,0,0,1-1.058-.309,1.262,1.262,0,0,1-.344-.989h0v-5.04Zm38.736,6.338h-11.34q-4.5,0-6.673-1.8t-2.184-5.541h0V69.991q0-3.742,2.184-5.542t6.673-1.8h9a1.113,1.113,0,0,1,1.3,1.3h0V68.3a1.353,1.353,0,0,1-.305.989,1.381,1.381,0,0,1-.993.3H122.4a2.551,2.551,0,0,0-1.657.451,1.659,1.659,0,0,0-.54,1.35h0V80a1.853,1.853,0,0,0,.412,1.326,1.637,1.637,0,0,0,1.245.435h3.487V76.149a1.114,1.114,0,0,1,1.3-1.3h5.581a1.112,1.112,0,0,1,1.3,1.3h0V87.27a1.114,1.114,0,0,1-1.3,1.3Z" transform="translate(50.499 60.731)" fill="#707070"/>
      <path id="Tracé_8578" data-name="Tracé 8578" d="M111.7,119.119H95.275a1.217,1.217,0,0,1-.887-.283,1.173,1.173,0,0,1-.283-.887h0V97.05a1.17,1.17,0,0,1,.283-.887,1.209,1.209,0,0,1,.887-.283h5a1.206,1.206,0,0,1,.887.283,1.17,1.17,0,0,1,.283.887h0v15.976h4.418v-5.244a.97.97,0,0,1,1.15-1.15H111.7a1.222,1.222,0,0,1,.887.263,1.206,1.206,0,0,1,.283.887h0v10.166a1.014,1.014,0,0,1-1.17,1.17Zm20.98,0H117.71a1.214,1.214,0,0,1-.887-.283,1.166,1.166,0,0,1-.283-.887h0V97.05a1.163,1.163,0,0,1,.283-.887,1.206,1.206,0,0,1,.887-.283h14.967a1.014,1.014,0,0,1,1.171,1.17h0v3.773a1.217,1.217,0,0,1-.283.887,1.238,1.238,0,0,1-.889.261h-8.9v2.5h6.295a.968.968,0,0,1,1.149,1.15h0v3.45a1.234,1.234,0,0,1-.261.887,1.217,1.217,0,0,1-.887.283h-6.294v2.783h8.9a1.23,1.23,0,0,1,.889.263,1.214,1.214,0,0,1,.283.887h0v3.772a1.014,1.014,0,0,1-1.171,1.17Zm13.4-16.462h0l-1.512,4.9h5.063l-1.514-4.9a1.582,1.582,0,0,0-.283-.423.507.507,0,0,0-.344-.121h-.807a.48.48,0,0,0-.323.121,1.162,1.162,0,0,0-.281.423Zm-1.833,10.772v4.518a1.014,1.014,0,0,1-1.17,1.17h-4.741a1.214,1.214,0,0,1-.887-.283,1.166,1.166,0,0,1-.283-.887h0v-8.515a8.976,8.976,0,0,1,.323-2.219,23.632,23.632,0,0,1,.947-2.946h0l2.8-7.32a1.583,1.583,0,0,1,.605-.807,1.89,1.89,0,0,1,1.049-.261h8.675a1.808,1.808,0,0,1,1.008.261,1.565,1.565,0,0,1,.605.807h0l2.8,7.322a23.675,23.675,0,0,1,.949,2.946,9.057,9.057,0,0,1,.323,2.219h0v8.515a1.173,1.173,0,0,1-.283.887,1.217,1.217,0,0,1-.887.283H151.2a1.36,1.36,0,0,1-.949-.283,1.123,1.123,0,0,1-.3-.887h0v-4.52Zm26.689-11.741h-2.42v4.135h2.42a1.242,1.242,0,0,0,1.129-.444,1.879,1.879,0,0,0,.283-1.069h0V103.2a1.879,1.879,0,0,0-.283-1.069,1.238,1.238,0,0,0-1.129-.444Zm-3.589,17.43h-4.964a1.214,1.214,0,0,1-.887-.283,1.173,1.173,0,0,1-.283-.887h0V97.05a1.17,1.17,0,0,1,.283-.887,1.207,1.207,0,0,1,.887-.283h10.753q3.61,0,4.983,1.493a5.576,5.576,0,0,1,1.371,3.895h0v1.493a5.872,5.872,0,0,1-.4,2.3,2.529,2.529,0,0,1-1.413,1.371h0a4.234,4.234,0,0,1,2.825,1.433,4.673,4.673,0,0,1,1.089,3.248h0v6.836a1.014,1.014,0,0,1-1.17,1.17h-5a.993.993,0,0,1-1.15-1.17h0v-4.922a1.583,1.583,0,0,0-.283-1.049,1.132,1.132,0,0,0-.949-.344h-4.521v6.314a1.014,1.014,0,0,1-1.17,1.17Zm23.86,0h-4.843a1.214,1.214,0,0,1-.887-.283,1.173,1.173,0,0,1-.283-.887h0V97.05a1.17,1.17,0,0,1,.283-.887,1.207,1.207,0,0,1,.887-.283h3.348a2.421,2.421,0,0,1,1.049.2,2.381,2.381,0,0,1,.868.665h0l6.254,7.161V97.05a1.014,1.014,0,0,1,1.17-1.17h4.841a1.206,1.206,0,0,1,.887.283,1.222,1.222,0,0,1,.263.887h0v20.9a.993.993,0,0,1-1.15,1.17h-4.841a1.014,1.014,0,0,1-1.17-1.17h0v-3.953l-5.507-6.7v10.653a1.173,1.173,0,0,1-.283.887,1.218,1.218,0,0,1-.889.281Z" transform="translate(-16.041 138.06)" fill="#707070"/>
      <g id="Groupe_155" data-name="Groupe 155" transform="translate(121.33 224.031)">
        <path id="Tracé_8579" data-name="Tracé 8579" d="M137.226,96.178l-1.625,6.073a.737.737,0,0,1-.607.538,55.769,55.769,0,0,1-6.864.494.792.792,0,0,1-.2-.025.722.722,0,0,1-.186-.078,56.084,56.084,0,0,1-5.7-3.861.733.733,0,0,1-.257-.768l1.57-5.859,6.935,1.742Z" transform="translate(-118.249 -88.537)" fill="#fff"/>
        <path id="Tracé_8580" data-name="Tracé 8580" d="M130.289,94.434l-2.364,8.824a.721.721,0,0,1-.186-.078,56.089,56.089,0,0,1-5.7-3.861.733.733,0,0,1-.257-.768l1.57-5.859Z" transform="translate(-118.246 -88.537)" fill="#fff"/>
        <path id="Tracé_8581" data-name="Tracé 8581" d="M136.731,96.3l-.685,2.559q-3.253.238-6.768.3a2.682,2.682,0,0,1-1.43-.383Q124.884,97,122.222,95.2l.638-2.377Z" transform="translate(-117.817 -88.425)" fill="#00307e"/>
        <path id="Tracé_8582" data-name="Tracé 8582" d="M143.361,97.424a111.6,111.6,0,0,0-9.473-6.326,2.67,2.67,0,0,0-1.43-.383,112.346,112.346,0,0,0-11.37.741,1.1,1.1,0,0,0-.528,1.973,112.424,112.424,0,0,0,9.475,6.328,2.7,2.7,0,0,0,1.43.383,111.687,111.687,0,0,0,11.368-.743,1.1,1.1,0,0,0,.528-1.974Z" transform="translate(-119.751 -90.344)" fill="#fff"/>
        <path id="Tracé_8583" data-name="Tracé 8583" d="M128.764,99.06a1.006,1.006,0,0,0-1.233.708l-.5,1.875,1.943.52.5-1.875A1,1,0,0,0,128.764,99.06Z" transform="translate(-113.434 -82.746)" fill="#00307e"/>
        <path id="Tracé_8584" data-name="Tracé 8584" d="M129.066,99.2a1.006,1.006,0,0,0-.9.743l-.5,1.875-.635-.17.5-1.875a1.006,1.006,0,0,1,1.233-.708A.968.968,0,0,1,129.066,99.2Z" transform="translate(-113.434 -82.748)" fill="#fff"/>
        <path id="Tracé_8585" data-name="Tracé 8585" d="M143.76,97.3a112.987,112.987,0,0,0-9.505-6.349,3.057,3.057,0,0,0-1.625-.435c-2.584.044-5.093.163-7.463.352a.372.372,0,0,0-.339.4.366.366,0,0,0,.4.337c2.356-.188,4.853-.3,7.417-.35a2.318,2.318,0,0,1,1.235.331,112.257,112.257,0,0,1,9.442,6.305.733.733,0,0,1-.352,1.313c-1.759.21-3.6.379-5.5.5a.338.338,0,0,0-.1-.134l-4.99-4.253a.369.369,0,0,0-.478.561l4.557,3.887q-2.351.132-4.82.176a2.318,2.318,0,0,1-1.235-.331,111.794,111.794,0,0,1-9.442-6.3.731.731,0,0,1,.35-1.311c.8-.1,1.621-.184,2.448-.262a.369.369,0,1,0-.069-.735c-.833.078-1.663.167-2.467.264a1.469,1.469,0,0,0-.7,2.634q1.737,1.3,3.648,2.605l-1.055,3.934a1.1,1.1,0,0,0,.387,1.154,56.527,56.527,0,0,0,5.737,3.887,1.108,1.108,0,0,0,.278.117,1.14,1.14,0,0,0,.3.038c1.926-.029,3.759-.136,5.469-.322l-.3,1.116a1.375,1.375,0,0,0-1.315,1.02l-.5,1.875a.368.368,0,0,0,.262.45l1.943.523a.37.37,0,0,0,.452-.262l.5-1.875a1.379,1.379,0,0,0-.63-1.539l.375-1.4c.218-.027.436-.055.651-.083a1.1,1.1,0,0,0,.913-.808l.151-.563a.369.369,0,1,0-.712-.191l-.151.565a.365.365,0,0,1-.3.266l-.343.046,1.07-4,.572-.036-.465,1.731a.37.37,0,0,0,.714.191l.53-1.979c1.5-.113,2.951-.253,4.355-.423a1.469,1.469,0,0,0,.708-2.634Zm-8.149,10.668-.406,1.518-1.233-.329.408-1.52a.637.637,0,0,1,1.231.331Zm-.125-3.421c-1.767.2-3.673.318-5.683.346a.364.364,0,0,1-.2-.052,55.723,55.723,0,0,1-5.658-3.834.36.36,0,0,1-.128-.381l.988-3.689q2.484,1.667,5.212,3.308a3.043,3.043,0,0,0,.781.331,2.984,2.984,0,0,0,.844.1q2.521-.042,4.923-.18Z" transform="translate(-119.928 -90.519)" fill="#00307e" stroke="#00307e" stroke-width="0.5"/>
      </g>
      <text id="_" data-name="&amp;" transform="translate(111.54 212.122)" fill="#fff" stroke="#00307e" stroke-width="2" font-size="59" font-family="GillSansMT-Bold, Gill Sans MT" font-weight="700"><tspan x="0" y="0">&amp;</tspan></text>
      <g id="openhand" transform="translate(-217.092 43.988)">
        <g id="Groupe_163" data-name="Groupe 163" transform="translate(338.851 99.876)">
          <path id="Tracé_8598" data-name="Tracé 8598" d="M14.286,20.091l-.576-2.3a6.88,6.88,0,0,0-.72-1.727c-.288-.72-.432-1.007-.72-1.727-.144-.432-.576-1.439-.72-2.015a2.231,2.231,0,0,1,.288-1.727,2.579,2.579,0,0,1,2.015-.576,2.539,2.539,0,0,1,1.3,1.151,7.609,7.609,0,0,1,1.007,2.159,11.613,11.613,0,0,1,.863,3.166l.144.72V15.486a40.343,40.343,0,0,1,0-4.173c0-.144.144-.863.144-1.007a1.82,1.82,0,0,1,1.007-1.439,2.452,2.452,0,0,1,2.015,0A1.82,1.82,0,0,1,21.338,10.3c0,.144.144,1.439.144,1.583v5.325c.144-1.007.144-4.605.432-5.613a2.043,2.043,0,0,1,1.151-1.3,2.021,2.021,0,0,1,2.015.288,3.159,3.159,0,0,1,.72,1.727v5.037a7.017,7.017,0,0,1,.432-1.007,4.427,4.427,0,0,1,.576-1.3,8.255,8.255,0,0,1,.576-1.007,2.93,2.93,0,0,1,1.007-.863,1.5,1.5,0,0,1,1.871.863,5.724,5.724,0,0,1,0,1.583,17.639,17.639,0,0,1-.576,2.3,12.959,12.959,0,0,0-.432,2.3,16.734,16.734,0,0,1-.576,2.59A8.733,8.733,0,0,1,27.67,24.84a8.734,8.734,0,0,0-1.727,2.59A5.961,5.961,0,0,0,25.8,28.87a7.954,7.954,0,0,0,.144,1.3H15.725s.288-1.439-.288-2.015l-1.583-1.583-1.151-1.3c-.432-.576-.863-1.583-1.727-2.878-.432-.72-1.439-1.583-1.871-2.3a3.007,3.007,0,0,1-.288-1.871,1.687,1.687,0,0,1,2.015-1.151,2.655,2.655,0,0,1,1.727.72c.288.288.863.72,1.151,1.007s.288.432.576.72c0,.863,0,1.007,0,.576" transform="translate(-8.761 -8.65)" fill="#fff" stroke="#00307e" stroke-linecap="round" stroke-linejoin="round" stroke-width="1.2"/>
        </g>
      </g>
    </g>
  </g>
</svg>
