<svg xmlns="http://www.w3.org/2000/svg" width="694.393" height="128.099" viewBox="0 0 694.393 128.099">
  <g id="Groupe_156" data-name="Groupe 156" transform="translate(-13.54 -37.622)">
    <g id="Rectangle_212" data-name="Rectangle 212" transform="translate(13.54 50.152)" fill="#fff" stroke="#707070" stroke-width="2">
      <rect width="299" height="96" rx="15" stroke="none"/>
      <rect x="1" y="1" width="297" height="94" rx="14" fill="none"/>
    </g>
    <path id="Tracé_8576" data-name="Tracé 8576" d="M67.737,130.564H35.954a3.551,3.551,0,0,1-2.591-.808,3.544,3.544,0,0,1-.808-2.591h0V66.08a3.556,3.556,0,0,1,.808-2.6,3.551,3.551,0,0,1,2.591-.8H67.737q11.782,0,17.478,4.713t5.7,14.515h0v29.426q0,9.8-5.7,14.511T67.737,130.564ZM65.183,80.692H53.965v32.053H65.183a4.394,4.394,0,0,0,3.339-1.139,4.794,4.794,0,0,0,1.1-3.473h0V85.208a4.661,4.661,0,0,0-1.1-3.436,4.548,4.548,0,0,0-3.339-1.079Zm66.091-1.043H124.2V91.712h7.074q2.453,0,3.3-1.259a5.591,5.591,0,0,0,.845-3.16h0v-3.2a5.607,5.607,0,0,0-.845-3.165q-.848-1.275-3.3-1.277Zm-10.469,50.914H106.29a2.918,2.918,0,0,1-3.4-3.4h0V66.08a2.914,2.914,0,0,1,3.4-3.4h31.387q10.563,0,14.571,4.378t4.01,11.373h0v4.323a17.343,17.343,0,0,1-1.181,6.757,7.381,7.381,0,0,1-4.1,4.006h0a12.332,12.332,0,0,1,8.245,4.143q3.163,3.576,3.165,9.527h0v19.977a2.918,2.918,0,0,1-3.4,3.4H144.375a2.918,2.918,0,0,1-3.4-3.4h0V112.746a4.886,4.886,0,0,0-.785-3.064,3.4,3.4,0,0,0-2.788-1H124.2v18.484a2.917,2.917,0,0,1-3.395,3.4Zm76.748-48.085h0L193.112,96.82h14.809l-4.437-14.341a3.565,3.565,0,0,0-.785-1.217,1.445,1.445,0,0,0-1-.4H199.34a1.378,1.378,0,0,0-.983.4,3.38,3.38,0,0,0-.8,1.217Zm-5.384,31.484v13.2a3.6,3.6,0,0,1-.785,2.591,3.551,3.551,0,0,1-2.591.808H174.926a2.918,2.918,0,0,1-3.4-3.4h0V102.277a27.657,27.657,0,0,1,.9-6.5,70.16,70.16,0,0,1,2.77-8.585h0l8.209-21.41a4.538,4.538,0,0,1,1.745-2.356,5.684,5.684,0,0,1,3.068-.744H213.58a5.469,5.469,0,0,1,2.967.744,4.539,4.539,0,0,1,1.746,2.356h0l8.209,21.41a70.166,70.166,0,0,1,2.77,8.585,27.417,27.417,0,0,1,.9,6.5h0v24.888a2.918,2.918,0,0,1-3.4,3.4h-14.24a4.03,4.03,0,0,1-2.77-.808,3.306,3.306,0,0,1-.9-2.591h0v-13.2Zm101.452,16.6h-29.7q-11.782,0-17.478-4.718-5.719-4.713-5.719-14.511h0V81.909q0-9.8,5.719-14.515,5.691-4.713,17.478-4.713H287.49a2.914,2.914,0,0,1,3.4,3.4h0V77.49a3.544,3.544,0,0,1-.8,2.591,3.617,3.617,0,0,1-2.6.785h-19.6a6.682,6.682,0,0,0-4.341,1.181,4.346,4.346,0,0,0-1.415,3.537h0v22.549a4.854,4.854,0,0,0,1.079,3.473,4.287,4.287,0,0,0,3.261,1.139h9.132V98.037a2.918,2.918,0,0,1,3.4-3.4h14.617a2.913,2.913,0,0,1,3.395,3.4h0v29.127a2.917,2.917,0,0,1-3.395,3.4Z" fill="#707070"/>
    <path id="Tracé_8578" data-name="Tracé 8578" d="M140.188,156.768H97.179a3.187,3.187,0,0,1-2.324-.74,3.072,3.072,0,0,1-.74-2.324h0V98.968a3.065,3.065,0,0,1,.74-2.324,3.167,3.167,0,0,1,2.324-.74h13.1a3.159,3.159,0,0,1,2.324.74,3.065,3.065,0,0,1,.74,2.324h0V140.81h11.571V127.076a2.541,2.541,0,0,1,3.013-3.013h12.255a3.2,3.2,0,0,1,2.324.689,3.159,3.159,0,0,1,.74,2.324h0V153.7a2.655,2.655,0,0,1-3.064,3.064Zm54.948,0h-39.2a3.179,3.179,0,0,1-2.324-.74,3.054,3.054,0,0,1-.74-2.324h0V98.968a3.047,3.047,0,0,1,.74-2.324,3.159,3.159,0,0,1,2.324-.74h39.2a2.655,2.655,0,0,1,3.068,3.064h0v9.881a3.186,3.186,0,0,1-.74,2.324,3.243,3.243,0,0,1-2.329.684h-23.3v6.55h16.486a2.536,2.536,0,0,1,3.009,3.013h0v9.035a3.231,3.231,0,0,1-.684,2.324,3.186,3.186,0,0,1-2.324.74H171.837v7.29h23.3a3.222,3.222,0,0,1,2.329.689,3.179,3.179,0,0,1,.74,2.324h0V153.7a2.655,2.655,0,0,1-3.068,3.064Zm35.1-43.115h0l-3.96,12.839h13.261l-3.964-12.839a4.144,4.144,0,0,0-.74-1.107,1.327,1.327,0,0,0-.9-.317H231.82a1.256,1.256,0,0,0-.845.317,3.043,3.043,0,0,0-.736,1.107Zm-4.8,28.213V153.7a2.655,2.655,0,0,1-3.064,3.064H209.954a3.179,3.179,0,0,1-2.324-.74,3.054,3.054,0,0,1-.74-2.324h0V131.4a23.505,23.505,0,0,1,.845-5.811,61.894,61.894,0,0,1,2.481-7.717h0L217.561,98.7a4.147,4.147,0,0,1,1.585-2.113,4.949,4.949,0,0,1,2.747-.684h22.719a4.736,4.736,0,0,1,2.641.684,4.1,4.1,0,0,1,1.585,2.113h0l7.345,19.178a62,62,0,0,1,2.485,7.717,23.721,23.721,0,0,1,.845,5.811h0v22.3a3.072,3.072,0,0,1-.74,2.324,3.187,3.187,0,0,1-2.324.74H243.661a3.563,3.563,0,0,1-2.485-.74,2.94,2.94,0,0,1-.79-2.324h0V141.867Zm69.9-30.749H289v10.831h6.339q2.219,0,2.958-1.162a4.922,4.922,0,0,0,.74-2.8h0v-2.9a4.921,4.921,0,0,0-.74-2.8q-.737-1.165-2.958-1.162Zm-9.4,45.65h-13a3.179,3.179,0,0,1-2.324-.74,3.072,3.072,0,0,1-.74-2.324h0V98.968a3.065,3.065,0,0,1,.74-2.324,3.16,3.16,0,0,1,2.324-.74H301.1q9.454,0,13.05,3.909a14.6,14.6,0,0,1,3.592,10.2h0v3.909a15.379,15.379,0,0,1-1.056,6.022,6.624,6.624,0,0,1-3.7,3.592h0a11.089,11.089,0,0,1,7.4,3.753,12.238,12.238,0,0,1,2.853,8.507h0v17.9a2.655,2.655,0,0,1-3.064,3.064h-13.1a2.6,2.6,0,0,1-3.013-3.064h0V140.81a4.145,4.145,0,0,0-.74-2.747,2.964,2.964,0,0,0-2.485-.9H288.994V153.7a2.655,2.655,0,0,1-3.064,3.064Zm62.49,0H335.742a3.179,3.179,0,0,1-2.324-.74,3.072,3.072,0,0,1-.74-2.324h0V98.968a3.065,3.065,0,0,1,.74-2.324,3.16,3.16,0,0,1,2.324-.74h8.769a6.341,6.341,0,0,1,2.747.528,6.235,6.235,0,0,1,2.274,1.741h0l16.38,18.755V98.968a2.655,2.655,0,0,1,3.064-3.064h12.678a3.159,3.159,0,0,1,2.324.74,3.2,3.2,0,0,1,.689,2.324h0V153.7a2.6,2.6,0,0,1-3.013,3.064H368.976a2.655,2.655,0,0,1-3.064-3.064h0V143.346l-14.424-17.538v27.9a3.072,3.072,0,0,1-.74,2.324,3.191,3.191,0,0,1-2.328.736Z" transform="translate(323.216 -26.192)" fill="#707070"/>
    <g id="Groupe_155" data-name="Groupe 155" transform="translate(533.317 45.155)">
      <path id="Tracé_8579" data-name="Tracé 8579" d="M158.871,101.057l-3.9,14.575a1.768,1.768,0,0,1-1.456,1.291,133.831,133.831,0,0,1-16.472,1.185,1.9,1.9,0,0,1-.482-.06,1.732,1.732,0,0,1-.446-.188A134.592,134.592,0,0,1,122.44,108.6a1.758,1.758,0,0,1-.616-1.842l3.767-14.061,16.642,4.18Z" transform="translate(-113.324 -82.723)" fill="#fff" stroke="#00307e" stroke-width="1"/>
      <path id="Tracé_8580" data-name="Tracé 8580" d="M142.229,96.872l-5.673,21.176a1.732,1.732,0,0,1-.446-.188,134.594,134.594,0,0,1-13.675-9.265,1.758,1.758,0,0,1-.616-1.842l3.767-14.061Z" transform="translate(-113.324 -82.723)" fill="#fff" stroke="#00307e" stroke-width="1"/>
      <path id="Tracé_8581" data-name="Tracé 8581" d="M157.041,101.181l-1.645,6.142q-7.807.572-16.243.721a6.437,6.437,0,0,1-3.431-.919q-7.111-4.272-13.5-8.6l1.53-5.705Z" transform="translate(-111.645 -82.277)" fill="#00307e"/>
      <path id="Tracé_8582" data-name="Tracé 8582" d="M175.894,106.816A267.81,267.81,0,0,0,153.16,91.635a6.407,6.407,0,0,0-3.431-.919,269.594,269.594,0,0,0-27.285,1.778,2.642,2.642,0,0,0-1.268,4.736,269.8,269.8,0,0,0,22.738,15.186,6.479,6.479,0,0,0,3.431.919,268.023,268.023,0,0,0,27.281-1.782,2.641,2.641,0,0,0,1.268-4.737Z" transform="translate(-119.23 -89.828)" fill="#fff" stroke="#00307e" stroke-width="1"/>
      <path id="Tracé_8583" data-name="Tracé 8583" d="M131.189,99.109a2.414,2.414,0,0,0-2.958,1.7l-1.2,4.5,4.662,1.249,1.2-4.5a2.408,2.408,0,0,0-1.7-2.949Z" transform="translate(-94.396 -59.962)" fill="#00307e"/>
      <path id="Tracé_8584" data-name="Tracé 8584" d="M131.918,99.439a2.415,2.415,0,0,0-2.164,1.782l-1.2,4.5-1.525-.409,1.208-4.5a2.414,2.414,0,0,1,2.958-1.7,2.323,2.323,0,0,1,.723.327Z" transform="translate(-94.4 -59.962)" fill="#fff"/>
      <path id="Tracé_8585" data-name="Tracé 8585" d="M177.12,106.8a271.148,271.148,0,0,0-22.811-15.237,7.337,7.337,0,0,0-3.9-1.043c-6.2.106-12.223.39-17.91.845a.892.892,0,0,0-.813.955.878.878,0,0,0,.951.808c5.655-.45,11.645-.73,17.8-.841a5.563,5.563,0,0,1,2.963.795,269.4,269.4,0,0,1,22.66,15.131,1.758,1.758,0,0,1-.845,3.151c-4.221.5-8.636.91-13.206,1.208a.81.81,0,0,0-.234-.322L149.8,102.043a.885.885,0,0,0-1.148,1.346l10.937,9.329q-5.643.317-11.566.423a5.564,5.564,0,0,1-2.963-.8,268.279,268.279,0,0,1-22.66-15.13,1.755,1.755,0,0,1,.841-3.147c1.915-.23,3.891-.441,5.875-.629a.886.886,0,1,0-.165-1.764c-2,.188-3.992.4-5.921.634a3.525,3.525,0,0,0-1.69,6.321q4.169,3.128,8.755,6.252l-2.531,9.44a2.635,2.635,0,0,0,.928,2.77,135.658,135.658,0,0,0,13.767,9.329,2.659,2.659,0,0,0,.666.28,2.735,2.735,0,0,0,.726.092c4.621-.069,9.022-.326,13.124-.772l-.717,2.678a3.3,3.3,0,0,0-3.156,2.448l-1.208,4.5a.884.884,0,0,0,.629,1.079l4.662,1.254a.889.889,0,0,0,1.084-.629l1.208-4.5a3.309,3.309,0,0,0-1.511-3.693l.9-3.358c.524-.064,1.047-.133,1.562-.2a2.643,2.643,0,0,0,2.191-1.938l.363-1.35a.885.885,0,1,0-1.709-.459l-.363,1.355a.877.877,0,0,1-.726.638l-.822.11,2.568-9.591c.459-.028.919-.06,1.373-.087l-1.116,4.153a.887.887,0,0,0,1.713.459l1.272-4.75c3.592-.271,7.083-.606,10.45-1.015a3.525,3.525,0,0,0,1.7-6.321Zm-19.555,25.6-.974,3.643-2.958-.79.978-3.647a1.53,1.53,0,1,1,2.954.795Zm-.3-8.209c-4.24.482-8.815.763-13.638.831a.874.874,0,0,1-.469-.124,133.727,133.727,0,0,1-13.578-9.2.864.864,0,0,1-.308-.914l2.37-8.852q5.96,4,12.508,7.938a7.3,7.3,0,0,0,1.874.795,7.161,7.161,0,0,0,2.026.248q6.05-.1,11.815-.432Z" transform="translate(-119.923 -90.522)" fill="#00307e" stroke="#00307e" stroke-width="1"/>
    </g>
    <text id="_" data-name="&amp;" transform="translate(327.331 129.622)" fill="#fff" stroke="#00307e" stroke-width="4" font-size="95" font-family="GillSansMT-Bold, Gill Sans MT" font-weight="700"><tspan x="0" y="0">&amp;</tspan></text>
    <g id="openhand" transform="translate(-199.05 14.852)">
      <g id="Groupe_163" data-name="Groupe 163">
        <path id="Tracé_8598" data-name="Tracé 8598" d="M21.574,35.182l-1.335-5.34a15.954,15.954,0,0,0-1.669-4c-.667-1.669-1-2.336-1.669-4-.334-1-1.335-3.337-1.669-4.672a5.175,5.175,0,0,1,.667-4,5.981,5.981,0,0,1,4.672-1.335c1.335.334,2.336,1.669,3,2.67A17.645,17.645,0,0,1,25.912,19.5a26.93,26.93,0,0,1,2,7.342l.334,1.669v-4a93.557,93.557,0,0,1,0-9.678c0-.334.334-2,.334-2.336a4.222,4.222,0,0,1,2.336-3.337,5.687,5.687,0,0,1,4.672,0,4.222,4.222,0,0,1,2.336,3.337c0,.334.334,3.337.334,3.671V28.507c.334-2.336.334-10.68,1-13.016a4.737,4.737,0,0,1,2.67-3,4.688,4.688,0,0,1,4.672.667,7.326,7.326,0,0,1,1.669,4V28.841a16.271,16.271,0,0,1,1-2.336,10.267,10.267,0,0,1,1.335-3,19.144,19.144,0,0,1,1.335-2.336,6.794,6.794,0,0,1,2.336-2,3.472,3.472,0,0,1,4.339,2c.334.667,0,2.336,0,3.671a40.9,40.9,0,0,1-1.335,5.34,30.053,30.053,0,0,0-1,5.34c-.334,1.335-.667,4.672-1.335,6.007A20.251,20.251,0,0,1,52.611,46.2s-3.671,4-4,6.007a13.824,13.824,0,0,0-.334,3.337,18.446,18.446,0,0,0,.334,3h-23.7s.667-3.337-.667-4.672L20.572,50.2l-2.67-3c-1-1.335-2-3.671-4-6.675-1-1.669-3.337-3.671-4.339-5.34a6.973,6.973,0,0,1-.667-4.339,3.911,3.911,0,0,1,4.672-2.67,6.157,6.157,0,0,1,4,1.669c.667.667,2,1.669,2.67,2.336s.667,1,1.335,1.669c0,2,0,2.336,0,1.335" transform="translate(330.09 91.226)" fill="#fff" stroke="#002f80" stroke-linecap="round" stroke-linejoin="round" stroke-width="2.2"/>
      </g>
    </g>
  </g>
</svg>
