<svg xmlns="http://www.w3.org/2000/svg" width="53" height="40.019" viewBox="0 0 53 40.019">
  <g id="left_arrow" transform="translate(0.5 -5.981)">
    <path id="Tracé_8599" data-name="Tracé 8599" d="M49.195,20.186,24,15.986V7.5a1,1,0,0,0-1.643-.765l-22,18.5a1,1,0,0,0,0,1.53l22,18.5A1,1,0,0,0,24,44.5V36.014l25.195-4.2A3.43,3.43,0,0,0,52,28.5v-5A3.431,3.431,0,0,0,49.195,20.186ZM50,28.5a1.444,1.444,0,0,1-1.133,1.339L22.836,34.181a1,1,0,0,0-.836.986v7.186L2.554,26,22,9.647v7.186a1,1,0,0,0,.836.986l26.031,4.339A1.445,1.445,0,0,1,50,23.5Z" fill="#707070" stroke="#707070" stroke-width="1"/>
  </g>
</svg>
