<svg xmlns="http://www.w3.org/2000/svg" width="17.955" height="43.449" viewBox="0 0 17.955 43.449">
  <path id="Tracé_8555" data-name="Tracé 8555" d="M37.186,103.647c-.091-.36-2.221-8.833-2.531-9.851-.592-1.948-2.77-2.1-3.7-2.16l-.208-.015a2.276,2.276,0,0,1-.311-.047,4.6,4.6,0,1,0-4.213-.106l-.014.086a2.057,2.057,0,0,1-.39.068l-.208.015c-.93.064-3.108.212-3.7,2.16-.309,1.018-2.44,9.491-2.53,9.851l-.006.024a1.881,1.881,0,0,0,.888,2.293,2.176,2.176,0,0,0,.749.148c1.208,0,1.723-1.241,2.062-2.44l.372-1.2s-.218,3.936-.218,3.945l-.306,17.6a2.032,2.032,0,0,0,1.3,2.209l.051.013a1.932,1.932,0,0,0,.4.039,2.157,2.157,0,0,0,2.106-1.693c.33-1.137,1.116-9.55,1.507-13.9.391,4.346,1.177,12.759,1.507,13.9a2.157,2.157,0,0,0,2.106,1.693,1.94,1.94,0,0,0,.4-.039l.051-.013a2.033,2.033,0,0,0,1.3-2.209l-.307-17.6c0-.009-.218-3.946-.218-3.946l.367,1.189c.344,1.214.858,2.455,2.066,2.456h0a2.174,2.174,0,0,0,.75-.148,1.881,1.881,0,0,0,.888-2.293Z" transform="translate(-19.305 -82.825)" fill="#026b30"/>
</svg>
