<svg xmlns="http://www.w3.org/2000/svg" xmlns:xlink="http://www.w3.org/1999/xlink" width="123.702" height="187.124" viewBox="0 0 123.702 187.124">
  <defs>
    <filter id="Tracé_8629" x="0" y="68.707" width="123.702" height="118.417" filterUnits="userSpaceOnUse">
      <feOffset dy="3" input="SourceAlpha"/>
      <feGaussianBlur stdDeviation="3" result="blur"/>
      <feFlood flood-opacity="0.161"/>
      <feComposite operator="in" in2="blur"/>
      <feComposite in="SourceGraphic"/>
    </filter>
    <filter id="Tracé_8630" x="21.141" y="0" width="81.422" height="134.273" filterUnits="userSpaceOnUse">
      <feOffset dy="3" input="SourceAlpha"/>
      <feGaussianBlur stdDeviation="3" result="blur-2"/>
      <feFlood flood-opacity="0.161"/>
      <feComposite operator="in" in2="blur-2"/>
      <feComposite in="SourceGraphic"/>
    </filter>
  </defs>
  <g id="mic-svgrepo-com" transform="translate(6 6)">
    <g transform="matrix(1, 0, 0, 1, -6, -6)" filter="url(#Tracé_8629)">
      <path id="Tracé_8629-2" data-name="Tracé 8629" d="M8.285,6.5a5.285,5.285,0,0,1,5.285,5.285v10.57a42.281,42.281,0,1,0,84.562,0V11.785a5.285,5.285,0,1,1,10.57,0v10.57A52.851,52.851,0,0,1,61.136,74.942v21.4H92.847a5.285,5.285,0,0,1,0,10.57H18.855a5.285,5.285,0,0,1,0-10.57H50.566v-21.4A52.851,52.851,0,0,1,3,22.355V11.785A5.285,5.285,0,0,1,8.285,6.5Z" transform="translate(6 68.21)" fill="#313131"/>
    </g>
    <g transform="matrix(1, 0, 0, 1, -6, -6)" filter="url(#Tracé_8630)">
      <path id="Tracé_8630-2" data-name="Tracé 8630" d="M57.851,84.562a21.14,21.14,0,1,1-42.281,0V31.711a21.14,21.14,0,1,1,42.281,0ZM36.711,0A31.711,31.711,0,0,0,5,31.711V84.562a31.711,31.711,0,1,0,63.421,0V31.711A31.711,31.711,0,0,0,36.711,0Z" transform="translate(25.14 6)" fill="#313131"/>
    </g>
  </g>
</svg>
