<svg xmlns="http://www.w3.org/2000/svg" width="308.699" height="69.742" viewBox="0 0 308.699 69.742">
  <g id="Groupe_185" data-name="Groupe 185" transform="translate(-784.252 -14.13)">
    <g id="Groupe_184" data-name="Groupe 184" transform="translate(-712.798 -410.972)">
      <g id="svgexport-8" transform="translate(1766.667 425.103)">
        <path id="Tracé_8548" data-name="Tracé 8548" d="M665.938,335.972l-8.2,8.2a14.47,14.47,0,0,1,0,20.513l8.208,8.2a26.072,26.072,0,0,0-.006-36.917Z" transform="translate(-657.737 -319.557)" fill="#b200ff"/>
        <path id="Tracé_8549" data-name="Tracé 8549" d="M788.1,263.122a49.182,49.182,0,0,0-14.465-34.874l-8.208,8.208a37.668,37.668,0,0,1,0,53.332l8.208,8.2A49.188,49.188,0,0,0,788.1,263.122Z" transform="translate(-749.014 -228.248)" fill="#c341fc"/>
      </g>
      <g id="svgexport-8-2" data-name="svgexport-8" transform="translate(1536.132 494.844) rotate(180)">
        <path id="Tracé_8548-2" data-name="Tracé 8548" d="M8.2,0,0,8.2A14.471,14.471,0,0,1,4.263,18.458,14.471,14.471,0,0,1,0,28.715l8.208,8.2a26.04,26.04,0,0,0,7.656-18.458A26.03,26.03,0,0,0,8.2,0Z" transform="translate(0 16.415)" fill="#b200ff"/>
        <path id="Tracé_8549-2" data-name="Tracé 8549" d="M22.673,34.874A49.182,49.182,0,0,0,8.208,0L0,8.208A37.614,37.614,0,0,1,11.063,34.874,37.614,37.614,0,0,1,0,61.54l8.208,8.2A49.188,49.188,0,0,0,22.673,34.874Z" transform="translate(16.409)" fill="#c341fc"/>
      </g>
      <text id="Verbalize" transform="translate(1553.798 432.972)" fill="#b200ff" font-size="45" font-family="Corbel-Bold, Corbel" font-weight="700"><tspan x="5" y="40">Verbalize</tspan></text>
    </g>
  </g>
</svg>
