<svg xmlns="http://www.w3.org/2000/svg" width="108.039" height="108.039" viewBox="0 0 108.039 108.039">
  <g id="Calque_2" data-name="Calque 2" transform="translate(-7.51)">
    <g id="Calque_1" data-name="Calque 1" transform="translate(8.01 0.5)">
      <path id="Tracé_8573" data-name="Tracé 8573" d="M53.52,0A53.52,53.52,0,1,1,0,53.52,53.52,53.52,0,0,1,53.52,0Z" fill="#ff0029" stroke="#ff8000" stroke-width="1"/>
      <path id="Tracé_8574" data-name="Tracé 8574" d="M41.852,0A41.852,41.852,0,1,1,0,41.852,41.852,41.852,0,0,1,41.852,0Z" transform="translate(11.668 11.668)" fill="#fff" stroke="#ff8000" stroke-width="1"/>
      <path id="svgexport-5_7_" data-name="svgexport-5 (7)" d="M144.967,1.339,106.289,37.046H121.6l-19.055,29.6,38.677-35.707H125.912Z" transform="translate(-70.241 19.523)" fill="#fff700" stroke="#707070" stroke-width="1" opacity="0.5"/>
      <rect id="Rectangle_206" data-name="Rectangle 206" width="85.642" height="21.639" transform="translate(10.695 60.232)" fill="#fff" stroke="#717070" stroke-miterlimit="10" stroke-width="0.75"/>
      <text id="Succes" transform="translate(18.627 78.195)" fill="#ff0029" font-size="21" font-family="Rockwell"><tspan x="0" y="0">Succes</tspan></text>
      <text id="_150" data-name="150" transform="translate(23.214 51.157)" fill="#ff0029" font-size="37" font-family="Rockwell"><tspan x="0" y="0">150</tspan></text>
    </g>
  </g>
</svg>
