<svg xmlns="http://www.w3.org/2000/svg" xmlns:xlink="http://www.w3.org/1999/xlink" width="414" height="218.5" viewBox="0 0 414 218.5">
  <defs>
    <filter id="Rectangle_121" x="307" y="33" width="107" height="133" filterUnits="userSpaceOnUse">
      <feOffset dy="8" input="SourceAlpha"/>
      <feGaussianBlur stdDeviation="3" result="blur"/>
      <feFlood flood-opacity="0.161"/>
      <feComposite operator="in" in2="blur"/>
      <feComposite in="SourceGraphic"/>
    </filter>
    <filter id="Rectangle_120" x="0" y="33" width="107" height="133" filterUnits="userSpaceOnUse">
      <feOffset dy="8" input="SourceAlpha"/>
      <feGaussianBlur stdDeviation="3" result="blur-2"/>
      <feFlood flood-opacity="0.161"/>
      <feComposite operator="in" in2="blur-2"/>
      <feComposite in="SourceGraphic"/>
    </filter>
    <filter id="Rectangle_119" x="227.854" y="18" width="129.79" height="162" filterUnits="userSpaceOnUse">
      <feOffset dy="8" input="SourceAlpha"/>
      <feGaussianBlur stdDeviation="3" result="blur-3"/>
      <feFlood flood-opacity="0.161"/>
      <feComposite operator="in" in2="blur-3"/>
      <feComposite in="SourceGraphic"/>
    </filter>
    <filter id="Rectangle_214" x="54.673" y="15.786" width="129.79" height="162" filterUnits="userSpaceOnUse">
      <feOffset dy="8" input="SourceAlpha"/>
      <feGaussianBlur stdDeviation="3" result="blur-4"/>
      <feFlood flood-opacity="0.161"/>
      <feComposite operator="in" in2="blur-4"/>
      <feComposite in="SourceGraphic"/>
    </filter>
    <filter id="Rectangle_117" x="128" y="0" width="158" height="198" filterUnits="userSpaceOnUse">
      <feOffset dy="8" input="SourceAlpha"/>
      <feGaussianBlur stdDeviation="3" result="blur-5"/>
      <feFlood flood-opacity="0.161"/>
      <feComposite operator="in" in2="blur-5"/>
      <feComposite in="SourceGraphic"/>
    </filter>
  </defs>
  <g id="Groupe_134" data-name="Groupe 134" transform="translate(-1208 -470)">
    <g transform="matrix(1, 0, 0, 1, 1208, 470)" filter="url(#Rectangle_121)">
      <g id="Rectangle_121-2" data-name="Rectangle 121" transform="translate(316 34)" fill="#fff" stroke="#707070" stroke-width="2">
        <rect width="89" height="115" rx="15" stroke="none"/>
        <rect x="1" y="1" width="87" height="113" rx="14" fill="none"/>
      </g>
    </g>
    <g transform="matrix(1, 0, 0, 1, 1208, 470)" filter="url(#Rectangle_120)">
      <g id="Rectangle_120-2" data-name="Rectangle 120" transform="translate(9 34)" fill="#fff" stroke="#707070" stroke-width="2">
        <rect width="89" height="115" rx="15" stroke="none"/>
        <rect x="1" y="1" width="87" height="113" rx="14" fill="none"/>
      </g>
    </g>
    <g id="Groupe_122" data-name="Groupe 122" transform="translate(-94.5 120.125)">
      <g transform="matrix(1, 0, 0, 1, 1302.5, 349.88)" filter="url(#Rectangle_119)">
        <g id="Rectangle_119-2" data-name="Rectangle 119" transform="translate(236.85 19)" fill="#fff" stroke="#707070" stroke-width="2">
          <rect width="111.79" height="144" rx="15" stroke="none"/>
          <rect x="1" y="1" width="109.79" height="142" rx="14" fill="none"/>
        </g>
      </g>
      <text id="Verbalise" transform="translate(1607.748 444.375) rotate(90)" fill="#b200ff" font-size="30" font-family="Corbel-Bold, Corbel" font-weight="700"><tspan x="-59.26" y="29">Verbalise</tspan></text>
      <g id="svgexport-8" transform="translate(1607.298 373.67)">
        <path id="Tracé_8548" data-name="Tracé 8548" d="M662.615,335.972l-4.879,4.879a8.608,8.608,0,0,1,0,12.2l4.882,4.879a15.509,15.509,0,0,0,0-21.96Z" transform="translate(-657.737 -326.208)" fill="#b200ff"/>
        <path id="Tracé_8549" data-name="Tracé 8549" d="M778.91,248.992a29.256,29.256,0,0,0-8.6-20.745l-4.882,4.882a22.407,22.407,0,0,1,0,31.725l4.882,4.879a29.259,29.259,0,0,0,8.6-20.741Z" transform="translate(-755.662 -228.248)" fill="#c341fc"/>
      </g>
    </g>
    <g id="Groupe_120" data-name="Groupe 120" transform="translate(-180.019 -5)">
      <g transform="matrix(1, 0, 0, 1, 1388.02, 475)" filter="url(#Rectangle_214)">
        <g id="Rectangle_214-2" data-name="Rectangle 214" transform="translate(63.67 16.79)" fill="#fff" stroke="#707070" stroke-width="2">
          <rect width="111.79" height="144" rx="15" stroke="none"/>
          <rect x="1" y="1" width="109.79" height="142" rx="14" fill="none"/>
        </g>
      </g>
      <g id="Groupe_156" data-name="Groupe 156" transform="translate(1382.743 387.317)">
        <g id="Rectangle_213" data-name="Rectangle 213" transform="translate(78.465 117.622)" fill="#fff" stroke="#707070" stroke-width="1">
          <rect width="91.071" height="31.2" rx="5" stroke="none"/>
          <rect x="0.5" y="0.5" width="90.071" height="30.2" rx="4.5" fill="none"/>
        </g>
        <path id="Tracé_8576" data-name="Tracé 8576" d="M43.872,84.5H33.639a.941.941,0,0,1-1.094-1.094h0V63.741a.938.938,0,0,1,1.094-1.095H43.872q3.793,0,5.627,1.517a5.721,5.721,0,0,1,1.835,4.673h0v9.474A5.713,5.713,0,0,1,49.5,82.983Q47.664,84.5,43.872,84.5ZM43.05,68.446H39.438v10.32H43.05a1.415,1.415,0,0,0,1.075-.367,1.544,1.544,0,0,0,.354-1.118h0V69.9a1.5,1.5,0,0,0-.354-1.106,1.464,1.464,0,0,0-1.075-.347Zm21.279-.336H62.052v3.884h2.278a1.2,1.2,0,0,0,1.062-.405,1.8,1.8,0,0,0,.272-1.017h0v-1.03a1.805,1.805,0,0,0-.272-1.019,1.191,1.191,0,0,0-1.062-.411ZM60.958,84.5H56.285a.939.939,0,0,1-1.095-1.095h0V63.741a.938.938,0,0,1,1.095-1.095H66.391q3.4,0,4.691,1.41a5.213,5.213,0,0,1,1.291,3.662h0v1.392a5.584,5.584,0,0,1-.38,2.176,2.376,2.376,0,0,1-1.32,1.29h0a3.97,3.97,0,0,1,2.655,1.334,4.463,4.463,0,0,1,1.019,3.067h0v6.432A.939.939,0,0,1,73.252,84.5h-4.7a.939.939,0,0,1-1.095-1.095h0V78.766a1.573,1.573,0,0,0-.253-.987,1.1,1.1,0,0,0-.9-.322H62.052v5.951A.939.939,0,0,1,60.958,84.5Zm24.71-15.482h0l-1.43,4.618h4.768l-1.429-4.617a1.148,1.148,0,0,0-.253-.392A.465.465,0,0,0,87,68.5h-.76a.444.444,0,0,0-.316.129,1.088,1.088,0,0,0-.259.392ZM83.935,79.157v4.25a1.159,1.159,0,0,1-.253.834,1.143,1.143,0,0,1-.834.26H78.384a.94.94,0,0,1-1.095-1.095h0V75.4a8.9,8.9,0,0,1,.29-2.093,22.588,22.588,0,0,1,.892-2.764h0l2.643-6.893a1.461,1.461,0,0,1,.562-.759,1.83,1.83,0,0,1,.988-.24h8.166a1.761,1.761,0,0,1,.955.24,1.461,1.461,0,0,1,.562.759h0l2.643,6.893a22.591,22.591,0,0,1,.892,2.764,8.827,8.827,0,0,1,.29,2.093h0v8.013A.94.94,0,0,1,95.076,84.5H90.492a1.3,1.3,0,0,1-.892-.26,1.064,1.064,0,0,1-.29-.834h0v-4.25ZM116.6,84.5h-9.562q-3.793,0-5.627-1.519a5.7,5.7,0,0,1-1.841-4.672h0V68.837a5.708,5.708,0,0,1,1.841-4.673q1.832-1.517,5.627-1.517h7.588a.938.938,0,0,1,1.095,1.095h0v3.673a1.141,1.141,0,0,1-.258.834,1.165,1.165,0,0,1-.837.253h-6.311a2.151,2.151,0,0,0-1.4.38,1.4,1.4,0,0,0-.456,1.139h0v7.26a1.563,1.563,0,0,0,.347,1.118,1.38,1.38,0,0,0,1.05.367h2.94V74.03a.939.939,0,0,1,1.095-1.095H116.6a.938.938,0,0,1,1.093,1.095h0v9.378A.939.939,0,0,1,116.6,84.5Z" transform="translate(49.719 59.831)" fill="#707070"/>
        <path id="Tracé_8578" data-name="Tracé 8578" d="M108.938,115.474H95.091a1.026,1.026,0,0,1-.748-.238.989.989,0,0,1-.238-.748h0V96.864a.987.987,0,0,1,.238-.748,1.02,1.02,0,0,1,.748-.238H99.31a1.017,1.017,0,0,1,.748.238.987.987,0,0,1,.238.748h0v13.472h3.725v-4.422a.818.818,0,0,1,.97-.97h3.946a1.03,1.03,0,0,1,.748.222,1.017,1.017,0,0,1,.238.748h0v8.572a.855.855,0,0,1-.987.986Zm17.691,0H114.009a1.024,1.024,0,0,1-.748-.238.983.983,0,0,1-.238-.748h0V96.864a.981.981,0,0,1,.238-.748,1.017,1.017,0,0,1,.748-.238H126.63a.855.855,0,0,1,.988.987h0v3.181a1.026,1.026,0,0,1-.238.748,1.044,1.044,0,0,1-.75.22h-7.5v2.109h5.308a.817.817,0,0,1,.969.97h0V107a1.04,1.04,0,0,1-.22.748,1.026,1.026,0,0,1-.748.238h-5.308v2.347h7.5a1.037,1.037,0,0,1,.75.222,1.023,1.023,0,0,1,.238.748h0v3.18a.855.855,0,0,1-.988.987Zm11.3-13.882h0l-1.275,4.134h4.27l-1.276-4.134a1.334,1.334,0,0,0-.238-.356.427.427,0,0,0-.29-.1h-.68a.4.4,0,0,0-.272.1.979.979,0,0,0-.237.356Zm-1.545,9.084v3.81a.855.855,0,0,1-.987.986h-4a1.023,1.023,0,0,1-.748-.238.983.983,0,0,1-.238-.748h0v-7.18a7.568,7.568,0,0,1,.272-1.871,19.926,19.926,0,0,1,.8-2.485h0l2.365-6.173a1.335,1.335,0,0,1,.51-.68,1.593,1.593,0,0,1,.884-.22h7.315a1.525,1.525,0,0,1,.85.22,1.32,1.32,0,0,1,.51.68h0l2.365,6.175a19.964,19.964,0,0,1,.8,2.485,7.638,7.638,0,0,1,.272,1.871h0v7.18a.989.989,0,0,1-.238.748,1.026,1.026,0,0,1-.748.238h-4.117a1.147,1.147,0,0,1-.8-.238.947.947,0,0,1-.254-.748h0v-3.812Zm22.505-9.9H156.85v3.487h2.041a1.048,1.048,0,0,0,.952-.374,1.585,1.585,0,0,0,.238-.9h0v-.934a1.585,1.585,0,0,0-.238-.9,1.044,1.044,0,0,0-.952-.374Zm-3.026,14.7h-4.186a1.023,1.023,0,0,1-.748-.238.989.989,0,0,1-.238-.748h0V96.864a.987.987,0,0,1,.238-.748,1.018,1.018,0,0,1,.748-.238h9.068q3.044,0,4.2,1.259a4.7,4.7,0,0,1,1.157,3.284h0v1.259a4.952,4.952,0,0,1-.34,1.939,2.133,2.133,0,0,1-1.191,1.157h0a3.57,3.57,0,0,1,2.383,1.208,3.94,3.94,0,0,1,.919,2.739h0v5.764a.855.855,0,0,1-.987.986H162.67a.837.837,0,0,1-.97-.986h0v-4.15a1.335,1.335,0,0,0-.238-.884.954.954,0,0,0-.8-.29h-3.813v5.324a.855.855,0,0,1-.987.987Zm20.12,0H171.9a1.023,1.023,0,0,1-.748-.238.989.989,0,0,1-.238-.748h0V96.864a.987.987,0,0,1,.238-.748,1.017,1.017,0,0,1,.748-.238h2.823a2.042,2.042,0,0,1,.884.17,2.008,2.008,0,0,1,.732.561h0l5.274,6.038V96.864a.855.855,0,0,1,.986-.987h4.082a1.017,1.017,0,0,1,.748.238,1.03,1.03,0,0,1,.222.748h0v17.622a.837.837,0,0,1-.97.986H182.6a.855.855,0,0,1-.987-.986h0v-3.334l-4.644-5.647v8.983a.989.989,0,0,1-.238.748,1.027,1.027,0,0,1-.75.237Z" transform="translate(-16.041 119.829)" fill="#707070"/>
        <g id="Groupe_155" data-name="Groupe 155" transform="translate(114.547 207.351)">
          <path id="Tracé_8579" data-name="Tracé 8579" d="M134.8,95.631l-1.37,5.121a.621.621,0,0,1-.512.454,47.026,47.026,0,0,1-5.788.416.668.668,0,0,1-.169-.021.609.609,0,0,1-.157-.066A47.291,47.291,0,0,1,122,98.28a.618.618,0,0,1-.216-.647l1.324-4.941,5.848,1.469Z" transform="translate(-118.8 -89.188)" fill="#fff"/>
          <path id="Tracé_8580" data-name="Tracé 8580" d="M128.952,94.161l-1.993,7.441a.608.608,0,0,1-.157-.066A47.3,47.3,0,0,1,122,98.28a.618.618,0,0,1-.216-.647l1.324-4.941Z" transform="translate(-118.797 -89.188)" fill="#fff"/>
          <path id="Tracé_8581" data-name="Tracé 8581" d="M134.457,95.758l-.578,2.158q-2.743.2-5.708.253a2.262,2.262,0,0,1-1.206-.323q-2.5-1.5-4.744-3.022l.538-2Z" transform="translate(-118.507 -89.114)" fill="#00307e"/>
          <path id="Tracé_8582" data-name="Tracé 8582" d="M139.718,96.373a94.1,94.1,0,0,0-7.988-5.334,2.251,2.251,0,0,0-1.206-.323,94.735,94.735,0,0,0-9.588.625A.928.928,0,0,0,120.491,93a94.8,94.8,0,0,0,7.99,5.336,2.277,2.277,0,0,0,1.206.323,94.181,94.181,0,0,0,9.586-.626.928.928,0,0,0,.446-1.665Z" transform="translate(-119.809 -90.402)" fill="#fff"/>
          <path id="Tracé_8583" data-name="Tracé 8583" d="M128.492,99.055a.848.848,0,0,0-1.039.6l-.422,1.581,1.638.439.422-1.581A.846.846,0,0,0,128.492,99.055Z" transform="translate(-115.565 -85.298)" fill="#00307e"/>
          <path id="Tracé_8584" data-name="Tracé 8584" d="M128.747,99.173a.849.849,0,0,0-.76.626l-.422,1.581-.536-.144.424-1.581a.848.848,0,0,1,1.039-.6A.816.816,0,0,1,128.747,99.173Z" transform="translate(-115.565 -85.3)" fill="#fff"/>
          <path id="Tracé_8585" data-name="Tracé 8585" d="M140.024,96.24a95.274,95.274,0,0,0-8.015-5.354,2.578,2.578,0,0,0-1.37-.367c-2.179.037-4.295.137-6.293.3a.313.313,0,0,0-.286.336.309.309,0,0,0,.334.284c1.987-.158,4.092-.257,6.255-.3a1.955,1.955,0,0,1,1.041.279,94.661,94.661,0,0,1,7.962,5.317.618.618,0,0,1-.3,1.107c-1.483.177-3.035.32-4.64.424a.285.285,0,0,0-.082-.113l-4.208-3.587a.311.311,0,0,0-.4.473l3.843,3.278q-1.983.111-4.064.149a1.955,1.955,0,0,1-1.041-.279,94.269,94.269,0,0,1-7.962-5.316.617.617,0,0,1,.3-1.106c.673-.081,1.367-.155,2.064-.221a.311.311,0,1,0-.058-.62c-.7.066-1.4.141-2.081.223a1.239,1.239,0,0,0-.594,2.221q1.465,1.1,3.076,2.2l-.889,3.317a.926.926,0,0,0,.326.973,47.666,47.666,0,0,0,4.837,3.278.935.935,0,0,0,.234.1.961.961,0,0,0,.255.032c1.624-.024,3.17-.115,4.612-.271l-.252.941a1.16,1.16,0,0,0-1.109.86l-.424,1.581a.311.311,0,0,0,.221.379l1.638.441a.312.312,0,0,0,.381-.221l.424-1.581a1.163,1.163,0,0,0-.531-1.3l.316-1.18c.184-.022.368-.047.549-.07a.929.929,0,0,0,.77-.681l.128-.474a.311.311,0,1,0-.6-.161l-.127.476a.308.308,0,0,1-.255.224l-.289.039.9-3.37.482-.031-.392,1.459a.312.312,0,0,0,.6.161l.447-1.669c1.262-.1,2.489-.213,3.672-.357a1.239,1.239,0,0,0,.6-2.221Zm-6.871,9-.342,1.28-1.039-.278.344-1.281a.537.537,0,1,1,1.038.279Zm-.105-2.885c-1.49.169-3.1.268-4.792.292a.307.307,0,0,1-.165-.044,46.99,46.99,0,0,1-4.771-3.233.3.3,0,0,1-.108-.321l.833-3.11q2.094,1.406,4.4,2.789A2.566,2.566,0,0,0,129.1,99a2.517,2.517,0,0,0,.712.087q2.126-.035,4.152-.152Z" transform="translate(-119.928 -90.519)" fill="#00307e"/>
        </g>
        <text id="_" data-name="&amp;" transform="translate(106.292 196.93)" fill="#fff" stroke="#00307e" stroke-width="2" font-size="49" font-family="GillSansMT-Bold, Gill Sans MT" font-weight="700"><tspan x="0" y="0">&amp;</tspan></text>
        <g id="openhand" transform="translate(114.908 139.751)">
          <g id="Groupe_163" data-name="Groupe 163">
            <path id="Tracé_8598" data-name="Tracé 8598" d="M13.42,18.3l-.485-1.942a5.8,5.8,0,0,0-.607-1.456c-.243-.607-.364-.849-.607-1.456-.121-.364-.485-1.214-.607-1.7a1.882,1.882,0,0,1,.243-1.456,2.175,2.175,0,0,1,1.7-.485,2.141,2.141,0,0,1,1.092.971A6.416,6.416,0,0,1,15,12.594a9.793,9.793,0,0,1,.728,2.67l.121.607V14.414a34.02,34.02,0,0,1,0-3.519c0-.121.121-.728.121-.849a1.535,1.535,0,0,1,.849-1.214,2.068,2.068,0,0,1,1.7,0,1.535,1.535,0,0,1,.849,1.214c0,.121.121,1.214.121,1.335v4.49c.121-.849.121-3.883.364-4.733a1.722,1.722,0,0,1,.971-1.092,1.7,1.7,0,0,1,1.7.243,2.664,2.664,0,0,1,.607,1.456v4.247a5.917,5.917,0,0,1,.364-.849,3.733,3.733,0,0,1,.485-1.092,6.961,6.961,0,0,1,.485-.849,2.47,2.47,0,0,1,.849-.728,1.262,1.262,0,0,1,1.578.728,4.827,4.827,0,0,1,0,1.335,14.874,14.874,0,0,1-.485,1.942,10.928,10.928,0,0,0-.364,1.942,14.111,14.111,0,0,1-.485,2.184,7.364,7.364,0,0,1-.849,1.7,7.365,7.365,0,0,0-1.456,2.184,5.027,5.027,0,0,0-.121,1.214,6.707,6.707,0,0,0,.121,1.092H14.633s.243-1.214-.243-1.7l-1.335-1.335-.971-1.092c-.364-.485-.728-1.335-1.456-2.427-.364-.607-1.214-1.335-1.578-1.942a2.536,2.536,0,0,1-.243-1.578,1.422,1.422,0,0,1,1.7-.971,2.239,2.239,0,0,1,1.456.607c.243.243.728.607.971.849s.243.364.485.607c0,.728,0,.849,0,.485" transform="translate(-8.761 -8.65)" fill="#fff" stroke="#00307e" stroke-linecap="round" stroke-linejoin="round" stroke-width="1"/>
          </g>
        </g>
      </g>
    </g>
    <g id="Groupe_120-2" data-name="Groupe 120" transform="translate(199 117)">
      <g transform="matrix(1, 0, 0, 1, 1009, 353)" filter="url(#Rectangle_117)">
        <g id="Rectangle_117-2" data-name="Rectangle 117" transform="translate(137 1)" fill="#fff" stroke="#707070" stroke-width="2">
          <rect width="140" height="180" rx="15" stroke="none"/>
          <rect x="1" y="1" width="138" height="178" rx="14" fill="none"/>
        </g>
      </g>
      <text id="Flash" transform="translate(1150 427)" fill="#026b30" font-size="22" font-family="OCRAExtended, OCR A"><tspan x="0" y="0">Flash</tspan></text>
      <text id="Cards" transform="translate(1216 472)" fill="#026b30" font-size="22" font-family="OCRAExtended, OCR A"><tspan x="0" y="0">Cards</tspan></text>
      <path id="svgexport-5_7_" data-name="svgexport-5 (7)" d="M134.546,1.339,105.37,30.5h11.55L102.546,54.685,131.722,25.52h-11.55Z" transform="translate(1098.454 416.161)" fill="#fff700" stroke="#707070" stroke-width="3"/>
    </g>
  </g>
</svg>
