<svg id="Calque_1" data-name="Calque 1" xmlns="http://www.w3.org/2000/svg" viewBox="0 0 396 180"><defs><style>.cls-1,.cls-8{fill:#fff;}.cls-2{fill:none;stroke-width:2px;}.cls-11,.cls-2{stroke:#707070;}.cls-10,.cls-3,.cls-4,.cls-9{isolation:isolate;}.cls-4{font-size:30px;}.cls-4,.cls-6{fill:#b200ff;}.cls-4,.cls-9{font-family:Corbel-Bold, Corbel;font-weight:700;}.cls-5{letter-spacing:-0.06em;}.cls-7{fill:#c341fc;}.cls-8{stroke:#6563ff;}.cls-11,.cls-8{stroke-width:3px;}.cls-9{font-size:17px;fill:#6563ff;}.cls-10{font-size:22px;fill:#026b30;font-family:'Courier New', monospace;}.cls-11{fill:#fff700;}</style></defs><g id="Groupe_134" data-name="Groupe 134"><g id="Rectangle_121-2" data-name="Rectangle 121-2"><rect class="cls-1" x="307" y="33" width="89" height="115" rx="15"/><rect class="cls-2" x="308" y="34" width="87" height="113" rx="14"/></g><g id="Rectangle_120-2" data-name="Rectangle 120-2"><rect class="cls-1" y="33" width="89" height="115" rx="15"/><rect class="cls-2" x="1" y="34" width="87" height="113" rx="14"/></g><g id="Groupe_122" data-name="Groupe 122"><g id="Rectangle_119-2" data-name="Rectangle 119-2"><rect class="cls-1" x="227.85" y="18.01" width="111.79" height="144" rx="15"/><rect class="cls-2" x="228.85" y="19.01" width="109.79" height="142" rx="14"/></g><g id="Verbalise" class="cls-3"><text class="cls-4" transform="translate(263.48 32.56) rotate(90)"><tspan class="cls-5">V</tspan><tspan x="17.37" y="0">erbalise</tspan></text></g><g id="svgexport-8"><path id="Tracé_8548" data-name="Tracé 8548" class="cls-6" d="M300.68,42.12,295.8,47a8.6,8.6,0,0,1,0,12.17l0,0,4.88,4.88a15.51,15.51,0,0,0,0-21.93l0,0Z" transform="translate(0 -9.56)"/><path id="Tracé_8549" data-name="Tracé 8549" class="cls-7" d="M319.05,53.1a29.28,29.28,0,0,0-8.6-20.74l-4.89,4.88a22.41,22.41,0,0,1,0,31.69l0,0,4.89,4.88A29.28,29.28,0,0,0,319.05,53.1Z" transform="translate(0 -9.56)"/></g></g><g id="Groupe_121" data-name="Groupe 121"><g id="Rectangle_118-2" data-name="Rectangle 118-2"><rect class="cls-1" x="56" y="18" width="112" height="144" rx="15"/><rect class="cls-2" x="57" y="19" width="110" height="142" rx="14"/></g><g id="svgexport-5"><path id="Tracé_8547" data-name="Tracé 8547" class="cls-8" d="M106.3,112.08a6,6,0,0,0,4.22,10.3,6.22,6.22,0,0,0,4.28-1.75,6.12,6.12,0,0,0,0-8.55A6.24,6.24,0,0,0,106.3,112.08Zm24.72-46a20.82,20.82,0,0,0-10.58-13.58,21.14,21.14,0,0,0-28.16,8.1,6,6,0,0,0,10.43,6,9,9,0,1,1,7.85,13.55h0a6,6,0,0,0-6,6v6l0,3a6,6,0,0,0,6,6h0a6,6,0,0,0,6-6h0v-4A21,21,0,0,0,131,66.12Z" transform="translate(0 -9.56)"/></g><g id="QCMs" class="cls-3"><text class="cls-9" transform="translate(89.17 134.01)">QCMs</text></g></g><g id="Groupe_120" data-name="Groupe 120"><g id="Rectangle_117-2" data-name="Rectangle 117-2"><rect class="cls-1" x="128" width="140" height="180" rx="15"/><rect class="cls-2" x="129" y="1" width="138" height="178" rx="14"/></g><g id="Flash" class="cls-3"><text class="cls-10" transform="translate(132 73)">Flash</text></g><g id="Cards" class="cls-3"><text class="cls-10" transform="translate(198 118)">Cards</text></g><path id="svgexport-5-2" data-name="svgexport-5" class="cls-11" d="M215,73.06l-29.18,29.16h11.55L183,126.41l29.18-29.17H200.63Z" transform="translate(0 -9.56)"/></g></g></svg>