<svg xmlns="http://www.w3.org/2000/svg" width="113.568" height="124.971" viewBox="0 0 113.568 124.971">
  <g id="Groupe_113" data-name="Groupe 113" transform="translate(-183.619 -620.274)">
    <path id="path218" d="M2811.7-1181.134a44.474,44.474,0,0,1-44.473-44.475,44.474,44.474,0,0,1,44.473-44.474,44.473,44.473,0,0,1,44.473,44.474A44.473,44.473,0,0,1,2811.7-1181.134Zm40.811-83.951,4.816-5.738a1.577,1.577,0,0,0-.195-2.219l-6.61-5.545a1.573,1.573,0,0,0-2.218.194l-4.809,5.731a56.58,56.58,0,0,0-14.93-7.183v-9.425a4.528,4.528,0,0,0-4.529-4.529H2799.36a4.528,4.528,0,0,0-4.528,4.529v9.425a56.522,56.522,0,0,0-14.928,7.183l-4.811-5.731a1.573,1.573,0,0,0-2.218-.194l-6.61,5.545a1.578,1.578,0,0,0-.195,2.219l4.815,5.738a56.6,56.6,0,0,0-15.972,39.476,56.783,56.783,0,0,0,56.784,56.783,56.783,56.783,0,0,0,56.783-56.783,56.6,56.6,0,0,0-15.972-39.476" transform="translate(-2571.295 1914.071)" fill="#707070"/>
    <path id="path220" d="M3140.78-1086.984v37.754h37.754a37.754,37.754,0,0,0-37.754-37.754" transform="translate(-2900.377 1735.693)" fill="#5d00ff"/>
  </g>
</svg>
