<svg xmlns="http://www.w3.org/2000/svg" width="113.566" height="124.971" viewBox="0 0 113.566 124.971">
  <g id="Groupe_115" data-name="Groupe 115" transform="translate(-1509.546 -619.528)">
    <path id="path222" d="M1881.2-1086.984a37.752,37.752,0,0,0-37.754,37.754,37.754,37.754,0,0,0,37.754,37.756,37.754,37.754,0,0,0,37.754-37.756H1881.2v-37.754" transform="translate(-314.966 1736.385)" fill="red"/>
    <path id="path228" d="M730.147-1180.51a45.1,45.1,0,0,1-45.1-45.1,45.1,45.1,0,0,1,45.1-45.1,45.1,45.1,0,0,1,45.1,45.1A45.1,45.1,0,0,1,730.147-1180.51Zm45.627-90.312a1.577,1.577,0,0,0-.194-2.219l-6.61-5.545a1.573,1.573,0,0,0-2.218.194l-4.81,5.732a56.539,56.539,0,0,0-14.928-7.183v-9.424a4.528,4.528,0,0,0-4.529-4.529H717.809a4.529,4.529,0,0,0-4.529,4.529v9.424a56.556,56.556,0,0,0-14.928,7.183l-4.81-5.732a1.573,1.573,0,0,0-2.218-.194l-6.61,5.545a1.576,1.576,0,0,0-.194,2.219l4.815,5.737a56.6,56.6,0,0,0-15.972,39.477,56.782,56.782,0,0,0,56.783,56.782,56.783,56.783,0,0,0,56.784-56.782,56.6,56.6,0,0,0-15.972-39.477l4.815-5.737" transform="translate(836.182 1913.325)" fill="#707070"/>
  </g>
</svg>
